<svg width="26" height="26" viewBox="0 0 26 26" fill="none" xmlns="http://www.w3.org/2000/svg">
<path fill-rule="evenodd" clip-rule="evenodd" d="M5.93803 0.458009L9.49777 0.45801C9.49746 0.45801 9.49808 0.45801 9.49777 0.45801C9.49808 0.45801 9.49932 0.45801 9.49963 0.45801H12.9979C12.9976 0.45801 12.9982 0.45801 12.9979 0.45801C12.9982 0.45801 12.9992 0.45801 12.9995 0.45801H16.4981C16.4979 0.45801 16.4983 0.45801 16.4981 0.45801C16.4983 0.45801 16.4991 0.45801 16.4993 0.45801L20.6268 0.45801C21.4079 0.45799 22.0598 0.457974 22.5875 0.511658C23.1399 0.56785 23.6525 0.690017 24.1145 0.998712C24.4648 1.23279 24.7656 1.53357 24.9997 1.88389C25.3084 2.34588 25.4305 2.85848 25.4867 3.41087C25.5404 3.93859 25.5404 4.59045 25.5404 5.37164V5.46105C25.5404 6.24224 25.5404 6.89409 25.4867 7.42182C25.4305 7.97421 25.3084 8.4868 24.9997 8.9488C24.7656 9.29912 24.4648 9.5999 24.1145 9.83397C23.6525 10.1427 23.1399 10.2648 22.5875 10.321C22.0598 10.3747 21.4079 10.3747 20.6268 10.3747L11.832 10.3747C11.2573 10.3747 10.9143 10.3765 10.6685 10.4096C10.5558 10.4247 10.4994 10.4426 10.474 10.453C10.4681 10.4555 10.4642 10.4573 10.462 10.4585L10.4591 10.4601L10.4575 10.463C10.4564 10.4652 10.4545 10.4691 10.4521 10.475C10.4416 10.5004 10.4238 10.5568 10.4086 10.6695C10.3756 10.9153 10.3737 11.2583 10.3737 11.833L10.3737 20.6277C10.3737 21.4089 10.3737 22.0608 10.3201 22.5885C10.2639 23.1409 10.1417 23.6535 9.833 24.1155C9.59892 24.4658 9.29814 24.7666 8.94782 25.0006C8.48583 25.3093 7.97323 25.4315 7.42084 25.4877C6.89312 25.5414 6.24126 25.5414 5.46007 25.5413H5.37066C4.58947 25.5414 3.93762 25.5414 3.40989 25.4877C2.85751 25.4315 2.34491 25.3093 1.88292 25.0006C1.53259 24.7666 1.23181 24.4658 0.997735 24.1155C0.68904 23.6535 0.566874 23.1409 0.510681 22.5885C0.456998 22.0608 0.457014 21.4089 0.457033 20.6277L0.457033 5.93901C0.456998 4.89078 0.45697 4.0167 0.550264 3.32278C0.648736 2.59036 0.865351 1.92909 1.39673 1.39771C1.92811 0.866328 2.58938 0.649712 3.32181 0.55124C4.01572 0.457946 4.88981 0.457975 5.93803 0.458009ZM2.20703 10.3747H4.83203C5.31528 10.3747 5.70703 9.98293 5.70703 9.49968C5.70703 9.01643 5.31528 8.62468 4.83203 8.62468H2.20703V5.99968C2.20703 4.875 2.20889 4.11951 2.28466 3.55597C2.35704 3.0176 2.48213 2.78718 2.63417 2.63515C2.78621 2.48311 3.01662 2.35802 3.55499 2.28563C4.11853 2.20987 4.87402 2.20801 5.9987 2.20801H8.6237L8.6237 4.83301C8.6237 5.31626 9.01545 5.70801 9.4987 5.70801C9.98195 5.70801 10.3737 5.31626 10.3737 4.83301L10.3737 2.20801H12.1237V3.66634C12.1237 4.14959 12.5155 4.54134 12.9987 4.54134C13.4819 4.54134 13.8737 4.14959 13.8737 3.66634V2.20801H15.6237V4.83301C15.6237 5.31626 16.0155 5.70801 16.4987 5.70801C16.9819 5.70801 17.3737 5.31626 17.3737 4.83301V2.20801H19.1237V3.66634C19.1237 4.14959 19.5155 4.54134 19.9987 4.54134C20.4819 4.54134 20.8737 4.14959 20.8737 3.66634V2.20813C21.5534 2.20889 22.0335 2.21433 22.4104 2.25267C22.8244 2.29479 23.0157 2.36924 23.1422 2.45378C23.3015 2.56018 23.4382 2.6969 23.5446 2.85613C23.6291 2.98266 23.7036 3.17396 23.7457 3.58798C23.7893 4.01662 23.7904 4.57886 23.7904 5.41634C23.7904 6.25382 23.7893 6.81607 23.7457 7.24471C23.7036 7.65873 23.6291 7.85002 23.5446 7.97655C23.4382 8.13578 23.3015 8.27251 23.1422 8.3789C23.0157 8.46345 22.8244 8.5379 22.4104 8.58002C21.9818 8.62362 21.4195 8.62468 20.582 8.62468H11.832C11.8146 8.62468 11.7972 8.62467 11.7798 8.62467C11.2749 8.62461 10.8119 8.62456 10.4353 8.67519C10.0206 8.73095 9.58222 8.86214 9.22169 9.22267C8.86116 9.58319 8.72997 10.0215 8.67422 10.4363C8.62358 10.8129 8.62364 11.2759 8.6237 11.7808C8.6237 11.7982 8.6237 11.8156 8.6237 11.833V20.583C8.6237 21.4205 8.62264 21.9827 8.57904 22.4114C8.53692 22.8254 8.46247 23.0167 8.37793 23.1432C8.27153 23.3025 8.13481 23.4392 7.97558 23.5456C7.84905 23.6301 7.65775 23.7046 7.24373 23.7467C6.8151 23.7903 6.25285 23.7913 5.41537 23.7913C4.57789 23.7913 4.01564 23.7903 3.587 23.7467C3.17298 23.7046 2.98169 23.6301 2.85516 23.5456C2.69593 23.4392 2.55921 23.3025 2.45281 23.1432C2.36827 23.0167 2.29381 22.8254 2.2517 22.4114C2.21336 22.0345 2.20791 21.5544 2.20715 20.8747H3.66537C4.14862 20.8747 4.54037 20.4829 4.54037 19.9997C4.54037 19.5164 4.14862 19.1247 3.66537 19.1247H2.20703V17.3747L4.83203 17.3747C5.31528 17.3747 5.70703 16.9829 5.70703 16.4997C5.70703 16.0164 5.31528 15.6247 4.83203 15.6247L2.20703 15.6247V13.8747H3.66537C4.14862 13.8747 4.54037 13.4829 4.54037 12.9997C4.54037 12.5164 4.14862 12.1247 3.66537 12.1247H2.20703V10.3747Z" fill="url(#paint0_linear_7817_7215)"/>
<defs>
<linearGradient id="paint0_linear_7817_7215" x1="2.07531" y1="0.458007" x2="26.834" y2="1.80748" gradientUnits="userSpaceOnUse">
<stop stop-color="#F08D0C"/>
<stop offset="1" stop-color="#F0540C"/>
</linearGradient>
</defs>
</svg>
