<svg width="22" height="26" viewBox="0 0 22 26" fill="none" xmlns="http://www.w3.org/2000/svg">
<path fill-rule="evenodd" clip-rule="evenodd" d="M8.92404 0.920135C9.58274 0.612251 10.2918 0.458008 11.0013 0.458008C11.7108 0.458008 12.4199 0.612251 13.0786 0.920135C15.6162 2.10625 17.6447 4.3277 19.0332 6.88417C20.4233 9.44378 21.2096 12.4065 21.2096 15.1658C21.2096 20.8814 16.6538 25.5413 11.0013 25.5413C5.34882 25.5413 0.792969 20.8814 0.792969 15.1658C0.792969 12.4065 1.57934 9.44378 2.96945 6.88417C4.35786 4.3277 6.3864 2.10625 8.92404 0.920135ZM10.1263 2.33212C9.96958 2.37746 9.81536 2.43525 9.66505 2.5055C7.55499 3.49177 5.77025 5.39388 4.50729 7.71936C3.24604 10.0417 2.54297 12.7192 2.54297 15.1658C2.54297 19.6412 5.87755 23.2996 10.1263 23.7457V2.33212ZM11.8763 2.33212V7.38724L14.9423 4.32128C14.1499 3.56378 13.2759 2.94409 12.3375 2.5055C12.1872 2.43525 12.033 2.37746 11.8763 2.33212ZM16.1186 5.61984L11.8763 9.86211V13.8039L17.6564 8.02379C17.6038 7.92168 17.5501 7.82019 17.4953 7.71936C17.0884 6.97008 16.6273 6.26474 16.1186 5.61984ZM18.4186 9.73643L11.8763 16.2788V19.6372L19.1325 12.381L19.1884 12.4368C19.0127 11.5301 18.7539 10.621 18.4186 9.73643ZM19.4448 14.5436L11.8763 22.1121V23.7457C16.1251 23.2996 19.4596 19.6412 19.4596 15.1658C19.4596 14.9599 19.4547 14.7524 19.4448 14.5436Z" fill="url(#paint0_linear_7817_7233)"/>
<defs>
<linearGradient id="paint0_linear_7817_7233" x1="2.11017" y1="0.458007" x2="22.2827" y2="1.35295" gradientUnits="userSpaceOnUse">
<stop stop-color="#F08D0C"/>
<stop offset="1" stop-color="#F0540C"/>
</linearGradient>
</defs>
</svg>
