<svg width="20" height="26" viewBox="0 0 20 26" fill="none" xmlns="http://www.w3.org/2000/svg">
<path d="M1.83203 0.458008C2.31528 0.458008 2.70703 0.849759 2.70703 1.33301V1.91634C2.70703 3.04392 3.62112 3.95801 4.7487 3.95801H15.2487C16.3763 3.95801 17.2904 3.04392 17.2904 1.91634V1.33301C17.2904 0.849759 17.6821 0.458008 18.1654 0.458008C18.6486 0.458008 19.0404 0.849759 19.0404 1.33301V1.91634C19.0404 4.01042 17.3428 5.70801 15.2487 5.70801H4.7487C2.65462 5.70801 0.957032 4.01042 0.957032 1.91634V1.33301C0.957032 0.849759 1.34878 0.458008 1.83203 0.458008Z" fill="url(#paint0_linear_7817_7221)"/>
<path fill-rule="evenodd" clip-rule="evenodd" d="M6.43804 6.87468H13.5594C14.6076 6.87464 15.4817 6.87461 16.1756 6.96791C16.908 7.06638 17.5693 7.28299 18.1007 7.81438C18.632 8.34576 18.8487 9.00702 18.9471 9.73945C19.0404 10.4334 19.0404 11.3074 19.0404 12.3556V13.6437C19.0404 14.6919 19.0404 15.566 18.9471 16.2599C18.8487 16.9923 18.632 17.6536 18.1007 18.185C17.5693 18.7164 16.908 18.933 16.1756 19.0314C15.4817 19.1247 14.6076 19.1247 13.5594 19.1247H6.43804C5.38984 19.1247 4.51571 19.1247 3.82181 19.0314C3.08938 18.933 2.42812 18.7164 1.89673 18.185C1.36535 17.6536 1.14874 16.9923 1.05027 16.2599C0.956972 15.566 0.957 14.6919 0.957032 13.6437V12.3557C0.957 11.3075 0.956972 10.4334 1.05027 9.73945C1.14874 9.00702 1.36535 8.34576 1.89673 7.81438C2.42812 7.28299 3.08938 7.06638 3.82181 6.96791C4.51572 6.87461 5.38982 6.87464 6.43804 6.87468ZM4.05499 8.7023C3.51662 8.77468 3.28621 8.89978 3.13417 9.05181C2.98214 9.20385 2.85704 9.43426 2.78466 9.97264C2.70889 10.5362 2.70704 11.2917 2.70704 12.4163V13.583C2.70704 14.7077 2.70889 15.4632 2.78466 16.0267C2.85704 16.5651 2.98214 16.7955 3.13417 16.9475C3.28621 17.0996 3.51662 17.2247 4.05499 17.2971C4.61854 17.3728 5.37402 17.3747 6.4987 17.3747H13.4987C14.6234 17.3747 15.3789 17.3728 15.9424 17.2971C16.4808 17.2247 16.7112 17.0996 16.8632 16.9475C17.0153 16.7955 17.1404 16.5651 17.2127 16.0267C17.2885 15.4632 17.2904 14.7077 17.2904 13.583V12.4163C17.2904 11.2917 17.2885 10.5362 17.2127 9.97264C17.1404 9.43426 17.0153 9.20385 16.8632 9.05181C16.7112 8.89978 16.4808 8.77468 15.9424 8.7023C15.3789 8.62654 14.6234 8.62468 13.4987 8.62468H6.4987C5.37402 8.62468 4.61854 8.62654 4.05499 8.7023Z" fill="url(#paint1_linear_7817_7221)"/>
<path d="M4.7487 20.2913C2.65462 20.2913 0.957032 21.9889 0.957032 24.083V24.6663C0.957032 25.1496 1.34878 25.5413 1.83203 25.5413C2.31528 25.5413 2.70703 25.1496 2.70703 24.6663V24.083C2.70703 22.9554 3.62112 22.0413 4.7487 22.0413H15.2487C16.3763 22.0413 17.2904 22.9554 17.2904 24.083V24.6663C17.2904 25.1496 17.6821 25.5413 18.1654 25.5413C18.6486 25.5413 19.0404 25.1496 19.0404 24.6663V24.083C19.0404 21.9889 17.3428 20.2913 15.2487 20.2913H4.7487Z" fill="url(#paint2_linear_7817_7221)"/>
<defs>
<linearGradient id="paint0_linear_7817_7221" x1="2.1237" y1="0.458007" x2="19.9984" y2="1.16038" gradientUnits="userSpaceOnUse">
<stop stop-color="#F08D0C"/>
<stop offset="1" stop-color="#F0540C"/>
</linearGradient>
<linearGradient id="paint1_linear_7817_7221" x1="2.1237" y1="0.458007" x2="19.9984" y2="1.16038" gradientUnits="userSpaceOnUse">
<stop stop-color="#F08D0C"/>
<stop offset="1" stop-color="#F0540C"/>
</linearGradient>
<linearGradient id="paint2_linear_7817_7221" x1="2.1237" y1="0.458007" x2="19.9984" y2="1.16038" gradientUnits="userSpaceOnUse">
<stop stop-color="#F08D0C"/>
<stop offset="1" stop-color="#F0540C"/>
</linearGradient>
</defs>
</svg>
