<svg width="16" height="16" viewBox="0 0 16 16" fill="none" xmlns="http://www.w3.org/2000/svg">
<path d="M14.4468 13.566C17.513 9.87072 16.1471 3.48851 9.38669 0.894759C6.56113 -0.189349 3.1119 -0.218402 0.860071 0.433455C0.654138 0.493025 0.493249 0.654036 0.433679 0.859969C-0.228676 3.14806 -0.175697 6.59692 0.894861 9.38855C3.70065 16.7047 10.2279 17.2186 13.5635 14.4496L14.4682 15.3546C14.7121 15.5986 15.1076 15.5986 15.3517 15.3546C15.5956 15.1106 15.5956 14.7151 15.3517 14.4711L14.4468 13.566ZM13.5585 12.6775L12.1466 11.2653V8.35693C12.1466 8.01196 11.8669 7.73217 11.5219 7.73217C11.177 7.73217 10.8973 8.01183 10.8973 8.35693V10.0159L9.20041 8.3186V5.41015C9.20041 5.06517 8.92075 4.78539 8.57578 4.78539C8.23081 4.78539 7.95114 5.06517 7.95114 5.41015V7.06908L6.07138 5.18883C5.82736 4.94481 5.43185 4.94481 5.18796 5.18883C4.94406 5.43285 4.94406 5.82836 5.18796 6.07238L7.06784 7.95263H5.40927C5.0643 7.95263 4.78464 8.23229 4.78464 8.57739C4.78464 8.92248 5.0643 9.20214 5.40927 9.20214H8.31711L10.0139 10.8994H8.35544C8.01047 10.8994 7.73081 11.1791 7.73081 11.5242C7.73081 11.8691 8.01047 12.1489 8.35544 12.1489H11.2632L12.675 13.5612C9.36838 16.1794 4.21091 14.5073 2.07064 8.96557C1.1589 6.60448 1.05148 3.85692 1.55123 1.5504C3.81503 1.05699 6.56894 1.15196 8.9393 2.06139C14.4487 4.17528 16.2026 9.33679 13.5585 12.6775Z" fill="#54A715"/>
</svg>
