<svg width="28" height="28" viewBox="0 0 28 28" fill="none" xmlns="http://www.w3.org/2000/svg">
<path fill-rule="evenodd" clip-rule="evenodd" d="M12.3579 2.70498C13.3955 2.20902 14.6018 2.20902 15.6395 2.70498C16.0903 2.92044 16.5034 3.27277 17.0753 3.76063C17.105 3.78595 17.1351 3.81164 17.1657 3.83769C17.4434 4.0744 17.5309 4.14718 17.6194 4.2065C17.8446 4.35739 18.0974 4.46212 18.3633 4.51461C18.4678 4.53525 18.5811 4.54564 18.9449 4.57467C18.985 4.57787 19.0244 4.581 19.0633 4.58408C19.8127 4.64355 20.3539 4.6865 20.825 4.8529C21.9095 5.23593 22.7624 6.08891 23.1455 7.17334C23.3119 7.64445 23.3548 8.18567 23.4143 8.93506C23.4174 8.97396 23.4205 9.01342 23.4237 9.05346C23.4527 9.41724 23.4631 9.53056 23.4838 9.6351C23.5363 9.90099 23.641 10.1538 23.7919 10.3789C23.8512 10.4675 23.924 10.5549 24.1607 10.8327C24.1867 10.8633 24.2124 10.8934 24.2378 10.9231C24.7256 11.495 25.0779 11.9081 25.2934 12.3589C25.7894 13.3965 25.7894 14.6028 25.2934 15.6405C25.0779 16.0913 24.7256 16.5043 24.2378 17.0763C24.2124 17.1059 24.1867 17.1361 24.1607 17.1667C23.924 17.4444 23.8512 17.5319 23.7919 17.6204C23.641 17.8455 23.5363 18.0984 23.4838 18.3643C23.4631 18.4688 23.4527 18.5821 23.4237 18.9459C23.4205 18.9859 23.4174 19.0254 23.4143 19.0643C23.3548 19.8137 23.3119 20.3549 23.1455 20.826C22.7624 21.9104 21.9095 22.7634 20.825 23.1465C20.3539 23.3129 19.8127 23.3558 19.0633 23.4153C19.0244 23.4184 18.985 23.4215 18.9449 23.4247C18.5811 23.4537 18.4678 23.4641 18.3633 23.4847C18.0974 23.5372 17.8446 23.642 17.6194 23.7929C17.5309 23.8522 17.4434 23.925 17.1657 24.1617C17.1351 24.1877 17.105 24.2134 17.0753 24.2387C16.5033 24.7266 16.0903 25.0789 15.6395 25.2944C14.6018 25.7903 13.3955 25.7903 12.3579 25.2944C11.9071 25.0789 11.494 24.7266 10.9221 24.2387C10.8924 24.2134 10.8623 24.1877 10.8317 24.1617C10.554 23.925 10.4665 23.8522 10.378 23.7929C10.1528 23.642 9.90001 23.5372 9.63412 23.4847C9.52959 23.4641 9.41627 23.4537 9.05248 23.4247C9.01244 23.4215 8.97298 23.4184 8.93409 23.4153C8.18469 23.3558 7.64347 23.3129 7.17236 23.1465C6.08794 22.7634 5.23495 21.9104 4.85192 20.826C4.68552 20.3549 4.64257 19.8137 4.58311 19.0643C4.58002 19.0254 4.57689 18.9859 4.5737 18.9459C4.54467 18.5821 4.53428 18.4688 4.51364 18.3643C4.46114 18.0984 4.35642 17.8455 4.20553 17.6204C4.1462 17.5319 4.07342 17.4444 3.83671 17.1667C3.81066 17.1361 3.78497 17.106 3.75965 17.0763C3.2718 16.5043 2.91946 16.0913 2.704 15.6405C2.20804 14.6028 2.20804 13.3965 2.704 12.3589C2.91946 11.9081 3.27179 11.495 3.75965 10.9231C3.78497 10.8934 3.81066 10.8633 3.83671 10.8327C4.07342 10.5549 4.1462 10.4675 4.20553 10.3789C4.35642 10.1538 4.46114 9.90099 4.51364 9.6351C4.53428 9.53056 4.54467 9.41724 4.5737 9.05346C4.57689 9.01342 4.58002 8.97396 4.58311 8.93506C4.64257 8.18567 4.68552 7.64445 4.85192 7.17334C5.23495 6.08891 6.08794 5.23593 7.17236 4.8529C7.64348 4.6865 8.18469 4.64355 8.93409 4.58409C8.97298 4.581 9.01244 4.57787 9.05248 4.57467C9.41627 4.54564 9.52959 4.53525 9.63412 4.51461C9.90001 4.46212 10.1528 4.35739 10.378 4.2065C10.4665 4.14718 10.554 4.0744 10.8317 3.83769C10.8623 3.81163 10.8924 3.78595 10.9221 3.76062C11.494 3.27277 11.9071 2.92044 12.3579 2.70498ZM14.8822 4.28939C14.3235 4.02233 13.6739 4.02233 13.1152 4.28939C12.8992 4.39263 12.6715 4.57711 11.9707 5.17427C11.9592 5.18408 11.9479 5.19376 11.9367 5.20331C11.7067 5.39936 11.5388 5.54247 11.3557 5.66524C10.9376 5.94547 10.468 6.13996 9.97426 6.23744C9.75793 6.28015 9.53804 6.29766 9.23679 6.32164C9.22212 6.32281 9.20725 6.32399 9.19217 6.32519C8.27442 6.39843 7.98297 6.42899 7.75722 6.50873C7.1733 6.71498 6.714 7.17428 6.50775 7.7582C6.42801 7.98395 6.39745 8.2754 6.32422 9.19315C6.32301 9.20822 6.32183 9.22309 6.32066 9.23777C6.29668 9.53901 6.27918 9.75891 6.23647 9.97523C6.13898 10.469 5.94449 10.9386 5.66426 11.3567C5.54149 11.5398 5.39838 11.7077 5.20233 11.9377C5.19278 11.9489 5.1831 11.9602 5.17329 11.9717C4.57613 12.6725 4.39166 12.9002 4.28841 13.1162C4.02135 13.6749 4.02135 14.3244 4.28841 14.8832C4.39166 15.0992 4.57613 15.3269 5.17329 16.0276C5.1831 16.0391 5.19278 16.0505 5.20234 16.0617C5.39839 16.2917 5.5415 16.4595 5.66426 16.6427C5.94449 17.0608 6.13898 17.5303 6.23647 18.0241C6.27918 18.2404 6.29668 18.4603 6.32066 18.7616C6.32183 18.7763 6.32301 18.7911 6.32422 18.8062C6.39745 19.724 6.42801 20.0154 6.50775 20.2412C6.714 20.8251 7.1733 21.2844 7.75722 21.4906C7.98297 21.5704 8.27442 21.6009 9.19217 21.6742L9.23679 21.6777C9.53804 21.7017 9.75793 21.7192 9.97426 21.7619C10.468 21.8594 10.9376 22.0539 11.3557 22.3341C11.5389 22.4569 11.7067 22.6 11.9367 22.796L11.9707 22.8251C12.6715 23.4222 12.8992 23.6067 13.1152 23.71C13.6739 23.977 14.3235 23.977 14.8822 23.71C15.0982 23.6067 15.3259 23.4222 16.0267 22.8251L16.0607 22.796C16.2907 22.6 16.4586 22.4569 16.6417 22.3341C17.0598 22.0539 17.5294 21.8594 18.0231 21.7619C18.2395 21.7192 18.4594 21.7017 18.7606 21.6777L18.8052 21.6742C19.723 21.6009 20.0144 21.5704 20.2402 21.4906C20.8241 21.2844 21.2834 20.8251 21.4896 20.2412C21.5694 20.0154 21.5999 19.724 21.6732 18.8062L21.6767 18.7616C21.7007 18.4603 21.7182 18.2404 21.7609 18.0241C21.8584 17.5303 22.0529 17.0608 22.3331 16.6427C22.4559 16.4595 22.599 16.2917 22.7951 16.0617L22.8241 16.0276C23.4213 15.3269 23.6057 15.0992 23.709 14.8832C23.976 14.3244 23.976 13.6749 23.709 13.1162C23.6057 12.9002 23.4213 12.6725 22.8241 11.9717L22.795 11.9376C22.599 11.7077 22.4559 11.5398 22.3331 11.3567C22.0529 10.9386 21.8584 10.469 21.7609 9.97523C21.7182 9.75891 21.7007 9.53901 21.6767 9.23776L21.6732 9.19315C21.5999 8.2754 21.5694 7.98395 21.4896 7.7582C21.2834 7.17428 20.8241 6.71498 20.2402 6.50873C20.0144 6.42899 19.723 6.39843 18.8052 6.32519C18.7902 6.32399 18.7753 6.32281 18.7606 6.32164C18.4594 6.29766 18.2395 6.28015 18.0231 6.23744C17.5294 6.13996 17.0598 5.94547 16.6417 5.66524C16.4585 5.54247 16.2907 5.39936 16.0607 5.2033C16.0495 5.19375 16.0382 5.18408 16.0267 5.17427C15.3259 4.57711 15.0982 4.39263 14.8822 4.28939Z" fill="url(#paint0_linear_7817_7253)"/>
<path fill-rule="evenodd" clip-rule="evenodd" d="M18.1317 9.86663C18.4746 10.2095 18.4746 10.7655 18.1317 11.1084L11.1074 18.1327C10.7645 18.4756 10.2086 18.4756 9.86566 18.1327C9.52276 17.7898 9.52276 17.2339 9.86566 16.891L16.89 9.86663C17.2329 9.52374 17.7888 9.52374 18.1317 9.86663Z" fill="url(#paint1_linear_7817_7253)"/>
<path d="M18.0962 16.9265C18.0962 17.5731 17.5721 18.0972 16.9255 18.0972C16.2789 18.0972 15.7548 17.5731 15.7548 16.9265C15.7548 16.2799 16.2789 15.7558 16.9255 15.7558C17.5721 15.7558 18.0962 16.2799 18.0962 16.9265Z" fill="url(#paint2_linear_7817_7253)"/>
<path d="M12.2426 11.0729C12.2426 11.7194 11.7185 12.2436 11.0719 12.2436C10.4253 12.2436 9.90117 11.7194 9.90117 11.0729C9.90117 10.4263 10.4253 9.90214 11.0719 9.90214C11.7185 9.90214 12.2426 10.4263 12.2426 11.0729Z" fill="url(#paint3_linear_7817_7253)"/>
<defs>
<linearGradient id="paint0_linear_7817_7253" x1="3.83741" y1="2.33301" x2="26.8687" y2="3.58833" gradientUnits="userSpaceOnUse">
<stop stop-color="#F08D0C"/>
<stop offset="1" stop-color="#F0540C"/>
</linearGradient>
<linearGradient id="paint1_linear_7817_7253" x1="3.83741" y1="2.33301" x2="26.8687" y2="3.58833" gradientUnits="userSpaceOnUse">
<stop stop-color="#F08D0C"/>
<stop offset="1" stop-color="#F0540C"/>
</linearGradient>
<linearGradient id="paint2_linear_7817_7253" x1="3.83741" y1="2.33301" x2="26.8687" y2="3.58833" gradientUnits="userSpaceOnUse">
<stop stop-color="#F08D0C"/>
<stop offset="1" stop-color="#F0540C"/>
</linearGradient>
<linearGradient id="paint3_linear_7817_7253" x1="3.83741" y1="2.33301" x2="26.8687" y2="3.58833" gradientUnits="userSpaceOnUse">
<stop stop-color="#F08D0C"/>
<stop offset="1" stop-color="#F0540C"/>
</linearGradient>
</defs>
</svg>
