<svg width="24" height="26" viewBox="0 0 24 26" fill="none" xmlns="http://www.w3.org/2000/svg">
<path d="M12.875 11.8332C12.875 11.3499 12.4833 10.9582 12 10.9582C11.5168 10.9582 11.125 11.3499 11.125 11.8332V14.1665C11.125 14.6497 11.5168 15.0415 12 15.0415C12.4833 15.0415 12.875 14.6497 12.875 14.1665V11.8332Z" fill="url(#paint0_linear_7817_7227)"/>
<path fill-rule="evenodd" clip-rule="evenodd" d="M14.0122 1.36478L16.8516 1.83801C18.2 2.06272 19.2924 2.24477 20.1469 2.49918C21.0368 2.76412 21.7721 3.13529 22.3382 3.80354C22.9043 4.47179 23.1495 5.25808 23.2646 6.17947C23.375 7.06419 23.375 8.17165 23.375 9.53863V16.461C23.375 17.828 23.375 18.9354 23.2646 19.8202C23.1495 20.7416 22.9043 21.5278 22.3382 22.1961C21.7721 22.8643 21.0368 23.2355 20.1469 23.5005C19.2924 23.7549 18.2 23.9369 16.8517 24.1616L14.0121 24.6349C12.8068 24.8358 11.8101 25.0019 11.0141 25.0212C10.1793 25.0413 9.40532 24.9071 8.75955 24.3601C8.21444 23.8983 7.94449 23.298 7.80299 22.6248H7.2707C5.94909 22.6249 4.86903 22.6249 4.01637 22.5102C3.12509 22.3904 2.35236 22.1311 1.73556 21.5143C1.11875 20.8975 0.859418 20.1247 0.739589 19.2335C0.624951 18.3808 0.624974 17.3008 0.625001 15.9792V10.0205C0.624974 8.6989 0.624951 7.61886 0.739589 6.76619C0.859418 5.87492 1.11875 5.10219 1.73556 4.48538C2.35237 3.86857 3.12509 3.60924 4.01637 3.48942C4.86904 3.37478 5.94906 3.3748 7.27069 3.37483L7.80299 3.37483C7.94448 2.70161 8.21443 2.10132 8.75955 1.63954C9.40532 1.09249 10.1793 0.958303 11.0141 0.978472C11.8101 0.997703 12.8068 1.16385 14.0122 1.36478ZM7.625 19.2241C7.62498 19.8261 7.62497 20.3768 7.63833 20.8748H7.33334C5.93367 20.8748 4.97194 20.873 4.24955 20.7758C3.55233 20.6821 3.21046 20.5143 2.97299 20.2768C2.73553 20.0394 2.56772 19.6975 2.47398 19.0003C2.37686 18.2779 2.375 17.3162 2.375 15.9165V10.0832C2.375 8.6835 2.37686 7.72177 2.47398 6.99938C2.56772 6.30216 2.73553 5.96028 2.97299 5.72282C3.21046 5.48536 3.55233 5.31755 4.24955 5.22381C4.97194 5.12669 5.93367 5.12483 7.33334 5.12483H7.63833C7.62497 5.62288 7.62498 6.17354 7.625 6.77555V19.2241ZM10.9719 2.72796C10.3392 2.71268 10.0701 2.82288 9.89071 2.97482C9.71135 3.12676 9.55839 3.37413 9.46946 4.0007C9.37709 4.65149 9.375 5.53663 9.375 6.84197V19.1577C9.375 20.463 9.37709 21.3481 9.46946 21.9989C9.55839 22.6255 9.71135 22.8729 9.89071 23.0248C10.0701 23.1768 10.3392 23.287 10.9719 23.2717C11.629 23.2558 12.5024 23.1123 13.79 22.8977L16.5069 22.4449C17.9259 22.2084 18.91 22.0428 19.6476 21.8232C20.3618 21.6106 20.7396 21.3758 21.0029 21.0649C21.2663 20.7541 21.4357 20.3428 21.5281 19.6034C21.6234 18.8397 21.625 17.8418 21.625 16.4033V9.59637C21.625 8.15786 21.6234 7.15996 21.5281 6.39628C21.4357 5.65684 21.2663 5.24556 21.0029 4.9347C20.7396 4.62383 20.3618 4.38905 19.6476 4.17642C18.91 3.95683 17.9259 3.7912 16.5069 3.55471L13.79 3.10189C12.5024 2.88729 11.629 2.74384 10.9719 2.72796Z" fill="url(#paint1_linear_7817_7227)"/>
<defs>
<linearGradient id="paint0_linear_7817_7227" x1="2.09274" y1="0.976562" x2="24.5553" y2="2.13487" gradientUnits="userSpaceOnUse">
<stop stop-color="#F08D0C"/>
<stop offset="1" stop-color="#F0540C"/>
</linearGradient>
<linearGradient id="paint1_linear_7817_7227" x1="2.09274" y1="0.976562" x2="24.5553" y2="2.13487" gradientUnits="userSpaceOnUse">
<stop stop-color="#F08D0C"/>
<stop offset="1" stop-color="#F0540C"/>
</linearGradient>
</defs>
</svg>
