<svg width="26" height="26" viewBox="0 0 26 26" fill="none" xmlns="http://www.w3.org/2000/svg">
<path fill-rule="evenodd" clip-rule="evenodd" d="M16.438 0.458009H18.8927C19.9409 0.457975 20.815 0.457946 21.5089 0.55124C22.2414 0.649712 22.9026 0.866328 23.434 1.39771C23.9654 1.92909 24.182 2.59036 24.2805 3.32278C24.3738 4.0167 24.3737 4.89079 24.3737 5.93902V23.7913H24.6654C25.1486 23.7913 25.5404 24.1831 25.5404 24.6663C25.5404 25.1496 25.1486 25.5413 24.6654 25.5413H1.33203C0.848782 25.5413 0.457031 25.1496 0.457031 24.6663C0.457031 24.1831 0.848782 23.7913 1.33203 23.7913H1.6237L1.6237 9.43901C1.62366 8.39078 1.62363 7.5167 1.71693 6.82278C1.8154 6.09036 2.03202 5.42909 2.5634 4.89771C3.09478 4.36633 3.75605 4.14971 4.48847 4.05124C5.18238 3.95795 6.05647 3.95797 7.1047 3.95801L10.9897 3.95801C11.0497 2.93814 11.2377 2.05671 11.8967 1.39771C12.4281 0.866328 13.0894 0.649712 13.8218 0.55124C14.5157 0.457946 15.3898 0.457975 16.438 0.458009ZM11.84 5.70801C11.8385 5.70801 11.837 5.70801 11.8355 5.70801C11.8343 5.70801 11.8332 5.70801 11.832 5.70801H7.16536C6.04068 5.70801 5.2852 5.70987 4.72166 5.78563C4.18328 5.85802 3.95287 5.98311 3.80083 6.13515C3.6488 6.28718 3.5237 6.5176 3.45132 7.05597C3.37556 7.61951 3.3737 8.375 3.3737 9.49968V23.7913H8.6237V21.1663C8.6237 20.6831 9.01545 20.2913 9.4987 20.2913C9.98195 20.2913 10.3737 20.6831 10.3737 21.1663V23.7913H15.6237V9.49968C15.6237 8.375 15.6218 7.61951 15.5461 7.05597C15.4737 6.5176 15.3486 6.28718 15.1966 6.13515C15.0445 5.98311 14.8141 5.85802 14.2757 5.78563C13.7135 5.71005 12.9603 5.70802 11.84 5.70801ZM17.3737 23.7913L17.3737 9.43902C17.3737 8.39079 17.3738 7.5167 17.2805 6.82278C17.182 6.09036 16.9654 5.42909 16.434 4.89771C15.9026 4.36633 15.2414 4.14971 14.5089 4.05124C14.0127 3.98452 13.4243 3.96553 12.7459 3.96014C12.8045 3.1439 12.9329 2.83641 13.1342 2.63515C13.2862 2.48311 13.5166 2.35802 14.055 2.28563C14.6185 2.20987 15.374 2.20801 16.4987 2.20801H18.832C19.9567 2.20801 20.7122 2.20987 21.2757 2.28563C21.8141 2.35802 22.0445 2.48311 22.1966 2.63515C22.3486 2.78718 22.4737 3.0176 22.5461 3.55597C22.6218 4.11951 22.6237 4.875 22.6237 5.99968V23.7913H17.3737ZM5.1237 8.33301C5.1237 7.84976 5.51545 7.45801 5.9987 7.45801H12.9987C13.4819 7.45801 13.8737 7.84976 13.8737 8.33301C13.8737 8.81626 13.4819 9.20801 12.9987 9.20801H5.9987C5.51545 9.20801 5.1237 8.81626 5.1237 8.33301ZM5.1237 11.833C5.1237 11.3498 5.51545 10.958 5.9987 10.958H12.9987C13.4819 10.958 13.8737 11.3498 13.8737 11.833C13.8737 12.3163 13.4819 12.708 12.9987 12.708H5.9987C5.51545 12.708 5.1237 12.3163 5.1237 11.833ZM5.1237 15.333C5.1237 14.8498 5.51545 14.458 5.9987 14.458H12.9987C13.4819 14.458 13.8737 14.8498 13.8737 15.333C13.8737 15.8163 13.4819 16.208 12.9987 16.208H5.9987C5.51545 16.208 5.1237 15.8163 5.1237 15.333Z" fill="url(#paint0_linear_7817_7248)"/>
<defs>
<linearGradient id="paint0_linear_7817_7248" x1="2.07531" y1="0.458007" x2="26.834" y2="1.80748" gradientUnits="userSpaceOnUse">
<stop stop-color="#F08D0C"/>
<stop offset="1" stop-color="#F0540C"/>
</linearGradient>
</defs>
</svg>
