<svg width="28" height="28" viewBox="0 0 28 28" fill="none" xmlns="http://www.w3.org/2000/svg">
<path fill-rule="evenodd" clip-rule="evenodd" d="M18.2931 6.23918C16.3929 6.23918 14.8463 7.77428 14.8463 9.67546C14.8463 11.5766 16.3929 13.1117 18.2931 13.1117C20.1933 13.1117 21.7399 11.5766 21.7399 9.67546C21.7399 7.77428 20.1933 6.23918 18.2931 6.23918ZM16.5963 9.67546C16.5963 8.74752 17.3526 7.98918 18.2931 7.98918C19.2336 7.98918 19.9899 8.74752 19.9899 9.67546C19.9899 10.6034 19.2336 11.3617 18.2931 11.3617C17.3526 11.3617 16.5963 10.6034 16.5963 9.67546Z" fill="url(#paint0_linear_7817_7241)"/>
<path fill-rule="evenodd" clip-rule="evenodd" d="M11.117 24.3577C11.5055 23.8161 11.6306 23.2664 11.6213 22.7769C12.0788 22.9114 12.5315 22.9285 12.9651 22.8462C13.8616 22.6762 14.525 22.1095 14.8769 21.6421L14.883 21.634L14.889 21.6257C15.5017 20.7714 15.5005 19.8963 15.3504 19.2688C15.2769 18.9613 15.1678 18.7084 15.0772 18.5317C15.0315 18.4424 14.9892 18.37 14.9562 18.317C14.9475 18.3029 14.9394 18.2901 14.932 18.2787C14.8284 18.0855 14.7116 17.9336 14.6134 17.819L14.6239 17.8085L15.1654 17.2692C15.6107 17.4821 16.0936 17.6162 16.5167 17.7038C17.2 17.8452 17.8686 17.8927 18.2928 17.8927C22.8444 17.8927 26.5403 14.217 26.5403 9.67535C26.5403 5.13366 22.8444 1.45801 18.2928 1.45801C13.7413 1.45801 10.0454 5.13366 10.0454 9.67535C10.0454 10.7453 10.2889 11.6615 10.5289 12.3068C10.59 12.4711 10.6513 12.6191 10.7091 12.7489L2.24466 21.1788C1.9455 21.4767 1.59457 21.9948 1.4885 22.6437C1.37347 23.3474 1.56239 24.1298 2.24466 24.8093L3.27338 25.8338C3.28924 25.8496 3.3057 25.8647 3.32272 25.8793C3.61986 26.1329 4.11894 26.4262 4.71871 26.5148C5.362 26.6099 6.10652 26.4618 6.73712 25.8338L7.39808 25.1755C8.0198 25.5321 8.67699 25.6133 9.28468 25.4969C10.0728 25.3459 10.7284 24.8742 11.1049 24.3741L11.1111 24.366L11.117 24.3577ZM11.7954 9.67535C11.7954 6.10691 14.701 3.20801 18.2928 3.20801C21.8847 3.20801 24.7903 6.10691 24.7903 9.67535C24.7903 13.2438 21.8847 16.1427 18.2928 16.1427C17.9741 16.1427 17.4254 16.1048 16.8714 15.9901C16.2916 15.8701 15.8365 15.6918 15.5941 15.4906C15.2469 15.2025 14.7375 15.2256 14.4178 15.5439L13.389 16.5685C13.1537 16.8029 12.9274 17.0686 12.808 17.3752C12.6569 17.7635 12.705 18.137 12.878 18.4471C12.9806 18.631 13.1457 18.8066 13.2145 18.8798L13.2375 18.9045C13.3189 18.9943 13.3634 19.053 13.396 19.1178L13.4268 19.1793L13.462 19.2284L13.47 19.2408C13.4805 19.2578 13.4985 19.2881 13.5197 19.3296C13.5632 19.4144 13.6147 19.535 13.6484 19.6757C13.7121 19.9424 13.7115 20.2595 13.473 20.5973C13.3089 20.8112 12.9982 21.0588 12.639 21.1269C12.3385 21.1839 11.8486 21.1468 11.1949 20.4958C10.8535 20.1557 10.3014 20.1557 9.95999 20.4958L9.61708 20.8373C9.29409 21.1589 9.27243 21.6742 9.566 22.0218C9.56763 22.0238 9.57213 22.0294 9.57889 22.0384C9.59294 22.057 9.61599 22.0889 9.6433 22.1319C9.69934 22.2201 9.76519 22.3422 9.81197 22.482C9.90013 22.7454 9.91398 23.0266 9.70116 23.3291C9.5612 23.5102 9.27723 23.7165 8.9555 23.7781C8.68209 23.8305 8.33202 23.7917 7.93729 23.3985C7.59587 23.0585 7.0438 23.0585 6.70239 23.3985L5.50222 24.5938C5.30985 24.7854 5.13996 24.8081 4.97459 24.7836C4.77887 24.7547 4.58758 24.6505 4.4796 24.5652L3.47956 23.5693C3.2017 23.2926 3.1906 23.0788 3.21558 22.926C3.24953 22.7183 3.37866 22.5192 3.47956 22.4187L12.3979 13.5369C12.6859 13.2501 12.7369 12.8021 12.5209 12.4579L12.5183 12.4536C12.5151 12.4483 12.5091 12.4381 12.5005 12.4231C12.4834 12.3932 12.4565 12.3446 12.423 12.279C12.3558 12.1473 12.2629 11.949 12.1691 11.6968C11.9805 11.1896 11.7954 10.4837 11.7954 9.67535ZM9.566 22.0218C9.5676 22.0237 9.56922 22.0256 9.57084 22.0275L9.56949 22.0259L9.566 22.0218Z" fill="url(#paint1_linear_7817_7241)"/>
<defs>
<linearGradient id="paint0_linear_7817_7241" x1="3.07531" y1="1.45801" x2="27.8339" y2="2.80748" gradientUnits="userSpaceOnUse">
<stop stop-color="#F08D0C"/>
<stop offset="1" stop-color="#F0540C"/>
</linearGradient>
<linearGradient id="paint1_linear_7817_7241" x1="3.07531" y1="1.45801" x2="27.8339" y2="2.80748" gradientUnits="userSpaceOnUse">
<stop stop-color="#F08D0C"/>
<stop offset="1" stop-color="#F0540C"/>
</linearGradient>
</defs>
</svg>
