<svg width="20" height="21" viewBox="0 0 20 21" fill="none" xmlns="http://www.w3.org/2000/svg">
<path d="M1.66797 10.5002C1.66797 7.35747 1.66797 5.78612 2.64428 4.80981C3.62059 3.8335 5.19194 3.8335 8.33464 3.8335H11.668C14.8107 3.8335 16.382 3.8335 17.3583 4.80981C18.3346 5.78612 18.3346 7.35747 18.3346 10.5002C18.3346 13.6429 18.3346 15.2142 17.3583 16.1905C16.382 17.1668 14.8107 17.1668 11.668 17.1668H8.33463C5.19194 17.1668 3.62059 17.1668 2.64428 16.1905C1.66797 15.2142 1.66797 13.6429 1.66797 10.5002Z" stroke="#F08D0C" stroke-width="1.25"/>
<path d="M5 7.1665L6.79908 8.66574C8.32961 9.94118 9.09488 10.5789 10 10.5789C10.9051 10.5789 11.6704 9.94118 13.2009 8.66574L15 7.1665" stroke="#F08D0C" stroke-width="1.25" stroke-linecap="round"/>
</svg>
