<svg width="28" height="28" viewBox="0 0 28 28" fill="none" xmlns="http://www.w3.org/2000/svg">
    <path d="M8.75 21.006c.966 0 1.75.782 1.75 1.747 0 .965-.784 1.747-1.75 1.747S7 23.718 7 22.753c0-.965.784-1.747 1.75-1.747z" stroke="url(#ezi4goi1ma)" stroke-width="1.75"/>
    <path d="M19.25 21.006c.966 0 1.75.782 1.75 1.747 0 .965-.784 1.747-1.75 1.747s-1.75-.782-1.75-1.747c0-.965.784-1.747 1.75-1.747z" stroke="url(#trtipr8ydb)" stroke-width="1.75"/>
    <path d="m2.637 3.606.29-.826-.29.826zm-.015-.933a.875.875 0 0 0-.58 1.651l.58-1.651zM5.35 5.042l.722-.494-.722.494zm1.519 11.97-.635.602.635-.602zm17.231-5.486.857.177.002-.005-.859-.172zm-.583 2.828.857.177-.857-.177zm.673-6.543-.694.533.694-.533zm-1.868 9.742-.552-.678.552.678zm-15.663-6.17V8.209h-1.75v3.174h1.75zM2.927 2.78l-.305-.107-.58 1.651.305.107.58-1.65zm9.832 16.173h6.187v-1.75h-6.187v1.75zM6.66 8.209c0-.825 0-1.513-.06-2.073-.063-.579-.199-1.107-.528-1.588l-1.445.987c.106.154.187.366.233.79.048.443.05 1.02.05 1.884h1.75zM2.346 4.43c.779.274 1.29.455 1.667.64.354.174.51.314.612.464l1.445-.987C5.74 4.063 5.3 3.752 4.785 3.5c-.491-.241-1.118-.46-1.858-.72l-.58 1.651zm2.561 6.952c0 1.694.016 2.916.176 3.85.17.996.512 1.71 1.149 2.381l1.27-1.204c-.374-.394-.575-.78-.694-1.473-.13-.757-.15-1.817-.15-3.554h-1.75zm7.851 5.82c-1.653 0-2.8-.002-3.664-.125-.834-.118-1.274-.333-1.592-.668l-1.27 1.204c.693.73 1.57 1.049 2.616 1.197 1.016.144 2.31.142 3.91.142v-1.75zm-6.976-9.19h14.153v-1.75H5.783v1.75zm17.46 3.337-.584 2.828 1.714.353.583-2.828-1.713-.353zm-3.307-3.337c.999 0 1.878 0 2.572.078.345.039.603.092.784.156.189.066.219.117.203.097l1.387-1.067c-.274-.356-.66-.558-1.01-.681a5.385 5.385 0 0 0-1.17-.244c-.811-.09-1.8-.09-2.766-.09v1.75zm5.021 3.684c.198-.988.366-1.818.407-2.483.042-.684-.036-1.358-.482-1.937l-1.387 1.067c.073.094.153.264.122.762-.032.518-.168 1.21-.376 2.249l1.716.342zm-6.011 7.256c.888 0 1.634.001 2.235-.072.625-.077 1.195-.244 1.693-.65l-1.105-1.356c-.146.12-.354.214-.8.269-.47.057-1.09.059-2.023.059v1.75zm3.713-4.775c-.188.913-.314 1.52-.466 1.968-.144.427-.278.61-.424.73l1.105 1.356c.498-.406.776-.93.978-1.527.193-.573.342-1.304.521-2.174l-1.714-.353z" fill="url(#eq971wxqxc)"/>
    <path d="m11.082 10.5.616 3.632" stroke="url(#67hcl61utd)" stroke-width="1.75" stroke-linecap="round"/>
    <path d="m18.117 10.5-.616 3.632" stroke="url(#4dz6zpm85e)" stroke-width="1.75" stroke-linecap="round"/>
    <defs>
        <linearGradient id="ezi4goi1ma" x1="7" y1="24.275" x2="7.188" y2="20.826" gradientUnits="userSpaceOnUse">
            <stop stop-color="#F08D0C"/>
            <stop offset="1" stop-color="#F0540C"/>
        </linearGradient>
        <linearGradient id="trtipr8ydb" x1="17.5" y1="24.275" x2="17.688" y2="20.826" gradientUnits="userSpaceOnUse">
            <stop stop-color="#F08D0C"/>
            <stop offset="1" stop-color="#F0540C"/>
        </linearGradient>
        <linearGradient id="eq971wxqxc" x1="3.762" y1="3.499" x2="25.557" y2="5.305" gradientUnits="userSpaceOnUse">
            <stop stop-color="#F08D0C"/>
            <stop offset="1" stop-color="#F0540C"/>
        </linearGradient>
        <linearGradient id="67hcl61utd" x1="11.122" y1="10.5" x2="11.732" y2="10.506" gradientUnits="userSpaceOnUse">
            <stop stop-color="#F08D0C"/>
            <stop offset="1" stop-color="#F0540C"/>
        </linearGradient>
        <linearGradient id="4dz6zpm85e" x1="18.077" y1="10.5" x2="17.467" y2="10.506" gradientUnits="userSpaceOnUse">
            <stop stop-color="#F08D0C"/>
            <stop offset="1" stop-color="#F0540C"/>
        </linearGradient>
    </defs>
</svg>
