<svg width="28" height="28" viewBox="0 0 28 28" fill="none" xmlns="http://www.w3.org/2000/svg">
    <path fill-rule="evenodd" clip-rule="evenodd" d="M14 3.208a7.875 7.875 0 0 0-5.251 13.744l.005.005c.65.581 1.143 1.023 1.495 1.346.332.305.596.553.733.724l.015.018c.259.319.483.596.632.928.148.332.205.685.27 1.09l.004.023c.033.208.046.462.052.789h4.09c.005-.327.019-.581.052-.789l.004-.023c.065-.405.122-.758.27-1.09.149-.332.373-.61.632-.928l.015-.018c.137-.17.4-.42.732-.724.353-.323.847-.765 1.496-1.346l.005-.005A7.875 7.875 0 0 0 14 3.208zm2.034 20.417h-4.068c.004.122.01.228.018.323.024.263.064.358.092.406a.875.875 0 0 0 .32.32c.047.028.143.068.405.092.275.025.638.026 1.199.026s.924-.001 1.198-.026c.263-.024.358-.064.406-.092a.875.875 0 0 0 .32-.32c.028-.048.068-.143.092-.406.009-.095.014-.201.018-.323zM4.375 11.083a9.625 9.625 0 1 1 16.044 7.173c-.656.587-1.142 1.022-1.486 1.337a19.059 19.059 0 0 0-.514.49 1.284 1.284 0 0 0-.031.033l-.01.012c-.304.375-.37.471-.41.56-.038.087-.066.2-.143.676-.03.188-.033.51-.033 1.386v.038c0 .513 0 .955-.033 1.318-.035.384-.112.765-.319 1.123-.23.4-.562.73-.96.96-.36.208-.74.285-1.124.32-.363.033-.805.033-1.318.033h-.076c-.513 0-.955 0-1.318-.033-.385-.035-.765-.112-1.123-.32a2.626 2.626 0 0 1-.961-.96c-.207-.358-.284-.739-.319-1.123-.033-.363-.033-.805-.033-1.319v-.037c0-.876-.003-1.198-.033-1.386-.077-.476-.105-.59-.144-.677-.039-.088-.105-.184-.408-.559l-.011-.012a19.17 19.17 0 0 0-.545-.523c-.344-.315-.83-.75-1.485-1.337a9.603 9.603 0 0 1-3.207-7.173z" fill="url(#ucm6q8nlta)"/>
    <path fill-rule="evenodd" clip-rule="evenodd" d="M15.425 9.205c.393.28.484.827.204 1.22l-1.512 2.117h1.8a.875.875 0 0 1 .711 1.383l-2.5 3.5a.875.875 0 0 1-1.424-1.017l1.512-2.116h-1.8a.875.875 0 0 1-.712-1.384l2.5-3.5a.875.875 0 0 1 1.221-.203z" fill="url(#9evwixxa4b)"/>
    <defs>
        <linearGradient id="ucm6q8nlta" x1="5.617" y1="1.458" x2="24.641" y2="2.254" gradientUnits="userSpaceOnUse">
            <stop stop-color="#F08D0C"/>
            <stop offset="1" stop-color="#F0540C"/>
        </linearGradient>
        <linearGradient id="9evwixxa4b" x1="5.617" y1="1.458" x2="24.641" y2="2.254" gradientUnits="userSpaceOnUse">
            <stop stop-color="#F08D0C"/>
            <stop offset="1" stop-color="#F0540C"/>
        </linearGradient>
    </defs>
</svg>
