<svg width="28" height="28" viewBox="0 0 28 28" fill="none" xmlns="http://www.w3.org/2000/svg">
    <path fill-rule="evenodd" clip-rule="evenodd" d="M10.435 1.458h1.294c1.596 0 2.882 0 3.893.136 1.05.141 1.935.443 2.637 1.146.702.702 1.004 1.586 1.145 2.636.136 1.012.136 2.298.136 3.893v9.69h.959a2.542 2.542 0 0 1 2.541 2.54v.084a.875.875 0 1 0 1.75 0v-4.62l-1.705-.567a2.625 2.625 0 0 1-1.795-2.49v-2.823a2.625 2.625 0 0 1 2.625-2.625h.866a2.625 2.625 0 0 0-.863-1.73 7.012 7.012 0 0 0-.277-.227L22.202 5.35a.875.875 0 0 1 1.093-1.367l1.458 1.166c.142.114.241.193.333.275a4.375 4.375 0 0 1 1.448 3.013c.006.123.006.249.006.432v12.714a2.625 2.625 0 0 1-5.25 0V21.5a.792.792 0 0 0-.791-.792h-.959v4.084h.292a.875.875 0 1 1 0 1.75h-17.5a.875.875 0 0 1 0-1.75h.292V9.269c0-1.595 0-2.881.136-3.893.14-1.05.443-1.934 1.145-2.636.702-.703 1.587-1.005 2.637-1.146 1.011-.136 2.297-.136 3.893-.136zM4.374 24.792H17.79V9.333c0-1.674-.002-2.842-.12-3.724-.115-.856-.326-1.309-.649-1.632-.322-.323-.776-.533-1.632-.648-.881-.119-2.049-.12-3.724-.12H10.5c-1.675 0-2.843.001-3.724.12-.856.115-1.31.325-1.632.648-.323.323-.534.776-.649 1.632-.118.882-.12 2.05-.12 3.724v15.459zm20.416-9.673v-4.91h-.875a.875.875 0 0 0-.875.874v2.822c0 .377.241.711.599.83l1.151.384zm-13.258-4.203a.875.875 0 0 1 .3 1.2l-.955 1.592h1.955a.875.875 0 0 1 .75 1.325l-1.75 2.917a.875.875 0 1 1-1.5-.9l.955-1.592H9.332a.875.875 0 0 1-.75-1.325l1.75-2.917a.875.875 0 0 1 1.2-.3z" fill="url(#61kgyhpy9a)"/>
    <defs>
        <linearGradient id="61kgyhpy9a" x1="3.075" y1="1.458" x2="27.834" y2="2.808" gradientUnits="userSpaceOnUse">
            <stop stop-color="#F08D0C"/>
            <stop offset="1" stop-color="#F0540C"/>
        </linearGradient>
    </defs>
</svg>
