<svg width="25" height="29" viewBox="0 0 25 29" fill="none" xmlns="http://www.w3.org/2000/svg">
<g clip-path="url(#clip0_7783_2224)">
<path d="M22.3381 22.8491C26.9375 17.3061 24.8886 7.73277 14.748 3.84214C10.5097 2.21598 5.33583 2.1724 1.95808 3.15018C1.64918 3.23954 1.40784 3.48105 1.31849 3.78995C0.324955 7.22209 0.404423 12.3954 2.01026 16.5828C6.21895 27.5571 16.0098 28.328 21.0132 24.1744L22.3703 25.5319C22.7362 25.898 23.3294 25.898 23.6955 25.5319C24.0613 25.1659 24.0613 24.5726 23.6955 24.2066L22.3381 22.8491ZM21.0056 21.5162L18.8878 19.3979V15.0354C18.8878 14.5179 18.4684 14.0983 17.9509 14.0983C17.4334 14.0983 17.0139 14.5178 17.0139 15.0354V17.5238L14.4686 14.9779V10.6152C14.4686 10.0978 14.0491 9.67808 13.5316 9.67808C13.0142 9.67808 12.5947 10.0978 12.5947 10.6152V13.1036L9.77504 10.2832C9.40901 9.91722 8.81575 9.91722 8.44991 10.2832C8.08406 10.6493 8.08406 11.2425 8.44991 11.6086L11.2697 14.4289H8.78188C8.26442 14.4289 7.84492 14.8484 7.84492 15.3661C7.84492 15.8837 8.26442 16.3032 8.78188 16.3032H13.1436L15.6888 18.8491H13.2011C12.6837 18.8491 12.2642 19.2686 12.2642 19.7863C12.2642 20.3037 12.6837 20.7234 13.2011 20.7234H17.5627L19.6805 22.8417C14.7205 26.7692 6.98433 24.261 3.77393 15.9484C2.40632 12.4067 2.24518 8.28538 2.99482 4.8256C6.39052 4.08549 10.5214 4.22794 14.0769 5.59208C22.341 8.76292 24.9719 16.5052 21.0056 21.5162Z" fill="url(#paint0_linear_7783_2224)"/>
</g>
<defs>
<linearGradient id="paint0_linear_7783_2224" x1="2.21636" y1="2.5" x2="25.9057" y2="3.79119" gradientUnits="userSpaceOnUse">
<stop stop-color="#F08D0C"/>
<stop offset="1" stop-color="#F0540C"/>
</linearGradient>
<clipPath id="clip0_7783_2224">
<rect width="24" height="28" fill="white" transform="translate(0.667969 0.5)"/>
</clipPath>
</defs>
</svg>
