<svg width="28" height="29" viewBox="0 0 28 29" fill="none" xmlns="http://www.w3.org/2000/svg">
<path d="M22.2159 1.78645H5.78109C3.32194 1.78645 1.32844 3.77995 1.32844 6.23904V22.7615C1.32844 25.2206 3.32194 27.2141 5.78103 27.2141H22.2158C24.6749 27.2141 26.6684 25.2206 26.6684 22.7615V6.23904C26.6685 3.77995 24.675 1.78645 22.2159 1.78645ZM25.3671 22.7615C25.3671 24.5382 23.9268 25.9785 22.1502 25.9785H5.71535C3.93868 25.9785 2.49839 24.5382 2.49839 22.7615V6.23904C2.49839 4.46238 3.93868 3.02208 5.71535 3.02208H22.1502C23.9268 3.02208 25.3671 4.46238 25.3671 6.23904V22.7615Z" fill="url(#paint0_linear_7783_2228)" stroke="url(#paint1_linear_7783_2228)" stroke-width="0.14"/>
<path d="M10.6914 22.472H10.6924L10.7024 22.4721C10.9966 22.472 11.235 22.2336 11.2349 21.9394V17.239C11.2349 16.8978 11.5116 16.6212 11.8528 16.6212H12.1154C12.7764 16.6159 13.3158 16.0906 13.3386 15.43V14.0755C13.3361 14.0446 13.3361 14.0136 13.3386 13.9827C13.3088 12.4488 12.364 11.0814 10.9396 10.5111C10.8484 10.4754 10.767 10.4187 10.7021 10.3454L10.702 10.3454C10.4757 10.09 10.4993 9.6996 10.7546 9.47324L10.756 9.47197L10.756 9.47199C11.0129 9.25647 11.1637 8.94003 11.1692 8.60472V7.64141C11.1634 6.99439 10.6373 6.47296 9.9902 6.47301H9.02635C8.38345 6.4788 7.86372 6.99858 7.85794 7.64143V8.60456C7.86487 8.93971 8.01543 9.25568 8.27139 9.47218L8.27265 9.47324L8.27263 9.47326C8.34594 9.53828 8.40276 9.61977 8.43839 9.71111C8.43839 9.71111 8.43839 9.71112 8.43839 9.71112L10.6914 22.472ZM10.6914 22.472H8.31385M10.6914 22.472H8.31385M8.31385 22.472C8.01971 22.472 7.78126 22.2335 7.78126 21.9394M8.31385 22.472L7.78126 21.9394M7.78126 21.9394V17.2938M7.78126 21.9394V17.2938M7.78126 17.2938C7.78126 16.9526 7.50463 16.676 7.16342 16.676M7.78126 17.2938L7.16342 16.676M7.16342 16.676H6.9114M7.16342 16.676H6.9114M6.9114 16.676C6.22996 16.676 5.67755 16.1236 5.67755 15.4422M6.9114 16.676L5.67755 15.4422M5.67755 15.4422V14.086M5.67755 15.4422V14.086M5.67755 14.086C5.67964 14.0554 5.67966 14.0247 5.6776 13.9941C5.7076 12.4543 6.65692 11.082 8.08755 10.5111L5.67755 14.086ZM14.5631 13.8482C14.4898 12.1495 13.5677 10.603 12.1118 9.73033C12.2906 9.40226 12.3876 9.03551 12.3939 8.66126L12.3939 8.66126V8.66007L12.3939 7.64112L12.3939 7.64079C12.3877 6.316 11.3153 5.24356 9.99048 5.23737H9.99015L9.02599 5.23737L9.02567 5.23737C7.70088 5.24356 6.62844 6.316 6.62225 7.64079V7.64112V8.60527H6.62224L6.62226 8.60655C6.62909 8.98075 6.72602 9.3474 6.90443 9.67559C5.43402 10.5603 4.50994 12.1306 4.45293 13.8486C4.44844 13.8915 4.4484 13.9348 4.45281 13.9777L4.4528 15.4312L4.45281 15.4319C4.46502 16.6436 5.35378 17.6641 6.54552 17.8477V21.9613C6.54552 22.9379 7.33717 23.7296 8.3138 23.7296H10.6804C11.6586 23.7296 12.4534 22.94 12.4596 21.9618V21.9613V17.848C13.6641 17.668 14.5615 16.6334 14.5633 15.4094V15.4093V13.9777C14.5678 13.9347 14.5677 13.8913 14.5631 13.8482Z" fill="url(#paint2_linear_7783_2228)" stroke="url(#paint3_linear_7783_2228)" stroke-width="0.14"/>
<path d="M18.1911 13.2332V13.2437L18.1215 13.2441C17.9919 13.2448 17.8654 13.2048 17.7598 13.1296L17.8004 13.0726L17.7598 13.1296C17.4819 12.9317 17.417 12.5461 17.6148 12.2681C17.6148 12.2681 17.6149 12.268 17.6149 12.268L19.8825 9.04728C19.8826 9.04725 19.8826 9.04721 19.8826 9.04717C19.9242 8.98762 19.9759 8.93587 20.0355 8.8943C20.0355 8.8943 20.0355 8.8943 20.0355 8.89429L20.0756 8.9517C20.3237 8.77852 20.6652 8.83923 20.8384 9.08734L18.1911 13.2332ZM18.1911 13.2332H22.657M18.1911 13.2332L20.8956 9.0471C20.8957 9.04716 20.8957 9.04722 20.8958 9.04727L23.1634 12.257C23.1634 12.2571 23.1635 12.2571 23.1635 12.2572C23.2385 12.3627 23.2786 12.4892 23.2779 12.6187L23.2779 12.6187C23.276 12.9598 22.9981 13.2349 22.657 13.2332M22.657 13.2332C22.6569 13.2332 22.6568 13.2332 22.6567 13.2332L22.6571 13.1632M22.657 13.2332H22.6571V13.1632M22.6571 13.1632C22.9597 13.1648 23.2062 12.9209 23.2079 12.6183M22.6571 13.1632L23.2079 12.6183M23.2079 12.6183C23.2085 12.5034 23.173 12.3912 23.1064 12.2976L23.2079 12.6183ZM21.5003 11.9975H19.3087L20.3899 10.478L21.5003 11.9975Z" fill="url(#paint4_linear_7783_2228)" stroke="url(#paint5_linear_7783_2228)" stroke-width="0.14"/>
<path d="M17.5003 16.3704L17.5003 16.3704C17.5022 16.0293 17.7801 15.7542 18.1213 15.7559M17.5003 16.3704L22.6571 15.8259M17.5003 16.3704C17.4996 16.4999 17.5397 16.6264 17.6147 16.7319C17.6148 16.732 17.6148 16.732 17.6148 16.7321L19.8826 19.953L19.8828 19.9533C19.9994 20.1169 20.1882 20.2138 20.3891 20.2128M17.5003 16.3704L22.6571 15.8259M18.1213 15.7559C18.1213 15.7559 18.1214 15.7559 18.1215 15.7559L18.1211 15.8259V15.7559H18.1213ZM18.1213 15.7559H22.6569M22.6569 15.7559C22.6569 15.7559 22.6568 15.7559 22.6567 15.7559L22.6571 15.8259M22.6569 15.7559H22.6571V15.8259M22.6569 15.7559C22.7864 15.7553 22.9128 15.7953 23.0184 15.8704C23.2963 16.0683 23.3612 16.454 23.1635 16.7319C23.1634 16.732 23.1634 16.732 23.1634 16.7321L20.8956 19.953L20.8954 19.9533C20.7788 20.1169 20.59 20.2138 20.3891 20.2128M20.3891 20.2128C20.389 20.2128 20.3888 20.2128 20.3887 20.2128L20.3891 20.1428L20.3895 20.2128C20.3893 20.2128 20.3892 20.2128 20.3891 20.2128ZM21.5036 17.0026L20.4326 18.5311L19.3519 17.0026H21.5036Z" fill="url(#paint6_linear_7783_2228)" stroke="url(#paint7_linear_7783_2228)" stroke-width="0.14"/>
<defs>
<linearGradient id="paint0_linear_7783_2228" x1="3.02424" y1="1.85644" x2="27.8986" y2="3.20752" gradientUnits="userSpaceOnUse">
<stop stop-color="#F08D0C"/>
<stop offset="1" stop-color="#F0540C"/>
</linearGradient>
<linearGradient id="paint1_linear_7783_2228" x1="3.02424" y1="1.85644" x2="27.8986" y2="3.20752" gradientUnits="userSpaceOnUse">
<stop stop-color="#F08D0C"/>
<stop offset="1" stop-color="#F0540C"/>
</linearGradient>
<linearGradient id="paint2_linear_7783_2228" x1="5.16321" y1="5.30737" x2="15.0317" y2="5.59979" gradientUnits="userSpaceOnUse">
<stop stop-color="#F08D0C"/>
<stop offset="1" stop-color="#F0540C"/>
</linearGradient>
<linearGradient id="paint3_linear_7783_2228" x1="5.16321" y1="5.30737" x2="15.0317" y2="5.59979" gradientUnits="userSpaceOnUse">
<stop stop-color="#F08D0C"/>
<stop offset="1" stop-color="#F0540C"/>
</linearGradient>
<linearGradient id="paint4_linear_7783_2228" x1="17.934" y1="8.85303" x2="23.4871" y2="9.24791" gradientUnits="userSpaceOnUse">
<stop stop-color="#F08D0C"/>
<stop offset="1" stop-color="#F0540C"/>
</linearGradient>
<linearGradient id="paint5_linear_7783_2228" x1="17.934" y1="8.85303" x2="23.4871" y2="9.24791" gradientUnits="userSpaceOnUse">
<stop stop-color="#F08D0C"/>
<stop offset="1" stop-color="#F0540C"/>
</linearGradient>
<linearGradient id="paint6_linear_7783_2228" x1="17.934" y1="15.8259" x2="23.4871" y2="16.2212" gradientUnits="userSpaceOnUse">
<stop stop-color="#F08D0C"/>
<stop offset="1" stop-color="#F0540C"/>
</linearGradient>
<linearGradient id="paint7_linear_7783_2228" x1="17.934" y1="15.8259" x2="23.4871" y2="16.2212" gradientUnits="userSpaceOnUse">
<stop stop-color="#F08D0C"/>
<stop offset="1" stop-color="#F0540C"/>
</linearGradient>
</defs>
</svg>
