<svg width="29" height="29" viewBox="0 0 29 29" fill="none" xmlns="http://www.w3.org/2000/svg">
<path fill-rule="evenodd" clip-rule="evenodd" d="M14.3347 3.70825C11.1241 3.70825 8.20969 7.04172 8.20969 11.5833C8.20969 16.1248 11.1241 19.4583 14.3347 19.4583C17.5453 19.4583 20.4597 16.1248 20.4597 11.5833C20.4597 7.04172 17.5453 3.70825 14.3347 3.70825ZM6.48803 10.7686C6.82108 5.99201 10.0547 1.95825 14.3347 1.95825C18.6147 1.95825 21.8483 5.99201 22.1813 10.7686C22.2805 10.7297 22.3884 10.7083 22.5014 10.7083C22.9846 10.7083 23.3764 11.1 23.3764 11.5833V22.6666C23.3764 23.2346 23.5606 23.7872 23.9014 24.2416L24.9514 25.6416C25.2413 26.0282 25.163 26.5766 24.7764 26.8666C24.3898 27.1565 23.8413 27.0782 23.5514 26.6916L22.5014 25.2916C22.3624 25.1063 22.239 24.9112 22.132 24.7083H6.53742C6.43036 24.9112 6.307 25.1063 6.16802 25.2916L5.11802 26.6916C4.82807 27.0782 4.27962 27.1565 3.89302 26.8666C3.50642 26.5766 3.42807 26.0282 3.71802 25.6416L4.76802 24.2416C5.1088 23.7872 5.29302 23.2346 5.29302 22.6666V11.5833C5.29302 11.1 5.68477 10.7083 6.16802 10.7083C6.28097 10.7083 6.38891 10.7297 6.48803 10.7686ZM7.04302 15.2148V22.6666C7.04302 22.7641 7.03976 22.8614 7.03329 22.9583H21.6361C21.6296 22.8614 21.6264 22.7641 21.6264 22.6666V15.2148C20.4778 18.6595 17.7368 21.2083 14.3347 21.2083C10.9325 21.2083 8.19156 18.6595 7.04302 15.2148ZM14.7283 6.22213C14.9546 5.79517 15.4843 5.63256 15.9112 5.85892C17.3614 6.62775 18.3216 8.35833 18.6132 10.286C18.6854 10.7638 18.3567 11.2097 17.8788 11.282C17.401 11.3542 16.9551 11.0255 16.8828 10.5477C16.6408 8.94749 15.8833 7.82486 15.0915 7.40506C14.6645 7.1787 14.5019 6.64908 14.7283 6.22213Z" fill="url(#paint0_linear_7783_2243)"/>
<defs>
<linearGradient id="paint0_linear_7783_2243" x1="4.93545" y1="1.95825" x2="26.2559" y2="2.95818" gradientUnits="userSpaceOnUse">
<stop stop-color="#F08D0C"/>
<stop offset="1" stop-color="#F0540C"/>
</linearGradient>
</defs>
</svg>
