<svg width="28" height="28" viewBox="0 0 28 28" fill="none" xmlns="http://www.w3.org/2000/svg">
    <path fill-rule="evenodd" clip-rule="evenodd" d="M13.999 1.458c.483 0 .875.392.875.875V3.5a.875.875 0 0 1-1.75 0V2.333c0-.483.391-.875.875-.875zM5.13 5.132a.875.875 0 0 1 1.238 0l.458.458A.875.875 0 1 1 5.59 6.827L5.13 6.37a.875.875 0 0 1 0-1.237zm17.737 0a.875.875 0 0 1 0 1.237l-.459.459a.875.875 0 0 1-1.237-1.238l.458-.458a.875.875 0 0 1 1.238 0zm-8.868 2.743a6.125 6.125 0 1 0 0 12.25 6.125 6.125 0 0 0 0-12.25zM6.124 14a7.875 7.875 0 1 1 15.75 0 7.875 7.875 0 0 1-15.75 0zm-4.667 0c0-.483.392-.875.875-.875h1.167a.875.875 0 0 1 0 1.75H2.332A.875.875 0 0 1 1.457 14zm22.167 0c0-.483.392-.875.875-.875h1.166a.875.875 0 0 1 0 1.75H24.5a.875.875 0 0 1-.875-.875zm-2.453 7.172a.875.875 0 0 1 1.237 0l.459.459a.875.875 0 1 1-1.238 1.237l-.458-.458a.875.875 0 0 1 0-1.238zm-14.345 0a.875.875 0 0 1 0 1.238l-.458.458a.875.875 0 0 1-1.238-1.237l.459-.459a.875.875 0 0 1 1.237 0zM14 23.625c.483 0 .875.392.875.875v1.167a.875.875 0 0 1-1.75 0V24.5c0-.483.391-.875.875-.875z" fill="url(#ksz613baoa)"/>
    <defs>
        <linearGradient id="ksz613baoa" x1="3.075" y1="1.458" x2="27.834" y2="2.808" gradientUnits="userSpaceOnUse">
            <stop stop-color="#F08D0C"/>
            <stop offset="1" stop-color="#F0540C"/>
        </linearGradient>
    </defs>
</svg>
