<svg width="120" height="26" viewBox="0 0 120 26" fill="none" xmlns="http://www.w3.org/2000/svg">
<path d="M21.3349 5.9978C19.1666 17.2891 10.6518 25 5.67519 25H1V1H25V25H13.5606M23.2918 9.62054C22.71 10.6413 21.1763 12.2649 19.4046 12.5822M22.0489 15.6496C20.3037 16.866 18.368 17.4531 16.39 17.3473M14.3539 12.0533C14.465 13.2221 15.0361 15.9141 16.4535 17.2944M17.8709 8.1926C17.7704 9.53592 18.1617 11.6302 19.1401 12.5928M21.9114 1.15337C23.6408 3.33231 26.0595 10.0781 24.4764 15.0044C23.5874 18.3231 21.1498 21.5729 16.4429 21.5729C12.2543 21.3825 9.85853 18.4685 9.19744 16.7338C6.5584 9.81622 15.0943 5.9978 18.9022 3.77655C20.97 2.57074 21.5941 1.63993 21.8744 1.15866C21.885 1.14808 21.9008 1.14279 21.9114 1.15337Z" stroke="url(#paint0_linear_7783_2446)" stroke-width="0.581754" stroke-linecap="round"/>
<path d="M41.338 3.49535V10.4489H40.7286V4.29853L37.9534 8.71133L35.1782 4.29853V10.4458H34.5656V3.49535C34.5656 3.39847 34.6 3.31409 34.6719 3.24221C34.7438 3.17033 34.8313 3.13595 34.9344 3.13595C35.05 3.13595 35.1469 3.18908 35.2251 3.29221L37.9502 7.60813L40.6754 3.29221C40.7536 3.18908 40.8536 3.13595 40.9755 3.13595C41.0723 3.13595 41.1567 3.17033 41.2286 3.24221C41.3005 3.31409 41.338 3.39534 41.338 3.49535Z" fill="url(#paint1_linear_7783_2446)"/>
<path d="M50.7823 4.94857C50.451 4.38604 50.0073 3.94226 49.4447 3.62036C48.8884 3.29534 48.2884 3.13595 47.6227 3.13595C46.957 3.13595 46.3414 3.30159 45.7788 3.62974C45.2163 3.95163 44.7694 4.39541 44.4413 4.95795C44.1162 5.51424 43.9568 6.13928 43.9568 6.8112C43.9568 7.48312 44.1194 8.10816 44.4413 8.6832C44.7725 9.25199 45.2163 9.70514 45.7788 10.0427C46.3476 10.3802 46.9633 10.5458 47.6227 10.5458C48.2884 10.5458 48.9009 10.3802 49.4541 10.052C50.0166 9.71452 50.4604 9.26449 50.7823 8.69258C51.1136 8.11754 51.2761 7.49562 51.2761 6.8112C51.2761 6.12678 51.1136 5.50486 50.7823 4.94857ZM50.2416 8.39256C49.9698 8.87071 49.6041 9.25199 49.1447 9.53638C48.6853 9.81453 48.179 9.95204 47.6227 9.95204C47.0664 9.95204 46.557 9.81453 46.0914 9.53638C45.6257 9.25199 45.2569 8.87071 44.985 8.39256C44.7131 7.9144 44.5788 7.37999 44.5788 6.8112C44.5788 6.24241 44.7131 5.72363 44.985 5.25797C45.2569 4.79231 45.6226 4.42354 46.082 4.15165C46.5476 3.8735 47.0633 3.73599 47.6258 3.73599C48.1884 3.73599 48.6978 3.8735 49.1572 4.15165C49.6229 4.42354 49.9885 4.79231 50.2541 5.25797C50.526 5.72363 50.6604 6.23304 50.6604 6.8112C50.6604 7.38936 50.5167 7.9144 50.2416 8.39256Z" fill="url(#paint2_linear_7783_2446)"/>
<path d="M55.2607 10.4489C54.7231 10.4489 54.2356 10.302 53.795 10.0114C53.3543 9.71448 53.0324 9.33008 52.8261 8.85817L53.3699 8.59566C53.5387 8.95818 53.7918 9.25508 54.1262 9.48634C54.47 9.71136 54.8481 9.82699 55.2607 9.82699C55.6357 9.82699 55.9826 9.73636 56.2982 9.5551C56.6139 9.36758 56.8639 9.11132 57.0452 8.78942C57.2264 8.46752 57.3171 8.10812 57.3171 7.71435V3.2703H57.9265L57.9359 7.71122C57.9359 8.22063 57.8171 8.68316 57.5765 9.09882C57.3358 9.51134 57.0139 9.84262 56.6076 10.0864C56.2014 10.327 55.7513 10.4458 55.2607 10.4489Z" fill="url(#paint3_linear_7783_2446)"/>
<path d="M65.521 8.00189L65.2522 7.36747L63.574 3.37658C63.5427 3.29845 63.4927 3.2422 63.4271 3.20157C63.3677 3.15469 63.3052 3.13281 63.2333 3.13281C63.1614 3.13281 63.0927 3.15469 63.0302 3.20157C62.9708 3.23907 62.9271 3.29845 62.8958 3.37658L60.9175 8.00814L60.355 9.33011L59.8768 10.4489H60.5644L60.83 9.82701L61.6113 8.00814L63.724 8.00502L63.4552 7.36747H61.8895L63.2333 4.23601L63.6459 5.2142H63.649L64.2428 6.6268L64.8241 8.00502H64.8272L65.8616 10.4489H66.5492L65.521 8.00189Z" fill="url(#paint4_linear_7783_2446)"/>
<path d="M118.178 20.0595L117.909 19.4251L116.228 15.4342C116.197 15.3561 116.147 15.2998 116.084 15.2592C116.025 15.2123 115.962 15.1904 115.891 15.1904C115.819 15.1904 115.753 15.2123 115.687 15.2592C115.628 15.2967 115.584 15.3561 115.553 15.4342L113.578 20.0657L113.015 21.3877L112.537 22.5065H113.225L113.49 21.8846L114.272 20.0657L116.384 20.0626L116.116 19.4251H114.547L115.891 16.2936L116.303 17.2718H116.306L116.9 18.6844L117.481 20.0626H117.484L118.519 22.5065H119.206L118.178 20.0595Z" fill="url(#paint5_linear_7783_2446)"/>
<path d="M83.5667 15.3279V22.2346C83.5667 22.3377 83.5292 22.4284 83.451 22.5065C83.3792 22.5784 83.2885 22.6128 83.1792 22.6128C83.1198 22.6128 83.0666 22.5971 83.0135 22.5627C82.9635 22.5377 82.9166 22.5002 82.8791 22.4565L78.1569 16.2748V22.5034H77.5444V15.5717C77.5444 15.4623 77.5788 15.3716 77.6507 15.2998C77.7288 15.2279 77.8194 15.1935 77.9225 15.1935C77.9882 15.1935 78.0444 15.206 78.0976 15.231C78.1507 15.2498 78.1944 15.2873 78.2319 15.3373L82.9448 21.5564V15.3279H83.5667Z" fill="url(#paint6_linear_7783_2446)"/>
<path d="M74.3721 20.0595L74.1034 19.4251L72.422 15.4342C72.3907 15.356 72.3407 15.2998 72.2782 15.2592C72.2189 15.2123 72.1564 15.1904 72.0845 15.1904C72.0126 15.1904 71.9438 15.2123 71.8813 15.2592C71.822 15.2967 71.7782 15.356 71.747 15.4342L69.7687 20.0657L69.2062 21.3877L68.728 22.5065H69.4155L69.6812 21.8846L70.4625 20.0657L72.5751 20.0626L72.3064 19.4251H70.7406L72.0845 16.2936L72.497 17.2718H72.5001L73.0939 18.6844L73.6752 20.0626H73.6783L74.7128 22.5065H75.4003L74.3721 20.0595Z" fill="url(#paint7_linear_7783_2446)"/>
<path d="M41.1262 17.0062C40.795 16.4436 40.3512 15.9999 39.7886 15.678C39.2324 15.3529 38.6323 15.1936 37.9667 15.1936C37.301 15.1936 36.6853 15.3592 36.1228 15.6873C35.5602 16.0092 35.1133 16.453 34.7852 17.0156C34.4602 17.5718 34.3008 18.1969 34.3008 18.8688C34.3008 19.5407 34.4633 20.1658 34.7852 20.7408C35.1165 21.3096 35.5602 21.7627 36.1228 22.1003C36.6916 22.4378 37.3072 22.6034 37.9667 22.6034C38.6323 22.6034 39.2449 22.4378 39.798 22.1096C40.3606 21.7721 40.8043 21.3221 41.1262 20.7502C41.4575 20.1751 41.62 19.5532 41.62 18.8688C41.62 18.1844 41.4575 17.5625 41.1262 17.0062ZM40.5856 20.4502C40.3137 20.9283 39.948 21.3096 39.4886 21.594C39.0292 21.8721 38.5229 22.0096 37.9667 22.0096C37.4104 22.0096 36.901 21.8721 36.4353 21.594C35.9696 21.3096 35.6009 20.9283 35.329 20.4502C35.0571 19.972 34.9227 19.4376 34.9227 18.8688C34.9227 18.3 35.0571 17.7812 35.329 17.3156C35.6009 16.8499 35.9665 16.4811 36.4259 16.2092C36.8916 15.9311 37.4072 15.7936 37.9698 15.7936C38.5323 15.7936 39.0417 15.9311 39.5011 16.2092C39.9668 16.4811 40.3324 16.8499 40.5981 17.3156C40.87 17.7812 41.0044 18.2906 41.0044 18.8688C41.0044 19.447 40.8606 19.972 40.5856 20.4502Z" fill="url(#paint8_linear_7783_2446)"/>
<path d="M49.1299 21.894V22.5034H44.2233C44.1202 22.5034 44.0327 22.469 43.9608 22.3971C43.8889 22.3252 43.8546 22.2377 43.8546 22.1346V15.3279H44.4671V21.894H49.1299Z" fill="url(#paint9_linear_7783_2446)"/>
<path d="M54.2492 22.5909C53.6991 22.5722 53.1835 22.5003 52.6959 22.3784C52.2115 22.2565 51.7396 22.0721 51.2802 21.8252L51.5615 21.2627C51.974 21.4877 52.4022 21.6596 52.8428 21.7784C53.2897 21.894 53.7585 21.9565 54.2492 21.9628C54.7867 21.9815 55.2586 21.9377 55.6649 21.8252C56.0712 21.7159 56.3868 21.5533 56.6056 21.3408C56.8243 21.1283 56.9431 20.8814 56.9556 20.6033C56.9681 20.247 56.8618 19.9689 56.6368 19.7689C56.4181 19.5688 56.1368 19.422 55.793 19.3313C55.4493 19.2344 55.0055 19.1469 54.4554 19.0688C53.7773 18.9782 53.246 18.8875 52.8647 18.7969C52.4897 18.7063 52.1678 18.5313 51.8959 18.2719C51.624 18.0125 51.4959 17.6406 51.5084 17.1562C51.5209 16.7499 51.6646 16.3967 51.9334 16.0999C52.2053 15.7967 52.5772 15.5686 53.0491 15.4217C53.5272 15.2717 54.0742 15.206 54.6867 15.2185C55.1524 15.231 55.6149 15.2935 56.0743 15.4029C56.5337 15.5061 56.9619 15.6529 57.3556 15.8405L57.1119 16.3936C56.3618 16.0436 55.5493 15.8561 54.6773 15.8311C54.1679 15.8186 53.7241 15.8592 53.3491 15.9561C52.9741 16.053 52.6803 16.2061 52.4678 16.4124C52.2615 16.6186 52.1522 16.8749 52.1365 17.1781C52.124 17.4999 52.224 17.75 52.4366 17.925C52.6491 18.0937 52.8991 18.2094 53.1835 18.275C53.4679 18.3344 53.9085 18.4 54.5023 18.4781C55.143 18.5625 55.6774 18.6657 56.1024 18.7875C56.5368 18.9032 56.8962 19.1063 57.1806 19.4001C57.4713 19.6907 57.6088 20.0939 57.5869 20.6127C57.5806 21.0189 57.4338 21.3752 57.1494 21.6784C56.865 21.9815 56.4712 22.2159 55.9649 22.3753C55.4618 22.5347 54.8898 22.6065 54.2492 22.5909Z" fill="url(#paint10_linear_7783_2446)"/>
<path d="M60.718 22.5065C60.6149 22.5065 60.5274 22.4721 60.4555 22.4002C60.3836 22.3284 60.3493 22.2409 60.3493 22.1377C60.3493 22.0533 60.3743 21.9783 60.4274 21.9158L65.4808 15.9404H60.4555V15.3279H66.0434C66.1403 15.3279 66.2246 15.3623 66.2965 15.4342C66.3684 15.506 66.4028 15.5904 66.4028 15.6873C66.4028 15.7717 66.3778 15.8498 66.3247 15.9186L61.2806 21.894H66.3153V22.5065H60.718Z" fill="url(#paint11_linear_7783_2446)"/>
<path d="M88.1387 18.8875L91.9983 15.3279H91.1733L87.5449 18.6437C87.4793 18.7031 87.448 18.7844 87.448 18.8875C87.448 18.9844 87.4793 19.0656 87.5449 19.1313L91.2389 22.5065H92.0827L88.1387 18.8875Z" fill="url(#paint12_linear_7783_2446)"/>
<path d="M87.2761 15.3279H86.6636V22.5065H87.2761V15.3279Z" fill="url(#paint13_linear_7783_2446)"/>
<path d="M100.268 17.0061C99.9364 16.4436 99.4926 15.9998 98.9301 15.6779C98.3738 15.3529 97.7738 15.1935 97.105 15.1935C96.4393 15.1935 95.8236 15.3591 95.2611 15.6873C94.6986 16.0092 94.2517 16.453 93.9235 17.0155C93.6016 17.5718 93.4391 18.1968 93.4391 18.8688C93.4391 19.5407 93.6016 20.1657 93.9235 20.7408C94.2548 21.3095 94.6986 21.7627 95.2611 22.1002C95.8299 22.4377 96.4456 22.6034 97.105 22.6034C97.7707 22.6034 98.3832 22.4377 98.9395 22.1096C99.502 21.7721 99.9458 21.322 100.268 20.7501C100.599 20.1751 100.761 19.5532 100.761 18.8688C100.761 18.1843 100.596 17.5624 100.268 17.0061ZM99.7239 20.4501C99.452 20.9283 99.0864 21.3095 98.627 21.5939C98.1676 21.8721 97.6613 22.0096 97.105 22.0096C96.5487 22.0096 96.0393 21.8721 95.5736 21.5939C95.108 21.3095 94.7392 20.9283 94.4673 20.4501C94.1954 19.972 94.061 19.4375 94.061 18.8688C94.061 18.3 94.1954 17.7812 94.4673 17.3155C94.7392 16.8499 95.1049 16.4811 95.5643 16.2092C96.0299 15.9311 96.5424 15.7935 97.105 15.7935C97.6675 15.7935 98.18 15.9311 98.6363 16.2092C99.102 16.4811 99.4676 16.8499 99.7333 17.3155C100.005 17.7812 100.14 18.2906 100.14 18.8688C100.14 19.4469 100.002 19.972 99.7239 20.4501Z" fill="url(#paint14_linear_7783_2446)"/>
<path d="M110.34 15.3279L109.153 21.5221L106.79 16.9468L104.437 21.5221L103.243 15.3279H102.602L103.971 22.3409C103.984 22.419 104.024 22.4847 104.087 22.5347C104.159 22.5878 104.24 22.6128 104.331 22.6128C104.396 22.6128 104.456 22.5972 104.515 22.5628C104.574 22.5315 104.615 22.4847 104.64 22.4284L106.796 18.2312L108.947 22.4284C108.978 22.4878 109.022 22.5315 109.072 22.5628C109.131 22.594 109.193 22.6128 109.265 22.6128C109.35 22.6128 109.428 22.5878 109.497 22.5347C109.569 22.4815 109.609 22.419 109.622 22.3409L110.99 15.3279H110.34Z" fill="url(#paint15_linear_7783_2446)"/>
<defs>
<linearGradient id="paint0_linear_7783_2446" x1="25.0127" y1="20.4111" x2="1" y2="8.56347" gradientUnits="userSpaceOnUse">
<stop stop-color="#905E26"/>
<stop offset="0.5" stop-color="#F5EC9B"/>
<stop offset="1" stop-color="#905E26"/>
</linearGradient>
<linearGradient id="paint1_linear_7783_2446" x1="34.4409" y1="13.3387" x2="119.349" y2="13.3387" gradientUnits="userSpaceOnUse">
<stop stop-color="#905E26"/>
<stop offset="0.5" stop-color="#F5EC9B"/>
<stop offset="1" stop-color="#905E26"/>
</linearGradient>
<linearGradient id="paint2_linear_7783_2446" x1="34.4409" y1="13.3387" x2="119.349" y2="13.3387" gradientUnits="userSpaceOnUse">
<stop stop-color="#905E26"/>
<stop offset="0.5" stop-color="#F5EC9B"/>
<stop offset="1" stop-color="#905E26"/>
</linearGradient>
<linearGradient id="paint3_linear_7783_2446" x1="34.4409" y1="13.3387" x2="119.349" y2="13.3387" gradientUnits="userSpaceOnUse">
<stop stop-color="#905E26"/>
<stop offset="0.5" stop-color="#F5EC9B"/>
<stop offset="1" stop-color="#905E26"/>
</linearGradient>
<linearGradient id="paint4_linear_7783_2446" x1="34.4409" y1="13.3387" x2="119.349" y2="13.3387" gradientUnits="userSpaceOnUse">
<stop stop-color="#905E26"/>
<stop offset="0.5" stop-color="#F5EC9B"/>
<stop offset="1" stop-color="#905E26"/>
</linearGradient>
<linearGradient id="paint5_linear_7783_2446" x1="34.4409" y1="13.3387" x2="119.349" y2="13.3387" gradientUnits="userSpaceOnUse">
<stop stop-color="#905E26"/>
<stop offset="0.5" stop-color="#F5EC9B"/>
<stop offset="1" stop-color="#905E26"/>
</linearGradient>
<linearGradient id="paint6_linear_7783_2446" x1="34.4409" y1="13.3387" x2="119.349" y2="13.3387" gradientUnits="userSpaceOnUse">
<stop stop-color="#905E26"/>
<stop offset="0.5" stop-color="#F5EC9B"/>
<stop offset="1" stop-color="#905E26"/>
</linearGradient>
<linearGradient id="paint7_linear_7783_2446" x1="34.4409" y1="13.3387" x2="119.349" y2="13.3387" gradientUnits="userSpaceOnUse">
<stop stop-color="#905E26"/>
<stop offset="0.5" stop-color="#F5EC9B"/>
<stop offset="1" stop-color="#905E26"/>
</linearGradient>
<linearGradient id="paint8_linear_7783_2446" x1="34.4409" y1="13.3387" x2="119.349" y2="13.3387" gradientUnits="userSpaceOnUse">
<stop stop-color="#905E26"/>
<stop offset="0.5" stop-color="#F5EC9B"/>
<stop offset="1" stop-color="#905E26"/>
</linearGradient>
<linearGradient id="paint9_linear_7783_2446" x1="34.4409" y1="13.3387" x2="119.349" y2="13.3387" gradientUnits="userSpaceOnUse">
<stop stop-color="#905E26"/>
<stop offset="0.5" stop-color="#F5EC9B"/>
<stop offset="1" stop-color="#905E26"/>
</linearGradient>
<linearGradient id="paint10_linear_7783_2446" x1="34.4409" y1="13.3387" x2="119.349" y2="13.3387" gradientUnits="userSpaceOnUse">
<stop stop-color="#905E26"/>
<stop offset="0.5" stop-color="#F5EC9B"/>
<stop offset="1" stop-color="#905E26"/>
</linearGradient>
<linearGradient id="paint11_linear_7783_2446" x1="34.4409" y1="13.3387" x2="119.349" y2="13.3387" gradientUnits="userSpaceOnUse">
<stop stop-color="#905E26"/>
<stop offset="0.5" stop-color="#F5EC9B"/>
<stop offset="1" stop-color="#905E26"/>
</linearGradient>
<linearGradient id="paint12_linear_7783_2446" x1="34.4409" y1="13.3387" x2="119.349" y2="13.3387" gradientUnits="userSpaceOnUse">
<stop stop-color="#905E26"/>
<stop offset="0.5" stop-color="#F5EC9B"/>
<stop offset="1" stop-color="#905E26"/>
</linearGradient>
<linearGradient id="paint13_linear_7783_2446" x1="34.4409" y1="13.3387" x2="119.349" y2="13.3387" gradientUnits="userSpaceOnUse">
<stop stop-color="#905E26"/>
<stop offset="0.5" stop-color="#F5EC9B"/>
<stop offset="1" stop-color="#905E26"/>
</linearGradient>
<linearGradient id="paint14_linear_7783_2446" x1="34.4409" y1="13.3387" x2="119.349" y2="13.3387" gradientUnits="userSpaceOnUse">
<stop stop-color="#905E26"/>
<stop offset="0.5" stop-color="#F5EC9B"/>
<stop offset="1" stop-color="#905E26"/>
</linearGradient>
<linearGradient id="paint15_linear_7783_2446" x1="34.4409" y1="13.3387" x2="119.349" y2="13.3387" gradientUnits="userSpaceOnUse">
<stop stop-color="#905E26"/>
<stop offset="0.5" stop-color="#F5EC9B"/>
<stop offset="1" stop-color="#905E26"/>
</linearGradient>
</defs>
</svg>
