<svg width="20" height="21" viewBox="0 0 20 21" fill="none" xmlns="http://www.w3.org/2000/svg">
<path d="M8.36336 4.93031L8.9042 5.89941C9.39228 6.77398 9.19635 7.92126 8.42762 8.68999C8.42762 8.69 8.42762 8.69 8.42762 8.69C8.42752 8.69009 7.49526 9.62254 9.18579 11.3131C10.8758 13.003 11.8082 12.0719 11.8089 12.0712C11.8089 12.0712 11.8089 12.0712 11.8089 12.0712C12.5776 11.3025 13.7249 11.1066 14.5994 11.5947L15.5686 12.1355C16.8892 12.8725 17.0451 14.7245 15.8843 15.8853C15.1868 16.5828 14.3324 17.1256 13.3878 17.1614C11.7977 17.2216 9.09726 16.8192 6.38845 14.1104C3.67964 11.4016 3.27721 8.70118 3.33749 7.11107C3.3733 6.1665 3.91603 5.31203 4.61354 4.61452C5.77433 3.45373 7.62634 3.60969 8.36336 4.93031Z" stroke="#F08D0C" stroke-width="1.25" stroke-linecap="round"/>
</svg>
