<svg width="139" height="30" viewBox="0 0 139 30" fill="none" xmlns="http://www.w3.org/2000/svg">
<path d="M24.7241 6.83076C22.1944 20.004 12.2605 29 6.45439 29H1V1H29V29H15.654M27.0071 11.0573C26.3283 12.2481 24.539 14.1424 22.472 14.5126M25.5571 18.0912C23.5209 19.5104 21.2627 20.1952 18.955 20.0718M16.5796 13.8955C16.7091 15.2591 17.3755 18.3997 19.0291 20.0101M20.6827 9.39136C20.5654 10.9586 21.022 13.4019 22.1635 14.5249M25.3967 1.17893C27.4143 3.72102 30.236 11.5912 28.3892 17.3385C27.352 21.2103 24.5082 25.0018 19.0167 25.0018C14.13 24.7796 11.335 21.3799 10.5637 19.3561C7.4848 11.2856 17.4434 6.83076 21.8859 4.23931C24.2984 2.83253 25.0264 1.74658 25.3535 1.1851C25.3658 1.17276 25.3843 1.16659 25.3967 1.17893Z" stroke="url(#paint0_linear_7783_1125)" stroke-width="0.678713" stroke-linecap="round"/>
<path d="M48.0577 3.91039V12.0229H47.3467V4.84743L44.109 9.9957L40.8713 4.84743V12.0193H40.1567V3.91039C40.1567 3.79736 40.1968 3.69892 40.2806 3.61506C40.3645 3.5312 40.4666 3.49109 40.5869 3.49109C40.7218 3.49109 40.8348 3.55307 40.926 3.67339L44.1054 8.70863L47.2847 3.67339C47.3759 3.55307 47.4926 3.49109 47.6348 3.49109C47.7478 3.49109 47.8462 3.5312 47.9301 3.61506C48.014 3.69892 48.0577 3.79371 48.0577 3.91039Z" fill="url(#paint1_linear_7783_1125)"/>
<path d="M59.0761 5.60582C58.6896 4.94952 58.1719 4.43178 57.5156 4.05623C56.8666 3.67704 56.1665 3.49109 55.3899 3.49109C54.6133 3.49109 53.895 3.68433 53.2387 4.06717C52.5824 4.44272 52.061 4.96046 51.6782 5.61675C51.299 6.26576 51.1131 6.99497 51.1131 7.77888C51.1131 8.56279 51.3027 9.292 51.6782 9.96288C52.0647 10.6265 52.5824 11.1551 53.2387 11.5489C53.9023 11.9427 54.6206 12.1359 55.3899 12.1359C56.1665 12.1359 56.8812 11.9427 57.5265 11.5599C58.1828 11.1661 58.7006 10.6411 59.0761 9.97382C59.4626 9.30294 59.6522 8.57737 59.6522 7.77888C59.6522 6.98039 59.4626 6.25482 59.0761 5.60582ZM58.4453 9.6238C58.1281 10.1816 57.7015 10.6265 57.1656 10.9583C56.6296 11.2828 56.0389 11.4432 55.3899 11.4432C54.7409 11.4432 54.1466 11.2828 53.6033 10.9583C53.0601 10.6265 52.6298 10.1816 52.3126 9.6238C51.9954 9.06595 51.8386 8.44246 51.8386 7.77888C51.8386 7.11529 51.9954 6.51004 52.3126 5.96678C52.6298 5.42351 53.0564 4.99327 53.5924 4.67607C54.1357 4.35156 54.7373 4.19114 55.3936 4.19114C56.0499 4.19114 56.6442 4.35156 57.1801 4.67607C57.7234 4.99327 58.15 5.42351 58.4599 5.96678C58.7771 6.51004 58.9339 7.10435 58.9339 7.77888C58.9339 8.4534 58.7662 9.06595 58.4453 9.6238Z" fill="url(#paint2_linear_7783_1125)"/>
<path d="M64.3009 12.0229C63.6737 12.0229 63.105 11.8515 62.5909 11.5124C62.0768 11.166 61.7012 10.7176 61.4606 10.167L62.095 9.86075C62.2919 10.2837 62.5872 10.6301 62.9773 10.8999C63.3784 11.1624 63.8196 11.2973 64.3009 11.2973C64.7384 11.2973 65.1431 11.1916 65.5114 10.9801C65.8796 10.7613 66.1713 10.4623 66.3828 10.0868C66.5942 9.71126 66.7 9.29196 66.7 8.83255V3.64783H67.411L67.4219 8.82891C67.4219 9.42322 67.2834 9.96284 67.0026 10.4478C66.7219 10.929 66.3463 11.3155 65.8723 11.5999C65.3983 11.8807 64.8733 12.0192 64.3009 12.0229Z" fill="url(#paint3_linear_7783_1125)"/>
<path d="M76.2712 9.16802L75.9577 8.42786L73.9997 3.77182C73.9633 3.68067 73.9049 3.61504 73.8284 3.56764C73.7591 3.51295 73.6862 3.48743 73.6023 3.48743C73.5184 3.48743 73.4382 3.51295 73.3653 3.56764C73.296 3.61139 73.245 3.68067 73.2085 3.77182L70.9005 9.17531L70.2443 10.7176L69.6864 12.0229H70.4885L70.7985 11.2973L71.71 9.17531L74.1747 9.17166L73.8612 8.42786H72.0345L73.6023 4.77449L74.0836 5.91572H74.0872L74.78 7.56374L75.4581 9.17166H75.4618L76.6686 12.0229H77.4708L76.2712 9.16802Z" fill="url(#paint4_linear_7783_1125)"/>
<path d="M137.705 23.2352L137.391 22.4951L135.429 17.839C135.393 17.7479 135.335 17.6822 135.262 17.6348C135.192 17.5802 135.12 17.5546 135.036 17.5546C134.952 17.5546 134.875 17.5802 134.799 17.6348C134.729 17.6786 134.678 17.7479 134.642 17.839L132.338 23.2425L131.681 24.7848L131.123 26.0901H131.926L132.236 25.3645L133.147 23.2425L135.612 23.2389L135.298 22.4951H133.468L135.036 18.8417L135.517 19.9829H135.521L136.213 21.6309L136.892 23.2389H136.895L138.102 26.0901H138.904L137.705 23.2352Z" fill="url(#paint5_linear_7783_1125)"/>
<path d="M97.3245 17.715V25.7728C97.3245 25.8932 97.2808 25.9989 97.1896 26.0901C97.1058 26.1739 97 26.214 96.8724 26.214C96.8032 26.214 96.7412 26.1958 96.6792 26.1557C96.6208 26.1265 96.5662 26.0828 96.5224 26.0317L91.0132 18.8198V26.0864H90.2985V17.9994C90.2985 17.8718 90.3386 17.7661 90.4225 17.6822C90.5137 17.5983 90.6194 17.5582 90.7397 17.5582C90.8163 17.5582 90.8819 17.5728 90.9439 17.602C91.0059 17.6239 91.0569 17.6676 91.1007 17.726L96.599 24.9816V17.715H97.3245Z" fill="url(#paint6_linear_7783_1125)"/>
<path d="M86.5976 23.2352L86.284 22.4951L84.3224 17.839C84.286 17.7479 84.2276 17.6822 84.1547 17.6348C84.0854 17.5801 84.0125 17.5546 83.9286 17.5546C83.8448 17.5546 83.7646 17.5801 83.6916 17.6348C83.6224 17.6786 83.5713 17.7479 83.5349 17.839L81.2269 23.2425L80.5706 24.7848L80.0127 26.0901H80.8149L81.1248 25.3645L82.0363 23.2425L84.5011 23.2389L84.1875 22.4951H82.3608L83.9286 18.8417L84.4099 19.9829H84.4136L85.1063 21.6309L85.7845 23.2389H85.7881L86.995 26.0901H87.7971L86.5976 23.2352Z" fill="url(#paint7_linear_7783_1125)"/>
<path d="M47.8107 19.673C47.4242 19.0167 46.9065 18.499 46.2502 18.1234C45.6012 17.7442 44.9011 17.5583 44.1245 17.5583C43.3479 17.5583 42.6296 17.7515 41.9733 18.1344C41.317 18.5099 40.7956 19.0277 40.4128 19.684C40.0336 20.333 39.8477 21.0622 39.8477 21.8461C39.8477 22.63 40.0373 23.3592 40.4128 24.0301C40.7993 24.6937 41.317 25.2224 41.9733 25.6161C42.6369 26.0099 43.3552 26.2031 44.1245 26.2031C44.9011 26.2031 45.6157 26.0099 46.2611 25.6271C46.9174 25.2333 47.4351 24.7083 47.8107 24.041C48.1972 23.3701 48.3868 22.6446 48.3868 21.8461C48.3868 21.0476 48.1972 20.322 47.8107 19.673ZM47.1799 23.691C46.8627 24.2488 46.4361 24.6937 45.9001 25.0255C45.3642 25.35 44.7735 25.5104 44.1245 25.5104C43.4755 25.5104 42.8812 25.35 42.3379 25.0255C41.7947 24.6937 41.3644 24.2488 41.0472 23.691C40.73 23.1331 40.5732 22.5097 40.5732 21.8461C40.5732 21.1825 40.73 20.5772 41.0472 20.034C41.3644 19.4907 41.791 19.0605 42.327 18.7433C42.8703 18.4188 43.4719 18.2583 44.1281 18.2583C44.7844 18.2583 45.3788 18.4188 45.9147 18.7433C46.458 19.0605 46.8846 19.4907 47.1945 20.034C47.5117 20.5772 47.6685 21.1716 47.6685 21.8461C47.6685 22.5206 47.5008 23.1331 47.1799 23.691Z" fill="url(#paint8_linear_7783_1125)"/>
<path d="M57.1483 25.3754V26.0864H51.424C51.3036 26.0864 51.2015 26.0463 51.1177 25.9625C51.0338 25.8786 50.9937 25.7765 50.9937 25.6562V17.715H51.7084V25.3754H57.1483Z" fill="url(#paint9_linear_7783_1125)"/>
<path d="M63.1208 26.1885C62.4791 26.1667 61.8775 26.0828 61.3087 25.9406C60.7435 25.7984 60.193 25.5833 59.657 25.2953L59.9852 24.639C60.4664 24.9015 60.966 25.102 61.48 25.2406C62.0014 25.3755 62.5483 25.4484 63.1208 25.4557C63.7479 25.4776 64.2985 25.4265 64.7724 25.2953C65.2464 25.1676 65.6147 24.9781 65.8699 24.7301C66.1251 24.4822 66.2637 24.1941 66.2783 23.8696C66.2929 23.454 66.1689 23.1295 65.9064 22.8961C65.6512 22.6628 65.323 22.4914 64.9219 22.3857C64.5209 22.2727 64.0031 22.1706 63.3614 22.0794C62.5702 21.9737 61.9504 21.8679 61.5056 21.7622C61.068 21.6565 60.6925 21.4523 60.3753 21.1497C60.0581 20.847 59.9086 20.4132 59.9232 19.848C59.9377 19.374 60.1055 18.962 60.419 18.6156C60.7362 18.262 61.1701 17.9958 61.7207 17.8244C62.2785 17.6494 62.9166 17.5729 63.6312 17.5874C64.1745 17.602 64.7141 17.675 65.2501 17.8026C65.7861 17.9229 66.2856 18.0943 66.745 18.313L66.4606 18.9584C65.5855 18.55 64.6376 18.3312 63.6203 18.3021C63.026 18.2875 62.5082 18.3349 62.0707 18.4479C61.6332 18.561 61.2905 18.7396 61.0425 18.9803C60.8019 19.2209 60.6743 19.5199 60.656 19.8735C60.6414 20.2491 60.7581 20.5408 61.0061 20.745C61.254 20.9418 61.5457 21.0767 61.8775 21.1533C62.2093 21.2226 62.7234 21.2992 63.4161 21.3903C64.1636 21.4888 64.787 21.6091 65.2829 21.7513C65.7897 21.8862 66.209 22.1232 66.5408 22.4659C66.8799 22.805 67.0403 23.2753 67.0148 23.8806C67.0075 24.3546 66.8361 24.7702 66.5043 25.1239C66.1725 25.4776 65.7131 25.751 65.1225 25.937C64.5355 26.1229 63.8682 26.2068 63.1208 26.1885Z" fill="url(#paint10_linear_7783_1125)"/>
<path d="M70.6678 26.0901C70.5475 26.0901 70.4454 26.05 70.3615 25.9661C70.2776 25.8822 70.2375 25.7801 70.2375 25.6598C70.2375 25.5614 70.2667 25.4739 70.3287 25.401L76.2244 18.4297H70.3615V17.715H76.8807C76.9937 17.715 77.0922 17.7551 77.176 17.839C77.2599 17.9228 77.3 18.0213 77.3 18.1343C77.3 18.2328 77.2708 18.3239 77.2088 18.4041L71.3241 25.3754H77.1979V26.0901H70.6678Z" fill="url(#paint11_linear_7783_1125)"/>
<path d="M102.659 21.8679L107.161 17.715H106.199L101.966 21.5835C101.889 21.6528 101.853 21.7476 101.853 21.8679C101.853 21.9809 101.889 22.0757 101.966 22.1523L106.275 26.09H107.26L102.659 21.8679Z" fill="url(#paint12_linear_7783_1125)"/>
<path d="M101.652 17.715H100.938V26.09H101.652V17.715Z" fill="url(#paint13_linear_7783_1125)"/>
<path d="M116.809 19.673C116.423 19.0167 115.905 18.4989 115.249 18.1234C114.6 17.7442 113.899 17.5582 113.119 17.5582C112.343 17.5582 111.624 17.7515 110.968 18.1343C110.312 18.5099 109.79 19.0276 109.408 19.6839C109.032 20.3329 108.842 21.0621 108.842 21.846C108.842 22.6299 109.032 23.3591 109.408 24.03C109.794 24.6936 110.312 25.2223 110.968 25.6161C111.632 26.0098 112.35 26.2031 113.119 26.2031C113.896 26.2031 114.61 26.0098 115.259 25.627C115.916 25.2332 116.434 24.7082 116.809 24.041C117.196 23.3701 117.385 22.6445 117.385 21.846C117.385 21.0475 117.192 20.322 116.809 19.673ZM116.175 23.6909C115.857 24.2488 115.431 24.6936 114.895 25.0254C114.359 25.3499 113.768 25.5103 113.119 25.5103C112.47 25.5103 111.876 25.3499 111.333 25.0254C110.789 24.6936 110.359 24.2488 110.042 23.6909C109.725 23.1331 109.568 22.5096 109.568 21.846C109.568 21.1824 109.725 20.5772 110.042 20.0339C110.359 19.4907 110.786 19.0604 111.322 18.7432C111.865 18.4187 112.463 18.2583 113.119 18.2583C113.776 18.2583 114.373 18.4187 114.906 18.7432C115.449 19.0604 115.876 19.4907 116.186 20.0339C116.503 20.5772 116.66 21.1715 116.66 21.846C116.66 22.5205 116.499 23.1331 116.175 23.6909Z" fill="url(#paint14_linear_7783_1125)"/>
<path d="M128.561 17.7151L127.175 24.9416L124.419 19.6037L121.673 24.9416L120.28 17.7151H119.533L121.13 25.8969C121.144 25.988 121.192 26.0646 121.265 26.1229C121.349 26.1849 121.443 26.2141 121.549 26.2141C121.626 26.2141 121.695 26.1958 121.764 26.1557C121.834 26.1193 121.881 26.0646 121.91 25.9989L124.426 21.1023L126.934 25.9989C126.971 26.0682 127.022 26.1193 127.08 26.1557C127.15 26.1922 127.222 26.2141 127.306 26.2141C127.405 26.2141 127.496 26.1849 127.576 26.1229C127.66 26.0609 127.707 25.988 127.722 25.8969L129.319 17.7151H128.561Z" fill="url(#paint15_linear_7783_1125)"/>
<defs>
<linearGradient id="paint0_linear_7783_1125" x1="29.0148" y1="23.6463" x2="1" y2="9.82405" gradientUnits="userSpaceOnUse">
<stop stop-color="#905E26"/>
<stop offset="0.5" stop-color="#F5EC9B"/>
<stop offset="1" stop-color="#905E26"/>
</linearGradient>
<linearGradient id="paint1_linear_7783_1125" x1="40.0111" y1="15.3943" x2="139.07" y2="15.3943" gradientUnits="userSpaceOnUse">
<stop stop-color="#905E26"/>
<stop offset="0.5" stop-color="#F5EC9B"/>
<stop offset="1" stop-color="#905E26"/>
</linearGradient>
<linearGradient id="paint2_linear_7783_1125" x1="40.0111" y1="15.3943" x2="139.07" y2="15.3943" gradientUnits="userSpaceOnUse">
<stop stop-color="#905E26"/>
<stop offset="0.5" stop-color="#F5EC9B"/>
<stop offset="1" stop-color="#905E26"/>
</linearGradient>
<linearGradient id="paint3_linear_7783_1125" x1="40.0111" y1="15.3943" x2="139.07" y2="15.3943" gradientUnits="userSpaceOnUse">
<stop stop-color="#905E26"/>
<stop offset="0.5" stop-color="#F5EC9B"/>
<stop offset="1" stop-color="#905E26"/>
</linearGradient>
<linearGradient id="paint4_linear_7783_1125" x1="40.0111" y1="15.3943" x2="139.07" y2="15.3943" gradientUnits="userSpaceOnUse">
<stop stop-color="#905E26"/>
<stop offset="0.5" stop-color="#F5EC9B"/>
<stop offset="1" stop-color="#905E26"/>
</linearGradient>
<linearGradient id="paint5_linear_7783_1125" x1="40.0111" y1="15.3943" x2="139.07" y2="15.3943" gradientUnits="userSpaceOnUse">
<stop stop-color="#905E26"/>
<stop offset="0.5" stop-color="#F5EC9B"/>
<stop offset="1" stop-color="#905E26"/>
</linearGradient>
<linearGradient id="paint6_linear_7783_1125" x1="40.0111" y1="15.3943" x2="139.07" y2="15.3943" gradientUnits="userSpaceOnUse">
<stop stop-color="#905E26"/>
<stop offset="0.5" stop-color="#F5EC9B"/>
<stop offset="1" stop-color="#905E26"/>
</linearGradient>
<linearGradient id="paint7_linear_7783_1125" x1="40.0111" y1="15.3943" x2="139.07" y2="15.3943" gradientUnits="userSpaceOnUse">
<stop stop-color="#905E26"/>
<stop offset="0.5" stop-color="#F5EC9B"/>
<stop offset="1" stop-color="#905E26"/>
</linearGradient>
<linearGradient id="paint8_linear_7783_1125" x1="40.0111" y1="15.3943" x2="139.07" y2="15.3943" gradientUnits="userSpaceOnUse">
<stop stop-color="#905E26"/>
<stop offset="0.5" stop-color="#F5EC9B"/>
<stop offset="1" stop-color="#905E26"/>
</linearGradient>
<linearGradient id="paint9_linear_7783_1125" x1="40.0111" y1="15.3943" x2="139.07" y2="15.3943" gradientUnits="userSpaceOnUse">
<stop stop-color="#905E26"/>
<stop offset="0.5" stop-color="#F5EC9B"/>
<stop offset="1" stop-color="#905E26"/>
</linearGradient>
<linearGradient id="paint10_linear_7783_1125" x1="40.0111" y1="15.3943" x2="139.07" y2="15.3943" gradientUnits="userSpaceOnUse">
<stop stop-color="#905E26"/>
<stop offset="0.5" stop-color="#F5EC9B"/>
<stop offset="1" stop-color="#905E26"/>
</linearGradient>
<linearGradient id="paint11_linear_7783_1125" x1="40.0111" y1="15.3943" x2="139.07" y2="15.3943" gradientUnits="userSpaceOnUse">
<stop stop-color="#905E26"/>
<stop offset="0.5" stop-color="#F5EC9B"/>
<stop offset="1" stop-color="#905E26"/>
</linearGradient>
<linearGradient id="paint12_linear_7783_1125" x1="40.0111" y1="15.3943" x2="139.07" y2="15.3943" gradientUnits="userSpaceOnUse">
<stop stop-color="#905E26"/>
<stop offset="0.5" stop-color="#F5EC9B"/>
<stop offset="1" stop-color="#905E26"/>
</linearGradient>
<linearGradient id="paint13_linear_7783_1125" x1="40.0111" y1="15.3943" x2="139.07" y2="15.3943" gradientUnits="userSpaceOnUse">
<stop stop-color="#905E26"/>
<stop offset="0.5" stop-color="#F5EC9B"/>
<stop offset="1" stop-color="#905E26"/>
</linearGradient>
<linearGradient id="paint14_linear_7783_1125" x1="40.0111" y1="15.3943" x2="139.07" y2="15.3943" gradientUnits="userSpaceOnUse">
<stop stop-color="#905E26"/>
<stop offset="0.5" stop-color="#F5EC9B"/>
<stop offset="1" stop-color="#905E26"/>
</linearGradient>
<linearGradient id="paint15_linear_7783_1125" x1="40.0111" y1="15.3943" x2="139.07" y2="15.3943" gradientUnits="userSpaceOnUse">
<stop stop-color="#905E26"/>
<stop offset="0.5" stop-color="#F5EC9B"/>
<stop offset="1" stop-color="#905E26"/>
</linearGradient>
</defs>
</svg>
