<svg width="354" height="55" viewBox="0 0 354 55" fill="none" xmlns="http://www.w3.org/2000/svg">
<path d="M77.327 19.8721V35.8916H75.923V21.7225L69.5297 31.8885L63.1363 21.7225V35.8844H61.7251V19.8721C61.7251 19.6489 61.8043 19.4546 61.9699 19.289C62.1355 19.1234 62.3371 19.0442 62.5747 19.0442C62.8411 19.0442 63.0643 19.1666 63.2443 19.4042L69.5225 29.347L75.8007 19.4042C75.9807 19.1666 76.211 19.0442 76.4918 19.0442C76.715 19.0442 76.9094 19.1234 77.075 19.289C77.2406 19.4546 77.327 19.6417 77.327 19.8721Z" fill="white"/>
<path d="M99.0847 23.22C98.3215 21.9241 97.2992 20.9017 96.0032 20.1601C94.7216 19.4114 93.3393 19.0442 91.8057 19.0442C90.2722 19.0442 88.8538 19.4258 87.5579 20.1817C86.2619 20.9233 85.2324 21.9457 84.4764 23.2416C83.7276 24.5232 83.3604 25.9631 83.3604 27.5111C83.3604 29.059 83.7348 30.499 84.4764 31.8237C85.2396 33.1341 86.2619 34.1781 87.5579 34.9556C88.8682 35.7332 90.2866 36.1148 91.8057 36.1148C93.3393 36.1148 94.7504 35.7332 96.0248 34.9772C97.3208 34.1997 98.3431 33.1629 99.0847 31.8454C99.8479 30.5206 100.222 29.0878 100.222 27.5111C100.222 25.9343 99.8479 24.5016 99.0847 23.22ZM97.8391 31.1542C97.2128 32.2557 96.3704 33.1341 95.312 33.7893C94.2537 34.4301 93.0873 34.7469 91.8057 34.7469C90.5242 34.7469 89.3506 34.4301 88.2778 33.7893C87.2051 33.1341 86.3555 32.2557 85.7291 31.1542C85.1028 30.0526 84.7932 28.8214 84.7932 27.5111C84.7932 26.2007 85.1028 25.0056 85.7291 23.9328C86.3555 22.86 87.1979 22.0105 88.2563 21.3841C89.329 20.7433 90.517 20.4265 91.8129 20.4265C93.1089 20.4265 94.2825 20.7433 95.3408 21.3841C96.4136 22.0105 97.256 22.86 97.8679 23.9328C98.4943 25.0056 98.8039 26.1791 98.8039 27.5111C98.8039 28.843 98.4727 30.0526 97.8391 31.1542Z" fill="white"/>
<path d="M109.402 35.8916C108.164 35.8916 107.04 35.5532 106.025 34.8836C105.01 34.1997 104.269 33.3141 103.793 32.2269L105.046 31.6222C105.435 32.4573 106.018 33.1413 106.788 33.6741C107.58 34.1925 108.452 34.4589 109.402 34.4589C110.266 34.4589 111.065 34.2501 111.792 33.8325C112.519 33.4005 113.095 32.8101 113.513 32.0685C113.931 31.327 114.139 30.499 114.139 29.5918V19.3538H115.543L115.565 29.5846C115.565 30.7582 115.291 31.8237 114.737 32.7813C114.183 33.7317 113.441 34.4949 112.505 35.0564C111.569 35.6108 110.532 35.8844 109.402 35.8916Z" fill="white"/>
<path d="M133.039 30.2542L132.42 28.7926L128.553 19.5985C128.481 19.4186 128.366 19.289 128.215 19.1954C128.078 19.0874 127.934 19.037 127.769 19.037C127.603 19.037 127.445 19.0874 127.301 19.1954C127.164 19.2818 127.063 19.4186 126.991 19.5985L122.434 30.2686L121.138 33.3141L120.036 35.8916H121.62L122.232 34.4589L124.032 30.2686L128.899 30.2614L128.28 28.7926H124.673L127.769 21.5785L128.719 23.832H128.726L130.094 27.0863L131.433 30.2614H131.44L133.824 35.8916H135.408L133.039 30.2542Z" fill="white"/>
<path d="M340.745 30.2542L340.126 28.7926L336.252 19.5985C336.18 19.4186 336.065 19.289 335.921 19.1954C335.784 19.0874 335.64 19.037 335.475 19.037C335.309 19.037 335.158 19.0874 335.007 19.1954C334.87 19.2818 334.769 19.4186 334.697 19.5985L330.147 30.2686L328.851 33.3141L327.749 35.8916H329.333L329.945 34.4589L331.745 30.2686L336.612 30.2614L335.993 28.7926H332.379L335.475 21.5785L336.425 23.832H336.432L337.8 27.0863L339.139 30.2614H339.147L341.53 35.8916H343.114L340.745 30.2542Z" fill="white"/>
<path d="M261.007 19.3538V35.2652C261.007 35.5028 260.921 35.7116 260.741 35.8916C260.575 36.0572 260.367 36.1364 260.115 36.1364C259.978 36.1364 259.855 36.1004 259.733 36.0212C259.618 35.9636 259.51 35.8772 259.423 35.7764L248.545 21.5353V35.8844H247.133V19.9153C247.133 19.6633 247.213 19.4546 247.378 19.289C247.558 19.1234 247.767 19.0442 248.005 19.0442C248.156 19.0442 248.285 19.073 248.408 19.1306C248.53 19.1738 248.631 19.2602 248.717 19.3754L259.575 33.7029V19.3538H261.007Z" fill="white"/>
<path d="M239.826 30.2542L239.207 28.7926L235.333 19.5985C235.261 19.4186 235.146 19.289 235.002 19.1954C234.865 19.0874 234.721 19.037 234.556 19.037C234.39 19.037 234.232 19.0874 234.088 19.1954C233.951 19.2818 233.85 19.4186 233.778 19.5985L229.22 30.2686L227.925 33.3141L226.823 35.8916H228.407L229.019 34.4589L230.819 30.2686L235.686 30.2614L235.067 28.7926H231.46L234.556 21.5785L235.506 23.832H235.513L236.881 27.0863L238.22 30.2614H238.227L240.611 35.8916H242.194L239.826 30.2542Z" fill="white"/>
<path d="M163.235 23.22C162.471 21.9241 161.449 20.9017 160.153 20.1601C158.872 19.4114 157.489 19.0442 155.956 19.0442C154.422 19.0442 153.004 19.4258 151.708 20.1817C150.412 20.9233 149.382 21.9457 148.626 23.2416C147.878 24.5232 147.51 25.9631 147.51 27.5111C147.51 29.059 147.885 30.499 148.626 31.8237C149.389 33.1341 150.412 34.1781 151.708 34.9556C153.018 35.7332 154.437 36.1148 155.956 36.1148C157.489 36.1148 158.9 35.7332 160.175 34.9772C161.471 34.1997 162.493 33.1629 163.235 31.8454C163.998 30.5206 164.372 29.0878 164.372 27.5111C164.372 25.9343 163.998 24.5016 163.235 23.22ZM161.989 31.1542C161.363 32.2557 160.52 33.1341 159.462 33.7893C158.404 34.4301 157.237 34.7469 155.956 34.7469C154.674 34.7469 153.501 34.4301 152.428 33.7893C151.355 33.1341 150.505 32.2557 149.879 31.1542C149.253 30.0526 148.943 28.8214 148.943 27.5111C148.943 26.2007 149.253 25.0056 149.879 23.9328C150.505 22.86 151.348 22.0105 152.406 21.3841C153.479 20.7433 154.667 20.4265 155.963 20.4265C157.259 20.4265 158.432 20.7433 159.491 21.3841C160.564 22.0105 161.406 22.86 162.018 23.9328C162.644 25.0056 162.954 26.1791 162.954 27.5111C162.954 28.843 162.623 30.0526 161.989 31.1542Z" fill="white"/>
<path d="M181.673 34.4805V35.8844H170.37C170.132 35.8844 169.93 35.8052 169.765 35.6396C169.599 35.474 169.52 35.2724 169.52 35.0348V19.3538H170.931V34.4805H181.673Z" fill="white"/>
<path d="M193.466 36.086C192.199 36.0428 191.011 35.8772 189.888 35.5964C188.772 35.3156 187.685 34.8909 186.627 34.3221L187.275 33.0261C188.225 33.5445 189.211 33.9405 190.227 34.2141C191.256 34.4805 192.336 34.6245 193.466 34.6389C194.705 34.6821 195.792 34.5813 196.728 34.3221C197.664 34.0701 198.391 33.6957 198.895 33.2061C199.399 32.7165 199.673 32.1477 199.701 31.507C199.73 30.6862 199.485 30.0454 198.967 29.5846C198.463 29.1238 197.815 28.7854 197.023 28.5767C196.231 28.3535 195.209 28.1519 193.942 27.9719C192.379 27.7631 191.155 27.5543 190.277 27.3455C189.413 27.1367 188.671 26.7335 188.045 26.1359C187.419 25.5384 187.123 24.6816 187.152 23.5656C187.181 22.6296 187.512 21.8161 188.131 21.1321C188.758 20.4337 189.615 19.9081 190.702 19.5697C191.803 19.2242 193.063 19.073 194.474 19.1018C195.547 19.1306 196.613 19.2746 197.671 19.5265C198.729 19.7641 199.716 20.1025 200.623 20.5345L200.061 21.8089C198.333 21.0025 196.462 20.5705 194.453 20.5129C193.279 20.4841 192.257 20.5777 191.393 20.8009C190.529 21.0241 189.852 21.3769 189.363 21.8521C188.887 22.3273 188.635 22.9176 188.599 23.616C188.571 24.3576 188.801 24.9336 189.291 25.3368C189.78 25.7255 190.356 25.9919 191.011 26.1431C191.667 26.2799 192.682 26.4311 194.05 26.6111C195.526 26.8055 196.757 27.0431 197.736 27.3239C198.737 27.5903 199.565 28.0583 200.22 28.7351C200.889 29.4046 201.206 30.3334 201.156 31.5286C201.141 32.4645 200.803 33.2853 200.148 33.9837C199.493 34.6821 198.585 35.222 197.419 35.5892C196.26 35.9564 194.942 36.122 193.466 36.086Z" fill="white"/>
<path d="M208.37 35.8916C208.132 35.8916 207.931 35.8124 207.765 35.6468C207.6 35.4812 207.52 35.2796 207.52 35.042C207.52 34.8477 207.578 34.6749 207.7 34.5309L219.342 20.7649H207.765V19.3538H220.638C220.862 19.3538 221.056 19.433 221.222 19.5985C221.387 19.7641 221.466 19.9585 221.466 20.1817C221.466 20.3761 221.409 20.5561 221.286 20.7145L209.666 34.4805H221.265V35.8916H208.37Z" fill="white"/>
<path d="M271.541 27.5543L280.432 19.3538H278.532L270.173 26.9927C270.022 27.1295 269.95 27.3167 269.95 27.5543C269.95 27.7775 270.022 27.9647 270.173 28.1159L278.683 35.8916H280.627L271.541 27.5543Z" fill="white"/>
<path d="M269.554 19.3538H268.142V35.8916H269.554V19.3538Z" fill="white"/>
<path d="M299.483 23.22C298.72 21.9241 297.697 20.9017 296.402 20.1601C295.12 19.4114 293.738 19.0442 292.197 19.0442C290.663 19.0442 289.245 19.4258 287.949 20.1817C286.653 20.9233 285.623 21.9457 284.867 23.2416C284.126 24.5232 283.752 25.9631 283.752 27.5111C283.752 29.059 284.126 30.499 284.867 31.8237C285.631 33.1341 286.653 34.1781 287.949 34.9556C289.259 35.7332 290.678 36.1148 292.197 36.1148C293.73 36.1148 295.142 35.7332 296.423 34.9772C297.719 34.1997 298.741 33.1629 299.483 31.8454C300.246 30.5206 300.621 29.0878 300.621 27.5111C300.621 25.9343 300.239 24.5016 299.483 23.22ZM298.23 31.1542C297.604 32.2557 296.762 33.1341 295.703 33.7893C294.645 34.4301 293.478 34.7469 292.197 34.7469C290.915 34.7469 289.742 34.4301 288.669 33.7893C287.596 33.1341 286.747 32.2557 286.12 31.1542C285.494 30.0526 285.184 28.8214 285.184 27.5111C285.184 26.2007 285.494 25.0056 286.12 23.9328C286.747 22.86 287.589 22.0105 288.647 21.3841C289.72 20.7433 290.901 20.4265 292.197 20.4265C293.493 20.4265 294.674 20.7433 295.725 21.3841C296.797 22.0105 297.64 22.86 298.252 23.9328C298.878 25.0056 299.188 26.1791 299.188 27.5111C299.188 28.843 298.871 30.0526 298.23 31.1542Z" fill="white"/>
<path d="M322.688 19.3538L319.952 33.6237L314.509 23.0832L309.087 33.6237L306.337 19.3538H304.861L308.015 35.51C308.044 35.69 308.137 35.8412 308.281 35.9564C308.447 36.0788 308.634 36.1364 308.843 36.1364C308.994 36.1364 309.131 36.1004 309.267 36.0212C309.404 35.9492 309.498 35.8412 309.555 35.7116L314.523 26.0423L319.477 35.7116C319.549 35.8484 319.65 35.9492 319.765 36.0212C319.902 36.0932 320.046 36.1364 320.211 36.1364C320.406 36.1364 320.586 36.0788 320.744 35.9564C320.91 35.834 321.003 35.69 321.032 35.51L324.185 19.3538H322.688Z" fill="white"/>
<path d="M38.1794 18.0934C35.2275 33.465 23.6358 43.9623 16.8607 43.9623H10.4961V11.2896H43.1689V43.9623H27.5957M40.8433 23.0253C40.0514 24.4148 37.9634 26.6252 35.5515 27.0572M39.1514 31.2331C36.7754 32.889 34.1403 33.6882 31.4476 33.5442M28.6756 26.3372C28.8268 27.9283 29.6044 31.593 31.534 33.4722M33.4635 21.0813C33.3267 22.9101 33.8595 25.7612 35.1915 27.0716M38.9642 11.4983C41.3185 14.4647 44.6112 23.6482 42.4561 30.3547C41.2458 34.8726 37.9274 39.2969 31.5196 39.2969C25.8173 39.0377 22.5558 35.0706 21.6558 32.709C18.0631 23.2917 29.6836 18.0934 34.8675 15.0695C37.6826 13.4279 38.5322 12.1607 38.9138 11.5055C38.9282 11.4911 38.9498 11.4839 38.9642 11.4983Z" stroke="white" stroke-width="0.79198" stroke-linecap="round"/>
</svg>
