<svg width="108" height="46" viewBox="0 0 108 46" fill="none" xmlns="http://www.w3.org/2000/svg">
<g clip-path="url(#clip0_7783_1154)">
<mask id="mask0_7783_1154" style="mask-type:luminance" maskUnits="userSpaceOnUse" x="-1" y="0" width="109" height="46">
<path d="M107.213 0H-0.00390625V46H107.213V0Z" fill="white"/>
</mask>
<g mask="url(#mask0_7783_1154)">
<path d="M31.5172 18.7239C33.9486 18.7239 35.8362 20.6726 35.8362 23.0917C35.8362 25.5109 33.9486 27.4474 31.5172 27.4474C29.0859 27.4474 27.2227 25.4986 27.2227 23.0917C27.2227 20.6848 29.0981 18.7239 31.5172 18.7239ZM31.5172 26.1645C33.2094 26.1645 34.5167 24.7961 34.5167 23.0917C34.5167 21.3874 33.2094 20.0067 31.5172 20.0067C29.825 20.0067 28.53 21.3874 28.53 23.0917C28.53 24.7961 29.8373 26.1645 31.5172 26.1645Z" fill="white"/>
<path d="M37.3082 25.4501C37.6197 25.3279 37.8519 25.4867 37.9496 25.6944C38.1817 26.1404 38.6277 26.3847 39.1958 26.3847C39.764 26.3847 40.1977 26.1282 40.1977 25.6944C40.1977 25.3218 39.8373 25.1629 39.4219 25.0652L38.646 24.8819C37.4242 24.5521 36.9783 23.8801 37.0516 22.9576C37.1249 22.1085 38.0535 21.4426 39.1103 21.4426C39.8739 21.4426 40.5764 21.687 40.9613 22.2918C41.1323 22.5911 41.0468 22.8843 40.8513 23.0309C40.6436 23.202 40.381 23.1898 40.1122 22.9576C39.7884 22.6766 39.4219 22.5606 39.1225 22.5606C38.7987 22.5606 38.4444 22.6705 38.3223 22.8721C38.2245 23.0309 38.2123 23.1959 38.2734 23.3669C38.3467 23.5869 38.6949 23.7029 39.0003 23.7884L39.8861 24.0084C41.1323 24.3199 41.3889 25.1324 41.3889 25.7127C41.3889 26.8246 40.4115 27.4538 39.092 27.4538C38.2062 27.4538 37.3021 26.9834 36.9966 26.1465C36.8989 25.841 37.0333 25.5539 37.3082 25.4562" fill="white"/>
<path d="M43.3374 18.425C43.8078 18.425 44.1743 18.7733 44.1743 19.2253C44.1743 19.6774 43.8078 20.0256 43.3374 20.0256C42.867 20.0256 42.4883 19.6774 42.4883 19.2253C42.4883 18.7733 42.8854 18.425 43.3374 18.425ZM43.9789 22.1393C43.9789 21.7911 43.6978 21.4978 43.3252 21.4978C42.977 21.4978 42.7082 21.7972 42.7082 22.1393V26.7393C42.7082 27.0875 42.977 27.3807 43.3252 27.3807C43.6978 27.3807 43.9789 27.0875 43.9789 26.7393V22.1393Z" fill="white"/>
<path d="M50.6314 24.8942H46.6239C46.7461 25.78 47.4608 26.3359 48.3894 26.3359C48.9942 26.3359 49.3363 26.1282 49.7578 25.78C49.9655 25.6089 50.3137 25.5234 50.5703 25.7311C50.8024 25.9143 50.8146 26.2992 50.5947 26.5313C50.0144 27.1361 49.1774 27.4416 48.3222 27.4416C46.6789 27.4416 45.3594 26.2442 45.3594 24.4177C45.3594 22.5911 46.6789 21.4304 48.3222 21.4304C49.9655 21.4304 51.1567 22.5422 51.2117 24.3077C51.2117 24.6437 50.9368 24.8881 50.6314 24.8881M49.9655 23.9656C49.8433 23.0676 49.1897 22.5483 48.3222 22.5483C47.4547 22.5483 46.74 23.0798 46.6178 23.9656H49.9594H49.9655Z" fill="white"/>
<path d="M56.974 19.0052C56.974 18.657 57.255 18.3638 57.6276 18.3638C57.9758 18.3638 58.2446 18.657 58.2446 19.0052V26.7391C58.2446 27.0873 57.9697 27.3805 57.6276 27.3805C57.255 27.3805 56.974 27.0873 56.974 26.7391V26.4825C56.6135 27.0995 55.8255 27.4416 55.0497 27.4416C53.498 27.4416 52.1602 26.2565 52.1602 24.4421C52.1602 22.6278 53.4675 21.4304 55.0374 21.4304C55.8499 21.4304 56.6196 21.7542 56.974 22.3773V18.9991V19.0052ZM55.1963 22.6705C54.2311 22.6705 53.4552 23.3608 53.4552 24.4238C53.4552 25.4867 54.2311 26.2137 55.1963 26.2137C56.1615 26.2137 56.9618 25.5478 56.9618 24.4238C56.9618 23.2998 56.0637 22.6705 55.1963 22.6705Z" fill="white"/>
<path d="M61.2667 26.7452C61.2667 27.0934 60.9796 27.3866 60.6131 27.3866C60.2649 27.3866 59.9961 27.0934 59.9961 26.7452V19.0113C59.9961 18.6631 60.271 18.3699 60.6131 18.3699C60.9857 18.3699 61.2667 18.6631 61.2667 19.0113V26.7452Z" fill="white"/>
<path d="M67.936 24.8942H63.9286C64.0508 25.78 64.7655 26.3359 65.6941 26.3359C66.2989 26.3359 66.641 26.1282 67.0625 25.78C67.2702 25.6089 67.6184 25.5234 67.875 25.7311C68.1071 25.9143 68.1193 26.2992 67.8994 26.5313C67.319 27.1361 66.4821 27.4416 65.6269 27.4416C63.9836 27.4416 62.6641 26.2442 62.6641 24.4177C62.6641 22.5911 63.9836 21.4304 65.6269 21.4304C67.2702 21.4304 68.4675 22.5422 68.5164 24.3077C68.5164 24.6437 68.2415 24.8881 67.936 24.8881M67.2702 23.9656C67.148 23.0676 66.4943 22.5483 65.6269 22.5483C64.7594 22.5483 64.0447 23.0798 63.9225 23.9656H67.2641H67.2702Z" fill="white"/>
</g>
<path d="M17.6486 15.9013V32.548L7.67888 15.0888C6.57928 13.134 5.29641 12.6575 3.81806 12.6575H3.19495C1.47835 12.6575 0 14.2336 0 16.2373V42.756C0 44.4726 1.66773 45.9998 3.48207 45.9998C5.38805 45.9998 6.96414 44.5215 6.96414 42.756V25.871L17.1721 43.6174C18.2717 45.5233 19.4629 45.9998 20.8924 45.9998H21.5155C23.1833 45.9998 24.6189 44.4726 24.6189 42.5178V15.9013C24.6189 14.1358 23.0428 12.6575 21.1368 12.6575C19.2308 12.6575 17.6547 14.1847 17.6547 15.9013" fill="white"/>
<path d="M28.3552 37.5577C27.8787 37.0079 27.8542 36.171 28.3552 35.719C29.8091 34.3811 31.6234 34.4055 32.552 34.4055C35.3193 34.4055 37.7507 35.7923 37.7507 39.1522V44.3997C37.7507 45.2366 36.987 45.8781 36.0829 45.8781C35.1788 45.8781 34.4396 45.2122 34.4152 44.3997V44.2592C33.676 45.5482 32.2221 45.9758 31.2447 45.9758C28.6912 45.9758 27.0234 44.5219 27.0234 42.396C27.0234 40.5572 28.8133 39.03 31.7945 39.03C32.5825 39.03 33.7493 39.3171 34.4152 39.7692C34.4152 38.3641 33.8654 37.2645 32.1732 37.2645C31.7945 37.2645 30.9087 37.2889 30.0046 37.8387C29.5036 38.1014 28.7889 38.0526 28.3613 37.5516M34.3663 41.8462C33.7432 41.2719 32.7658 41.2047 32.2893 41.2047C30.8843 41.2047 30.4017 41.8034 30.4017 42.3716C30.4017 42.9397 31.0248 43.4956 31.8067 43.4956C32.2099 43.4956 33.8104 43.4467 34.3602 41.8462" fill="white"/>
<path d="M40.4039 34.6191V31.7113C40.4284 30.8988 41.192 30.2329 42.0717 30.2329C42.9514 30.2329 43.7394 30.8743 43.7394 31.7113V34.6191H45.0039C45.6698 34.6191 46.1952 35.2178 46.1952 35.9325C46.1952 36.6473 45.6698 37.2215 45.0039 37.2459H43.7394V44.3994C43.7394 45.2364 42.9758 45.8778 42.0717 45.8778C41.1676 45.8778 40.4284 45.2119 40.4039 44.3994V37.2459H39.4998C38.834 37.2215 38.3086 36.6228 38.3086 35.9325C38.3086 35.2422 38.834 34.6191 39.4998 34.6191H40.4039Z" fill="white"/>
<path d="M54.141 44.1371C53.5423 45.2551 52.235 45.9759 50.9216 45.9759C48.4169 45.9759 46.8164 44.7358 46.8164 41.5653V35.9818C46.8164 35.1449 47.58 34.5034 48.4841 34.5034C49.3883 34.5034 50.1274 35.1693 50.1519 35.9818V40.5634C50.1519 42.0418 50.7017 42.7565 52.0823 42.7565C53.2491 42.7565 54.1349 42.2067 54.1349 40.5146V35.9818C54.1349 35.1449 54.8985 34.5034 55.8026 34.5034C56.7067 34.5034 57.452 35.1693 57.4703 35.9818V44.3998C57.4459 45.2123 56.6823 45.8782 55.8026 45.8782C54.9229 45.8782 54.1349 45.2368 54.1349 44.3998V44.1371H54.141Z" fill="white"/>
<path d="M67.6663 36.2443C67.5441 37.0812 66.7622 37.46 66.0169 37.46C65.7786 37.46 65.4182 37.4355 65.2044 37.4355C63.3473 37.4355 62.7242 38.865 62.6753 41.6568V44.3997C62.6753 45.2366 61.9117 45.878 61.0076 45.878C60.1035 45.878 59.3643 45.2122 59.3398 44.3997V35.9816C59.3643 35.1691 60.1279 34.5033 61.0076 34.5033C61.8873 34.5033 62.6753 35.1447 62.6753 35.9816V37.1973C63.2984 35.1203 64.4652 34.4055 65.6076 34.4055C66.7499 34.4055 67.874 34.6682 67.6602 36.2443" fill="white"/>
<path d="M68.6403 37.5577C68.1638 37.0079 68.1394 36.171 68.6403 35.719C70.0943 34.3811 71.9086 34.4055 72.8371 34.4055C75.6045 34.4055 78.0358 35.7923 78.0358 39.1522V44.3997C78.0358 45.2366 77.2722 45.8781 76.3681 45.8781C75.464 45.8781 74.7248 45.2122 74.7004 44.3997V44.2592C73.9612 45.5482 72.5073 45.9758 71.5298 45.9758C68.9763 45.9758 67.3086 44.5219 67.3086 42.396C67.3086 40.5572 69.0985 39.03 72.0796 39.03C72.8677 39.03 74.0345 39.3171 74.7004 39.7692C74.7004 38.3641 74.1506 37.2645 72.4584 37.2645C72.0796 37.2645 71.1939 37.2889 70.2897 37.8387C69.7888 38.1014 69.0741 38.0526 68.6464 37.5516M74.6515 41.8462C74.0284 41.2719 73.051 41.2047 72.5745 41.2047C71.1694 41.2047 70.6868 41.8034 70.6868 42.3716C70.6868 42.9397 71.3099 43.4956 72.0919 43.4956C72.495 43.4956 74.0956 43.4467 74.6454 41.8462" fill="white"/>
<path d="M76.3907 15.107L85.6335 7.08603C88.6024 4.50808 91.498 2.95642 94.137 2.34553C88.8345 -1.94903 82.5912 -0.39126 78.2173 7.35482L76.4518 10.4765C75.1628 12.7612 74.387 15.0765 74.0938 17.3307C74.7718 16.5915 75.5293 15.8523 76.3846 15.1131" fill="white" fill-opacity="0.9"/>
<path d="M106.159 23.6843C104.271 31.2533 97.4905 36.0365 88.5898 35.5722L92.805 36.6352C104.186 39.5003 109.69 33.7946 106.159 23.6843Z" fill="white" fill-opacity="0.9"/>
<path d="M74.1005 17.3311C66.8248 25.236 69.6227 32.6705 81.2296 34.5337L85.9945 35.2973C86.8803 35.4378 87.7417 35.5233 88.5908 35.5722L88.1265 35.4562C78.3401 32.9943 73.0192 25.572 74.1005 17.3311Z" fill="white" fill-opacity="0.8"/>
<path d="M99.5819 9.6767L104.909 20.691C105.41 21.7234 105.819 22.7192 106.155 23.6783C106.668 21.6196 106.827 19.3654 106.564 16.9463L106.173 13.3787C105.239 4.82012 100.407 0.892101 94.1328 2.34602C96.1304 3.96488 97.9936 6.40844 99.5758 9.6767" fill="white" fill-opacity="0.8"/>
<path fill-rule="evenodd" clip-rule="evenodd" d="M106.159 23.6823C106.16 23.6831 106.16 23.684 106.16 23.6848V23.6787C106.16 23.6799 106.16 23.6811 106.159 23.6823ZM104.914 20.6915C105.415 21.729 105.824 22.724 106.159 23.6823C104.271 31.2491 97.4965 36.0308 88.5911 35.5666L88.1329 35.4506C78.3465 32.9887 73.0256 25.5602 74.1069 17.3255C74.785 16.5924 75.5425 15.8471 76.3977 15.1079L85.6405 7.08694C88.6094 4.51509 91.505 2.95733 94.1441 2.34644C96.1417 3.96529 98.0049 6.40885 99.5871 9.67711L104.914 20.6915ZM85.1454 15.9385C84.8827 16.7877 85.3042 17.5696 86.0189 17.7712L86.0128 17.7651C86.9536 18.0339 87.6439 17.4719 87.9127 16.8487C88.2487 16.0424 88.9206 15.5537 89.7881 15.5537C90.9488 15.5537 91.6208 16.2256 91.6208 17.0076C91.6208 17.5635 91.242 18.1438 90.8388 18.657L85.5241 25.2485C85.2553 25.56 85.0537 26.006 85.0537 26.4336C85.0537 27.0811 85.4569 27.4843 86.0617 27.4843H93.5206C94.2598 27.4843 94.8829 26.7696 94.8829 26.0121C94.8829 25.2118 94.2598 24.5398 93.5206 24.5398H89.9042L93.2091 20.7218C94.0582 19.6955 94.7485 18.4187 94.7485 17.0137C94.7485 14.3746 92.5615 12.5664 89.9714 12.5664C87.6011 12.5664 85.8845 13.8371 85.1454 15.9385Z" fill="white"/>
</g>
<defs>
<clipPath id="clip0_7783_1154">
<rect width="107.217" height="46" rx="4" fill="white"/>
</clipPath>
</defs>
</svg>
