<svg width="103" height="41" viewBox="0 0 103 41" fill="none" xmlns="http://www.w3.org/2000/svg">
<g clip-path="url(#clip0_9777_583)">
<path d="M18.2225 19.5312H8.35938V20.1183H18.2225V19.5312Z" fill="white"/>
<path d="M35.5509 27.4516L23.0653 0.791992H22.6425L21.2422 3.89899L32.2983 27.5078C33.0508 29.137 33.9954 29.7867 35.8359 29.8972H39.3475V29.6451C37.2801 29.6451 36.3102 29.0961 35.5509 27.4516Z" fill="white"/>
<path d="M8.05217 21.7135C7.63026 23.0634 7.46165 24.1592 7.46165 25.0467C7.46165 28.1256 10.4989 29.6442 12.7351 29.6442V29.8973H0.585938V29.7285C2.5265 29.7285 4.12945 27.9152 5.4793 25.0465L11.2581 12.8975L11.3842 13.2776C9.95095 16.3992 8.89581 18.9294 8.26257 20.9542L8.05217 21.7135Z" fill="white"/>
<path d="M33.5264 29.6451V29.8982H18.2983V29.6451C20.2388 29.6451 21.9688 28.3786 20.9139 26.186L12.9414 9.39768L16.8225 0.791992H17.2444L29.7299 27.4505C30.4902 29.0961 31.4599 29.6451 33.5266 29.6451" fill="#F08D0C"/>
<path d="M65.4308 29.8456V29.5096C64.3779 29.3527 63.4594 29.0054 62.6755 28.468C61.8914 27.9303 61.0849 27.0791 60.256 25.9142C59.7184 25.1524 59.1024 24.2789 58.4079 23.293C57.7359 22.3074 57.1086 21.3889 56.5262 20.5377C56.1902 20.0672 55.843 19.6416 55.4845 19.2607C55.126 18.8798 54.7564 18.5886 54.3756 18.3871V18.2863C55.1147 18.0399 55.8205 17.7376 56.4925 17.3791C57.1646 17.0206 57.747 16.595 58.2399 16.1021C58.7551 15.5868 59.1584 15.0044 59.4496 14.3547C59.7633 13.6827 59.9201 12.9322 59.9201 12.1034C59.9201 10.7593 59.6176 9.65033 59.0129 8.77675C58.4079 7.88061 57.6127 7.17509 56.6271 6.65981C55.6639 6.14453 54.5997 5.84225 53.4349 5.75258C52.2699 5.66291 50.9371 5.61816 49.4362 5.61816H47.0841C46.1208 5.61816 45.1576 5.62944 44.1943 5.65181H40.2291V5.98794C40.834 6.0776 41.338 6.18965 41.7412 6.32406C42.1668 6.4361 42.5477 6.67127 42.8836 7.02958C43.0181 7.16399 43.1188 7.38807 43.1861 7.70164C43.2756 7.99283 43.3318 8.32896 43.3542 8.70964C43.3989 9.06813 43.4213 9.46009 43.4213 9.88569C43.4437 10.2889 43.4549 10.6922 43.4549 11.0954V19.5968C43.4549 20.2689 43.4438 20.9296 43.4213 21.5793C43.4213 22.2067 43.41 22.789 43.3876 23.3267V24.6035C43.3876 24.962 43.3765 25.3316 43.354 25.7125C43.3316 26.0933 43.298 26.4516 43.2532 26.7877C43.2309 27.1239 43.1861 27.4262 43.1188 27.695C43.0515 27.9638 42.962 28.1653 42.85 28.2997C42.5588 28.6581 42.1556 28.9271 41.6403 29.1062C41.125 29.2856 40.5874 29.4198 40.0273 29.5094V29.8454H50.7801V29.5094C49.8616 29.4645 49.1448 29.2966 48.6295 29.0053C48.1142 28.6917 47.767 28.3892 47.5879 28.098C47.3638 27.7619 47.2407 27.3365 47.2183 26.821C47.1959 26.3058 47.1734 25.6897 47.151 24.9729C47.1286 24.2336 47.1173 23.3263 47.1173 22.251V18.4538C47.4309 18.4762 47.6886 18.4875 47.8902 18.4875C48.1142 18.4875 48.4391 18.5322 48.8647 18.6219C49.4471 18.7339 49.996 19.0139 50.5113 19.462C51.0489 19.91 51.5416 20.3916 51.9898 20.9069C52.5275 21.534 52.9867 22.1053 53.3674 22.6206C53.7706 23.1135 54.1404 23.6062 54.4763 24.0991C54.8125 24.592 55.1373 25.096 55.4509 25.6113C55.787 26.1042 56.1677 26.6642 56.5935 27.2916C56.952 27.8068 57.2095 28.1988 57.3663 28.4676C57.5456 28.7141 57.6911 28.9045 57.8032 29.0389C57.9152 29.1733 58.016 29.2965 58.1055 29.4085C58.1951 29.498 58.3406 29.6437 58.5423 29.8452H65.431L65.4308 29.8456ZM56.0556 11.9019C56.0556 12.5066 55.9772 13.089 55.8205 13.6492C55.6637 14.2092 55.4172 14.7358 55.0811 15.2285C54.7675 15.699 54.353 16.1247 53.8377 16.5053C53.3225 16.8862 52.7064 17.1887 51.9896 17.4126C51.2505 17.659 50.4776 17.8269 49.671 17.9166C48.8869 17.9839 48.0357 18.0173 47.1172 18.0173V11.4648C47.1395 10.4792 47.1619 9.59431 47.1843 8.81021C47.2066 8.29494 47.2179 7.90298 47.2179 7.63416C47.2403 7.34296 47.2516 7.11888 47.2516 6.9621C47.2739 6.80531 47.2963 6.682 47.3189 6.59251C47.3412 6.48047 47.3636 6.35734 47.386 6.22293C47.5428 6.20055 47.7668 6.178 48.058 6.15563C48.3492 6.13326 48.7301 6.12198 49.2004 6.12198C49.8501 6.12198 50.4662 6.178 51.0486 6.29004C51.6535 6.40208 52.2246 6.58123 52.7623 6.82769C53.8376 7.34296 54.6553 8.03739 55.2153 8.91098C55.7753 9.78456 56.0553 10.7815 56.0553 11.9017L56.0556 11.9019Z" fill="white"/>
<path d="M75.9711 29.8461V29.5102C75.5005 29.4652 74.9742 29.3421 74.3918 29.1404C73.8094 28.9389 73.3836 28.6475 73.1148 28.2668C72.9356 28.0204 72.8349 27.5948 72.8123 26.99C72.7899 26.3852 72.7787 25.7579 72.7787 25.1082V12.2049C72.801 11.6449 72.8123 11.0848 72.8123 10.5246C72.8347 10.0094 72.846 9.46062 72.846 8.87823C72.8683 8.29584 72.9804 7.81421 73.1821 7.43335C73.4733 6.8957 73.8876 6.53721 74.4254 6.35805C74.9631 6.17871 75.4671 6.05558 75.9374 5.98847V5.65234H65.8902V5.98847C66.4726 6.05558 66.9879 6.1789 67.4358 6.35805C67.9064 6.51484 68.2983 6.78366 68.6119 7.16452C68.7463 7.32131 68.8471 7.54539 68.9144 7.83658C68.9815 8.10541 69.0262 8.41897 69.0488 8.77747C69.0935 9.11359 69.1159 9.48317 69.1159 9.88641V19.5975C69.1159 20.2696 69.1046 20.9304 69.0822 21.5801C69.0822 22.2074 69.071 22.7898 69.0486 23.3274V24.6042C69.0486 24.9627 69.0373 25.3323 69.0149 25.7132C69.0149 26.0717 68.9926 26.4189 68.9478 26.7548C68.9255 27.0909 68.8805 27.3821 68.8134 27.6284C68.7685 27.8749 68.6903 28.0653 68.5782 28.1997C68.2421 28.5806 67.8278 28.8718 67.3349 29.0733C66.8644 29.275 66.3491 29.4205 65.7891 29.5102V29.8461H75.9707H75.9711Z" fill="white"/>
<path d="M92.5536 29.8453V29.5094C92.6207 29.5094 92.7775 29.4868 93.024 29.4421C93.2928 29.3974 93.5616 29.319 93.8304 29.2069C94.1216 29.0949 94.3681 28.9381 94.5696 28.7364C94.7937 28.5347 94.9057 28.2771 94.9057 27.9636C94.9057 27.7619 94.8384 27.437 94.704 26.989C94.592 26.5185 94.4241 25.9585 94.2 25.3088C93.9759 24.6367 93.7184 23.8974 93.4272 23.0911C93.136 22.2846 92.8224 21.4445 92.4863 20.5709H83.548C83.2121 21.4221 82.8872 22.2399 82.5735 23.024C82.2599 23.7857 81.9462 24.5585 81.6326 25.3426C81.1622 26.5523 80.9269 27.4035 80.9269 27.8965C80.9269 28.1876 81.0166 28.4341 81.1957 28.6356C81.375 28.815 81.5989 28.9717 81.8678 29.1062C82.159 29.2182 82.4613 29.3079 82.775 29.375C83.1111 29.4199 83.4247 29.4647 83.7159 29.5094V29.8453H76.5586V29.4757C77.141 29.4086 77.6339 29.2517 78.0371 29.0052C78.4627 28.7588 78.7092 28.5909 78.7763 28.5012C78.9331 28.3444 79.1908 27.9748 79.5491 27.3923C79.9074 26.8099 80.3443 25.9474 80.8596 24.8048C81.3299 23.7519 81.8565 22.5534 82.4389 21.2093C83.0213 19.8652 83.6149 18.4874 84.2199 17.0762C84.847 15.6424 85.4632 14.2088 86.068 12.775C86.6728 11.3189 87.2441 9.96365 87.7817 8.70902L87.4456 7.96966C87.8488 7.79051 88.2073 7.57771 88.5209 7.33125C88.857 7.0848 89.1482 6.82726 89.3946 6.55843C89.6411 6.28961 89.8426 6.03188 89.9994 5.78542C90.1786 5.53897 90.313 5.33745 90.4026 5.18066H90.6715C91.3659 7.04006 92.0267 8.80978 92.654 10.4898C93.2813 12.1475 93.8748 13.7494 94.435 15.295C95.0174 16.8407 95.5774 18.3416 96.1152 19.7977C96.6529 21.2313 97.1905 22.6538 97.7282 24.0652C97.9746 24.7597 98.1985 25.3421 98.4002 25.8126C98.6241 26.2606 98.8706 26.7759 99.1394 27.3584C99.1842 27.4481 99.2851 27.6049 99.4419 27.829C99.5987 28.053 99.8004 28.2882 100.047 28.5345C100.315 28.7586 100.64 28.9601 101.021 29.1394C101.402 29.3188 101.85 29.4195 102.365 29.4419V29.8451H92.5534L92.5536 29.8453ZM88.1517 9.48221C88.0172 9.77341 87.8157 10.2327 87.5467 10.86C87.3003 11.4873 86.9867 12.2488 86.6058 13.145C86.225 14.0411 85.7994 15.0604 85.3288 16.2028C84.8809 17.3228 84.3879 18.5438 83.8503 19.8656H92.2173C91.8364 18.8576 91.4445 17.8494 91.0412 16.8414C90.6604 15.8334 90.2797 14.8701 89.8988 13.9516C89.5403 13.0108 89.2044 12.1595 88.8907 11.3978C88.5995 10.6137 88.353 9.9753 88.1515 9.48258L88.1517 9.48221Z" fill="white"/>
<path d="M6.48791 37.5869C6.48791 37.2345 6.44187 36.9228 6.34961 36.6517C6.2629 36.3751 6.14347 36.134 5.99168 35.9279C5.84525 35.7164 5.67182 35.5348 5.47122 35.383C5.27062 35.2312 5.05652 35.1064 4.82875 35.009C4.65532 34.933 4.47913 34.8763 4.30016 34.8382C4.12119 34.8003 3.9424 34.7731 3.76343 34.7568C3.58447 34.7406 3.40568 34.7324 3.22671 34.7324H2.70626C2.09909 34.7324 1.58141 34.735 1.15303 34.7406H0.169259V34.8219C0.310141 34.8382 0.437528 34.8654 0.551602 34.9033C0.665492 34.9412 0.762926 35.009 0.844276 35.1066C0.876816 35.1445 0.901221 35.1989 0.917491 35.2693C0.933761 35.3344 0.944484 35.4102 0.950031 35.4971C0.960939 35.5785 0.9663 35.6679 0.9663 35.7654V38.1156C0.9663 38.2783 0.963712 38.4383 0.958165 38.5954C0.958165 38.7472 0.955392 38.8881 0.950031 39.0184V39.3274C0.950031 39.4141 0.947442 39.5036 0.941896 39.5957C0.936534 39.6879 0.928214 39.7746 0.917491 39.856C0.906582 39.9373 0.893086 40.0105 0.876816 40.0756C0.865908 40.1407 0.847049 40.1867 0.819871 40.2139C0.754791 40.2899 0.657172 40.3548 0.527012 40.4092C0.402214 40.4633 0.27224 40.4986 0.136719 40.5149V40.5963H3.10506C3.35447 40.5963 3.61183 40.58 3.87751 40.5474C4.14319 40.5095 4.40074 40.447 4.65015 40.3603C4.89956 40.2736 5.13547 40.157 5.3577 40.0107C5.57994 39.8643 5.77517 39.68 5.94324 39.4577C6.1113 39.2355 6.24404 38.9698 6.34166 38.6607C6.43928 38.3516 6.48809 37.9938 6.48809 37.5872L6.48791 37.5869ZM5.48768 37.6031C5.48768 38.3133 5.34125 38.9125 5.04857 39.4004C4.76126 39.883 4.32493 40.2082 3.7394 40.3762C3.6146 40.4141 3.47908 40.4413 3.33265 40.4576C3.19177 40.4685 3.05347 40.4739 2.91795 40.4739C2.77152 40.4739 2.61437 40.4604 2.44631 40.4332C2.28361 40.4006 2.14809 40.3302 2.03975 40.2219C2.00721 40.1893 1.97744 40.1405 1.95026 40.0754C1.92863 40.005 1.91236 39.929 1.90145 39.8477C1.89054 39.7609 1.87964 39.6742 1.86891 39.5875C1.86355 39.4953 1.86078 39.4113 1.86078 39.3353C1.85542 39.1564 1.85264 38.926 1.85264 38.644V37.6926C1.85264 37.0476 1.85542 36.4918 1.86078 36.0255C1.86614 35.5592 1.88241 35.1933 1.90959 34.9277C1.94767 34.9169 1.9963 34.9086 2.05602 34.9033C2.1211 34.8979 2.18876 34.8923 2.25939 34.887C2.33519 34.8761 2.41118 34.8707 2.48717 34.8707C2.56297 34.8654 2.6336 34.8626 2.69868 34.8626C2.88837 34.8626 3.0483 34.8707 3.17846 34.887C3.30862 34.8979 3.42787 34.914 3.53621 34.9358C3.81816 34.9846 4.07829 35.0929 4.3168 35.261C4.5553 35.4291 4.76145 35.635 4.93487 35.8789C5.10829 36.1174 5.244 36.3859 5.34143 36.6841C5.43905 36.9823 5.48786 37.2887 5.48786 37.603L5.48768 37.6031Z" fill="white"/>
<path d="M6.48791 37.5869C6.48791 37.2345 6.44187 36.9228 6.34961 36.6517C6.2629 36.3751 6.14347 36.134 5.99168 35.9279C5.84525 35.7164 5.67182 35.5348 5.47122 35.383C5.27062 35.2312 5.05652 35.1064 4.82875 35.009C4.65532 34.933 4.47913 34.8763 4.30016 34.8382C4.12119 34.8003 3.9424 34.7733 3.76343 34.7568C3.58447 34.7406 3.40568 34.7324 3.22671 34.7324H2.70626C2.09909 34.7324 1.58141 34.735 1.15303 34.7406H0.169259V34.8219C0.310141 34.8382 0.437528 34.8654 0.551602 34.9033C0.665492 34.9412 0.762926 35.009 0.844276 35.1066C0.876816 35.1445 0.901221 35.1987 0.917491 35.2693C0.933761 35.3344 0.944484 35.4102 0.950031 35.4971C0.960939 35.5785 0.9663 35.6679 0.9663 35.7656V38.1158C0.9663 38.2785 0.963712 38.4383 0.958165 38.5956C0.958165 38.7474 0.955392 38.8885 0.950031 39.0186V39.3278C0.950031 39.4145 0.947442 39.504 0.941896 39.596C0.936534 39.6883 0.928214 39.775 0.917491 39.8563C0.906582 39.9377 0.893086 40.0109 0.876816 40.076C0.865908 40.1411 0.847049 40.1871 0.819871 40.2143C0.754791 40.2901 0.657172 40.3552 0.527012 40.4095C0.402214 40.4637 0.27224 40.499 0.136719 40.5153V40.5966H3.10506C3.35447 40.5966 3.61183 40.5804 3.87751 40.5478C4.14319 40.5097 4.40074 40.4474 4.65015 40.3607C4.89956 40.274 5.13547 40.1573 5.3577 40.0111C5.57994 39.8647 5.77517 39.6803 5.94324 39.4581C6.1113 39.2359 6.24404 38.9702 6.34166 38.6611C6.43928 38.3521 6.48809 37.9942 6.48809 37.5876L6.48791 37.5869ZM5.48768 37.6031C5.48768 38.3133 5.34125 38.9125 5.04857 39.4004C4.76126 39.883 4.32493 40.2082 3.7394 40.3762C3.6146 40.4141 3.47908 40.4413 3.33265 40.4576C3.19177 40.4685 3.05347 40.4739 2.91795 40.4739C2.77152 40.4739 2.61437 40.4604 2.44631 40.4332C2.28361 40.4006 2.14809 40.3302 2.03975 40.2219C2.00721 40.1893 1.97744 40.1405 1.95026 40.0754C1.92863 40.005 1.91236 39.929 1.90145 39.8477C1.89054 39.7609 1.87964 39.6742 1.86891 39.5875C1.86355 39.4954 1.86078 39.4113 1.86078 39.3353C1.85542 39.1564 1.85264 38.926 1.85264 38.644V37.6926C1.85264 37.0476 1.85542 36.4918 1.86078 36.0255C1.86614 35.5592 1.88241 35.1933 1.90959 34.9277C1.94767 34.9168 1.9963 34.9086 2.05602 34.9033C2.1211 34.8979 2.18876 34.8923 2.25939 34.887C2.33519 34.8761 2.41118 34.8707 2.48717 34.8707C2.56297 34.8654 2.6336 34.8626 2.69868 34.8626C2.88837 34.8626 3.0483 34.8707 3.17846 34.887C3.30862 34.8979 3.42787 34.914 3.53621 34.9358C3.81816 34.9846 4.07829 35.0929 4.3168 35.261C4.5553 35.4291 4.76145 35.635 4.93487 35.8791C5.10829 36.1176 5.244 36.386 5.34143 36.6843C5.43905 36.9825 5.48786 37.2887 5.48786 37.6031H5.48768Z" stroke="white" stroke-width="0.277328"/>
<path d="M15.8798 39.0423L15.7903 39.0179C15.6548 39.2511 15.5218 39.4517 15.3917 39.6197C15.2671 39.7824 15.1369 39.9205 15.0014 40.0344C14.8659 40.1483 14.725 40.2378 14.5786 40.3029C14.4321 40.3624 14.2722 40.4031 14.0988 40.4249C13.9416 40.4465 13.7896 40.4602 13.6434 40.4656C13.5025 40.4709 13.3859 40.4737 13.2938 40.4737C13.0769 40.4737 12.8763 40.4575 12.692 40.4249C12.5076 40.3924 12.391 40.3382 12.3424 40.2622C12.2936 40.1862 12.261 40.0723 12.2447 39.9205C12.2338 39.7634 12.2257 39.5979 12.2203 39.4245C12.2203 39.3703 12.2176 39.3052 12.2122 39.2293V38.0012C12.2122 37.855 12.2176 37.7437 12.2285 37.6679H12.6025C12.6567 37.6679 12.7108 37.6705 12.7652 37.676C12.8194 37.676 12.8872 37.6788 12.9686 37.6842C13.1313 37.6951 13.2722 37.7248 13.3914 37.7737C13.5162 37.8225 13.622 37.8848 13.7087 37.9606C13.8063 38.0528 13.8984 38.1911 13.9851 38.3753C14.0771 38.5596 14.145 38.7386 14.1884 38.912H14.2861V36.3504H14.1884C14.1559 36.5022 14.118 36.6405 14.0746 36.7651C14.0367 36.8844 13.9825 36.9901 13.9119 37.0822C13.8468 37.1744 13.7601 37.253 13.6517 37.3181C13.5432 37.3832 13.4077 37.4346 13.2452 37.4725C13.1747 37.4887 13.0852 37.5022 12.9767 37.5131C12.8737 37.5185 12.768 37.5239 12.6594 37.5294C12.5565 37.5348 12.4642 37.5376 12.383 37.5376H12.2203V37.4481C12.2203 37.3993 12.2176 37.3316 12.2122 37.2447V36.3746C12.2122 36.0169 12.215 35.7024 12.2203 35.4313C12.2312 35.1603 12.242 34.9813 12.2529 34.8946C12.307 34.8837 12.3939 34.8756 12.513 34.8702C12.6378 34.8593 12.7569 34.8539 12.8708 34.8539C13.2285 34.8539 13.5321 34.8702 13.7815 34.9027C14.0309 34.9353 14.2018 34.9732 14.2938 35.0166C14.6788 35.2063 15.0909 35.575 15.53 36.1226L15.6113 36.082L15.0583 34.7402H10.5693V34.8216C10.7156 34.8432 10.835 34.8676 10.9271 34.8948C11.0191 34.9164 11.106 34.9708 11.1872 35.0575C11.2197 35.09 11.2441 35.1442 11.2604 35.2202C11.282 35.2906 11.2957 35.372 11.3011 35.4642C11.312 35.5563 11.3174 35.6539 11.3174 35.7569C11.3227 35.8599 11.3255 35.9603 11.3255 36.0579V38.1153C11.3255 38.278 11.3227 38.4379 11.3174 38.5951C11.3174 38.7469 11.3146 38.8878 11.3092 39.0181V39.3271C11.3092 39.4138 11.3066 39.5033 11.3011 39.5953C11.2957 39.682 11.2848 39.7662 11.2685 39.8475C11.2576 39.9289 11.2441 40.0019 11.2279 40.067C11.2116 40.1267 11.19 40.1727 11.1628 40.2053C11.087 40.2922 10.9894 40.3598 10.8701 40.4086C10.7562 40.4575 10.6316 40.4926 10.4961 40.5144V40.5957H15.473L15.8796 39.0425L15.8798 39.0423Z" fill="white"/>
<path d="M15.8798 39.0423L15.7903 39.0179C15.6548 39.2511 15.5218 39.4517 15.3917 39.6197C15.2671 39.7824 15.1369 39.9205 15.0014 40.0344C14.8659 40.1483 14.725 40.2378 14.5786 40.3029C14.4321 40.3624 14.2722 40.4031 14.0988 40.4249C13.9416 40.4465 13.7896 40.4602 13.6434 40.4656C13.5025 40.4709 13.3859 40.4737 13.2938 40.4737C13.0769 40.4737 12.8763 40.4575 12.692 40.4249C12.5076 40.3924 12.391 40.3382 12.3424 40.2622C12.2936 40.1864 12.261 40.0723 12.2447 39.9205C12.2338 39.7634 12.2257 39.5979 12.2203 39.4245C12.2203 39.3703 12.2176 39.3052 12.2122 39.2293V38.0012C12.2122 37.855 12.2176 37.7437 12.2285 37.6679H12.6025C12.6567 37.6679 12.7108 37.6705 12.7652 37.676C12.8194 37.676 12.8872 37.6788 12.9686 37.6842C13.1313 37.6951 13.2722 37.7248 13.3914 37.7737C13.5162 37.8225 13.622 37.8848 13.7087 37.9606C13.8063 38.0528 13.8984 38.1909 13.9851 38.3753C14.0771 38.5596 14.145 38.7386 14.1884 38.912H14.2861V36.3504H14.1884C14.1559 36.5022 14.118 36.6405 14.0746 36.7651C14.0367 36.8844 13.9825 36.9901 13.9119 37.0822C13.8468 37.1744 13.7601 37.253 13.6517 37.3181C13.5432 37.3832 13.4077 37.4346 13.2452 37.4725C13.1747 37.4887 13.0852 37.5022 12.9767 37.5131C12.8737 37.5185 12.768 37.5241 12.6594 37.5294C12.5565 37.5348 12.4642 37.5376 12.383 37.5376H12.2203V37.4481C12.2203 37.3993 12.2176 37.3316 12.2122 37.2447V36.3746C12.2122 36.0169 12.215 35.7024 12.2203 35.4313C12.2312 35.1603 12.242 34.9813 12.2529 34.8946C12.307 34.8837 12.3939 34.8756 12.513 34.8702C12.6378 34.8593 12.7569 34.8539 12.8708 34.8539C13.2285 34.8539 13.5321 34.8702 13.7815 34.9027C14.0309 34.9353 14.2018 34.9732 14.2938 35.0166C14.6788 35.2063 15.0909 35.575 15.53 36.1226L15.6113 36.082L15.0583 34.7402H10.5693V34.8216C10.7156 34.8432 10.835 34.8676 10.9271 34.8948C11.0191 34.9164 11.106 34.9706 11.1872 35.0575C11.2197 35.09 11.2441 35.1442 11.2604 35.2202C11.282 35.2906 11.2957 35.372 11.3011 35.4642C11.312 35.5563 11.3174 35.6539 11.3174 35.7569C11.3227 35.8599 11.3255 35.9603 11.3255 36.0579V38.1153C11.3255 38.278 11.3227 38.4378 11.3174 38.5951C11.3174 38.7469 11.3146 38.888 11.3092 39.0181V39.3272C11.3092 39.414 11.3066 39.5034 11.3011 39.5955C11.2957 39.6822 11.2848 39.7663 11.2685 39.8477C11.2576 39.929 11.2441 40.0021 11.2279 40.0673C11.2116 40.1271 11.19 40.1731 11.1628 40.2056C11.087 40.2925 10.9894 40.3602 10.8701 40.409C10.7562 40.4578 10.6316 40.493 10.4961 40.5148V40.5961H15.473L15.8796 39.0429L15.8798 39.0423Z" stroke="white" stroke-width="0.277328"/>
<path d="M25.0815 34.8297V34.7402H23.1868V34.8216C23.2572 34.8269 23.336 34.8406 23.4227 34.8623C23.5148 34.8785 23.6017 34.9057 23.6828 34.9436C23.7642 34.9761 23.8318 35.0196 23.8862 35.0738C23.9404 35.1279 23.9675 35.1958 23.9675 35.2771C23.9675 35.3369 23.9513 35.4452 23.9187 35.6024C23.8862 35.7541 23.8158 35.9792 23.7074 36.2774C23.561 36.6677 23.4201 37.0417 23.2844 37.3996C23.1489 37.7574 23.0241 38.0772 22.9104 38.3592C22.8018 38.6411 22.7098 38.8769 22.6338 39.0666C22.5633 39.2564 22.5145 39.381 22.4874 39.4408C22.4278 39.2781 22.3465 39.0693 22.2435 38.8146C22.1405 38.5598 22.0294 38.286 21.9101 37.9933C21.7963 37.6951 21.6796 37.3943 21.5605 37.0905C21.4413 36.7816 21.3327 36.4996 21.2353 36.2448C21.143 35.9845 21.0672 35.7651 21.0075 35.5861C20.9478 35.4018 20.918 35.2853 20.918 35.2365C20.918 35.1551 20.9452 35.0875 20.9994 35.0331C21.0591 34.9789 21.1242 34.9382 21.1946 34.9111C21.2704 34.8785 21.3437 34.8569 21.4141 34.846C21.4845 34.8351 21.5333 34.8269 21.5605 34.8216V34.7402H19.1289V34.8297C19.2537 34.8351 19.3567 34.8567 19.438 34.8948C19.5194 34.9273 19.5871 34.968 19.6414 35.0168C19.7011 35.0656 19.7472 35.1144 19.7797 35.1631C19.8122 35.2119 19.8366 35.2526 19.8529 35.2851C19.8855 35.3502 19.9154 35.4125 19.9424 35.472C19.9749 35.5317 20.0047 35.594 20.0319 35.6591C20.0644 35.7242 20.097 35.7946 20.1295 35.8706C20.162 35.9466 20.1972 36.0359 20.2353 36.1391C20.3708 36.4859 20.5063 36.833 20.6418 37.18C20.7773 37.5215 20.9182 37.8766 21.0647 38.2453C21.2111 38.614 21.3601 38.9989 21.5119 39.4001C21.6691 39.7959 21.8371 40.2134 22.0161 40.6525H22.1137L22.5121 39.8392C22.6314 39.5303 22.7562 39.2049 22.8863 38.8634C23.0219 38.5163 23.1574 38.1721 23.2929 37.8306C23.4284 37.4891 23.5614 37.1584 23.6913 36.8385C23.8215 36.5133 23.9407 36.2204 24.0491 35.9603C24.1142 35.8031 24.1711 35.673 24.2199 35.57C24.2741 35.467 24.3201 35.3829 24.3582 35.3178C24.3961 35.2474 24.4287 35.1958 24.4558 35.1633C24.4884 35.1254 24.5128 35.0982 24.529 35.0819C24.5453 35.0603 24.6048 35.0168 24.708 34.9519C24.8164 34.8869 24.9412 34.8462 25.082 34.8299L25.0815 34.8297Z" fill="white"/>
<path d="M25.0815 34.8297V34.7402H23.1868V34.8216C23.2572 34.8269 23.336 34.8406 23.4227 34.8623C23.5148 34.8785 23.6017 34.9057 23.6828 34.9436C23.7642 34.9761 23.8318 35.0196 23.8862 35.0738C23.9404 35.1279 23.9675 35.1958 23.9675 35.2771C23.9675 35.3369 23.9513 35.4452 23.9187 35.6024C23.8862 35.7541 23.8158 35.9792 23.7074 36.2774C23.561 36.6677 23.4201 37.0417 23.2844 37.3996C23.1489 37.7574 23.0241 38.0772 22.9104 38.3592C22.8018 38.6411 22.7098 38.8769 22.6338 39.0667C22.5633 39.2566 22.5145 39.3812 22.4874 39.4408C22.4278 39.2781 22.3465 39.0693 22.2435 38.8146C22.1405 38.5596 22.0294 38.286 21.9101 37.9931C21.7963 37.6949 21.6796 37.3941 21.5605 37.0905C21.4413 36.7814 21.3327 36.4996 21.2353 36.2448C21.143 35.9845 21.0672 35.7651 21.0075 35.5861C20.9478 35.4018 20.918 35.2853 20.918 35.2365C20.918 35.1551 20.9452 35.0875 20.9994 35.0331C21.0591 34.9789 21.1242 34.9382 21.1946 34.9111C21.2704 34.8785 21.3437 34.8569 21.4141 34.846C21.4845 34.8351 21.5333 34.8269 21.5605 34.8216V34.7402H19.1289V34.8297C19.2537 34.8351 19.3567 34.8569 19.438 34.8948C19.5194 34.9273 19.5871 34.968 19.6414 35.0168C19.7011 35.0656 19.7472 35.1144 19.7797 35.1631C19.8122 35.2119 19.8366 35.2526 19.8529 35.2851C19.8855 35.35 19.9154 35.4125 19.9424 35.472C19.9749 35.5317 20.0047 35.594 20.0319 35.6591C20.0644 35.7242 20.097 35.7946 20.1295 35.8706C20.162 35.9466 20.1972 36.0359 20.2353 36.1389C20.3708 36.4859 20.5063 36.8328 20.6418 37.1798C20.7773 37.5213 20.9182 37.8765 21.0647 38.2451C21.2111 38.6138 21.3601 38.9987 21.5119 39.3999C21.6691 39.7957 21.8371 40.2132 22.0161 40.6523H22.1137L22.5121 39.839C22.6314 39.5301 22.7562 39.2047 22.8863 38.8632C23.0219 38.5162 23.1574 38.1719 23.2929 37.8304C23.4284 37.4889 23.5614 37.1582 23.6913 36.8383C23.8215 36.5131 23.9407 36.2202 24.0491 35.9601C24.1142 35.803 24.1711 35.6728 24.2199 35.5698C24.2741 35.4668 24.3201 35.3827 24.3582 35.3176C24.3961 35.2472 24.4287 35.1956 24.4558 35.1631C24.4884 35.1252 24.5128 35.098 24.529 35.0817C24.5453 35.0601 24.6048 35.0166 24.708 34.9517C24.8164 34.8867 24.9412 34.846 25.082 34.8297H25.0815Z" stroke="white" stroke-width="0.277328"/>
<path d="M33.954 39.0423L33.8645 39.0179C33.729 39.2511 33.5962 39.4517 33.4661 39.6197C33.3413 39.7824 33.2113 39.9205 33.0758 40.0344C32.9403 40.1483 32.7994 40.2378 32.653 40.3029C32.5065 40.3624 32.3466 40.4031 32.1732 40.4249C32.016 40.4465 31.8642 40.4602 31.7178 40.4656C31.5769 40.4709 31.4603 40.4737 31.3682 40.4737C31.1513 40.4737 30.9507 40.4575 30.7664 40.4249C30.5821 40.3924 30.4656 40.3382 30.4168 40.2622C30.368 40.1862 30.3354 40.0723 30.3191 39.9205C30.3082 39.7634 30.3001 39.5979 30.2947 39.4245C30.2947 39.3703 30.292 39.3052 30.2866 39.2293V38.0012C30.2866 37.855 30.292 37.7437 30.3029 37.6679H30.6769C30.7311 37.6679 30.7852 37.6705 30.8396 37.676C30.8938 37.676 30.9616 37.6788 31.043 37.6842C31.2057 37.6951 31.3466 37.7248 31.4658 37.7737C31.5906 37.8225 31.6962 37.8848 31.7829 37.9606C31.8805 38.0528 31.9726 38.1911 32.0595 38.3753C32.1515 38.5596 32.2194 38.7386 32.2628 38.912H32.3605V36.3504H32.2628C32.2303 36.5022 32.1924 36.6405 32.149 36.7651C32.1111 36.8844 32.0567 36.9901 31.9863 37.0822C31.9212 37.1744 31.8345 37.253 31.7259 37.3181C31.6176 37.3832 31.4819 37.4346 31.3194 37.4725C31.2489 37.4887 31.1595 37.5022 31.0509 37.5131C30.9479 37.5185 30.8422 37.5239 30.7338 37.5294C30.6309 37.5348 30.5386 37.5376 30.4573 37.5376H30.2946V37.4481C30.2946 37.3993 30.2918 37.3316 30.2864 37.2447V36.3746C30.2864 36.0169 30.2892 35.7024 30.2946 35.4313C30.3055 35.1603 30.3164 34.9813 30.3271 34.8946C30.3813 34.8837 30.468 34.8756 30.5874 34.8702C30.7122 34.8593 30.8313 34.8539 30.9452 34.8539C31.3029 34.8539 31.6065 34.8702 31.8559 34.9027C32.1053 34.9353 32.2762 34.9732 32.3682 35.0166C32.7532 35.2063 33.1651 35.575 33.6042 36.1226L33.6855 36.082L33.1325 34.7402H28.6435V34.8216C28.79 34.8432 28.9092 34.8676 29.0013 34.8948C29.0934 34.9164 29.1803 34.9708 29.2614 35.0575C29.294 35.09 29.3184 35.1442 29.3346 35.2202C29.3564 35.2906 29.3699 35.372 29.3753 35.4642C29.3862 35.5563 29.3916 35.6539 29.3916 35.7569C29.3969 35.8599 29.3997 35.9603 29.3997 36.0579V38.1153C29.3997 38.278 29.3969 38.4379 29.3916 38.5951C29.3916 38.7469 29.3888 38.8878 29.3834 39.0181V39.3271C29.3834 39.4138 29.3807 39.5033 29.3753 39.5953C29.3699 39.682 29.359 39.7662 29.3428 39.8475C29.3319 39.9289 29.3184 40.0019 29.3021 40.067C29.2858 40.1267 29.2642 40.1727 29.237 40.2053C29.1612 40.2922 29.0636 40.3598 28.9443 40.4086C28.8304 40.4575 28.7058 40.4926 28.5703 40.5144V40.5957H33.5472L33.9538 39.0425L33.954 39.0423Z" fill="white"/>
<path d="M33.954 39.0423L33.8645 39.0179C33.729 39.2511 33.5962 39.4517 33.4661 39.6197C33.3413 39.7824 33.2113 39.9205 33.0758 40.0344C32.9403 40.1483 32.7994 40.2378 32.653 40.3029C32.5065 40.3624 32.3466 40.4031 32.1732 40.4249C32.016 40.4465 31.8642 40.4602 31.7178 40.4656C31.5769 40.4709 31.4603 40.4737 31.3682 40.4737C31.1513 40.4737 30.9507 40.4575 30.7664 40.4249C30.5821 40.3924 30.4656 40.3382 30.4168 40.2622C30.368 40.1864 30.3354 40.0723 30.3191 39.9205C30.3082 39.7634 30.3001 39.5979 30.2947 39.4245C30.2947 39.3703 30.292 39.3052 30.2866 39.2293V38.0012C30.2866 37.855 30.292 37.7437 30.3029 37.6679H30.6769C30.7311 37.6679 30.7852 37.6705 30.8396 37.676C30.8938 37.676 30.9616 37.6788 31.043 37.6842C31.2057 37.6951 31.3466 37.7248 31.4658 37.7737C31.5906 37.8225 31.6962 37.8848 31.7829 37.9606C31.8805 38.0528 31.9726 38.1909 32.0595 38.3753C32.1515 38.5596 32.2194 38.7386 32.2628 38.912H32.3605V36.3504H32.2628C32.2303 36.5022 32.1924 36.6405 32.149 36.7651C32.1111 36.8844 32.0567 36.9901 31.9863 37.0822C31.9212 37.1744 31.8345 37.253 31.7259 37.3181C31.6176 37.3832 31.4819 37.4346 31.3194 37.4725C31.2489 37.4887 31.1595 37.5022 31.0509 37.5131C30.9479 37.5185 30.8422 37.5241 30.7338 37.5294C30.6309 37.5348 30.5386 37.5376 30.4573 37.5376H30.2946V37.4481C30.2946 37.3993 30.2918 37.3316 30.2864 37.2447V36.3746C30.2864 36.0169 30.2892 35.7024 30.2946 35.4313C30.3055 35.1603 30.3164 34.9813 30.3271 34.8946C30.3813 34.8837 30.468 34.8756 30.5874 34.8702C30.7122 34.8593 30.8313 34.8539 30.9452 34.8539C31.3029 34.8539 31.6065 34.8702 31.8559 34.9027C32.1053 34.9353 32.2762 34.9732 32.3682 35.0166C32.7532 35.2063 33.1651 35.575 33.6042 36.1226L33.6855 36.082L33.1325 34.7402H28.6435V34.8216C28.79 34.8432 28.9092 34.8676 29.0013 34.8948C29.0934 34.9164 29.1803 34.9706 29.2614 35.0575C29.294 35.09 29.3184 35.1442 29.3346 35.2202C29.3564 35.2906 29.3699 35.372 29.3753 35.4642C29.3862 35.5563 29.3916 35.6539 29.3916 35.7569C29.3969 35.8599 29.3997 35.9603 29.3997 36.0579V38.1153C29.3997 38.278 29.3969 38.4378 29.3916 38.5951C29.3916 38.7469 29.3888 38.888 29.3834 39.0181V39.3272C29.3834 39.414 29.3807 39.5034 29.3753 39.5955C29.3699 39.6822 29.359 39.7663 29.3428 39.8477C29.3319 39.929 29.3184 40.0021 29.3021 40.0673C29.2858 40.1271 29.2642 40.1731 29.237 40.2056C29.1612 40.2925 29.0636 40.3602 28.9443 40.409C28.8304 40.4578 28.7058 40.493 28.5703 40.5148V40.5961H33.5472L33.9538 39.0429L33.954 39.0423Z" stroke="white" stroke-width="0.277328"/>
<path d="M43.2445 38.9203L43.1631 38.8959C43.098 39.0586 43.0302 39.2158 42.9597 39.3676C42.8893 39.5138 42.8026 39.6521 42.6994 39.7822C42.5964 39.907 42.4716 40.0182 42.3254 40.1156C42.1843 40.2132 42.0055 40.2918 41.7887 40.3513C41.6964 40.3785 41.5908 40.4001 41.4714 40.4164C41.3521 40.4327 41.2357 40.4462 41.1218 40.4571C41.0079 40.4624 40.9021 40.468 40.8045 40.4734H40.6011C40.4928 40.4734 40.3843 40.468 40.2759 40.4571C40.1676 40.4408 40.0672 40.4245 39.9751 40.4083C39.883 40.3866 39.8043 40.3621 39.7392 40.3351C39.6741 40.3081 39.6309 40.2809 39.609 40.2537C39.5602 40.1779 39.5305 40.0612 39.5196 39.9041C39.5142 39.7469 39.5087 39.5815 39.5033 39.408C39.5033 39.2237 39.5005 39.0584 39.4952 38.912V36.5211C39.5005 36.3693 39.5033 36.2147 39.5033 36.0575C39.5087 35.9004 39.5142 35.7268 39.5196 35.5371C39.5249 35.3907 39.5575 35.2742 39.6172 35.1875C39.6823 35.0954 39.7581 35.0248 39.845 34.9761C39.9317 34.9273 40.0239 34.892 40.1215 34.8704C40.2192 34.8488 40.3031 34.8325 40.3735 34.8216V34.7402H37.7794V34.8216C37.9203 34.8379 38.0532 34.8704 38.178 34.9192C38.3082 34.968 38.4112 35.0385 38.487 35.1307C38.5195 35.1686 38.5439 35.2202 38.5602 35.2853C38.5765 35.3504 38.5874 35.4262 38.5927 35.5129C38.6036 35.5942 38.609 35.6837 38.609 35.7813V38.1153C38.609 38.278 38.6062 38.4379 38.6009 38.5951C38.6009 38.7469 38.5983 38.8878 38.5927 39.0181V39.3271C38.5927 39.4138 38.5874 39.5033 38.5765 39.5953C38.5711 39.682 38.563 39.7662 38.5521 39.8475C38.5411 39.9289 38.5251 40.0019 38.5032 40.067C38.487 40.1267 38.4652 40.1727 38.4382 40.2053C38.3624 40.2922 38.2566 40.3598 38.1211 40.4086C37.9909 40.4575 37.8582 40.4926 37.7227 40.5144V40.5957H42.9435L43.2445 38.9205V38.9203Z" fill="white"/>
<path d="M43.2445 38.9201L43.1631 38.8957C43.098 39.0584 43.0302 39.2156 42.9597 39.3674C42.8893 39.5138 42.8026 39.6521 42.6994 39.7821C42.5964 39.9069 42.4716 40.018 42.3254 40.1156C42.1843 40.2132 42.0055 40.2918 41.7887 40.3513C41.6964 40.3785 41.5908 40.4001 41.4714 40.4164C41.3521 40.4327 41.2357 40.4462 41.1218 40.4571C41.0079 40.4624 40.9021 40.468 40.8045 40.4734H40.6011C40.4928 40.4734 40.3843 40.468 40.2759 40.4571C40.1676 40.4408 40.0672 40.4245 39.9751 40.4083C39.883 40.3865 39.8043 40.3621 39.7392 40.3351C39.6741 40.3081 39.6309 40.2809 39.609 40.2537C39.5602 40.1777 39.5305 40.0612 39.5196 39.9041C39.5142 39.7469 39.5087 39.5815 39.5033 39.408C39.5033 39.2237 39.5005 39.0584 39.4952 38.912V36.5211C39.5005 36.3693 39.5033 36.2147 39.5033 36.0575C39.5087 35.9004 39.5142 35.7268 39.5196 35.5371C39.5249 35.3907 39.5575 35.2742 39.6172 35.1875C39.6823 35.0952 39.7581 35.0248 39.845 34.9761C39.9317 34.9273 40.0239 34.892 40.1215 34.8704C40.2192 34.8488 40.3031 34.8323 40.3735 34.8216V34.7402H37.7794V34.8216C37.9203 34.8379 38.0532 34.8704 38.178 34.9192C38.3082 34.968 38.4112 35.0385 38.487 35.1307C38.5195 35.1688 38.5439 35.2202 38.5602 35.2853C38.5765 35.3502 38.5874 35.4262 38.5927 35.5129C38.6036 35.5942 38.609 35.6837 38.609 35.7813V38.1153C38.609 38.278 38.6062 38.4378 38.6009 38.5951C38.6009 38.7469 38.5983 38.888 38.5927 39.0181V39.3272C38.5927 39.414 38.5874 39.5034 38.5765 39.5955C38.5711 39.6822 38.563 39.7663 38.5521 39.8477C38.5411 39.929 38.5251 40.0021 38.5032 40.0673C38.487 40.1271 38.4652 40.1731 38.4382 40.2056C38.3624 40.2925 38.2566 40.3602 38.1211 40.409C37.9909 40.4578 37.8582 40.493 37.7227 40.5148V40.5961H42.9435L43.2445 38.9209V38.9201Z" stroke="white" stroke-width="0.277328"/>
<path d="M52.9783 37.6273C52.9783 37.237 52.9106 36.8628 52.7749 36.5051C52.6394 36.1473 52.4442 35.8328 52.1894 35.5618C51.9344 35.2854 51.6227 35.0657 51.254 34.903C50.8907 34.7403 50.4788 34.6592 50.0179 34.6592C49.5951 34.6592 49.1911 34.7296 48.8062 34.8707C48.4268 35.0062 48.0932 35.204 47.8059 35.4644C47.524 35.7191 47.299 36.0336 47.1309 36.4076C46.9628 36.7763 46.8789 37.1938 46.8789 37.6599C46.8789 38.099 46.9575 38.503 47.1146 38.8716C47.2773 39.2347 47.4968 39.5492 47.7734 39.8149C48.0498 40.075 48.3724 40.2784 48.7411 40.4248C49.1097 40.5657 49.5 40.6362 49.9121 40.6362C50.3243 40.6362 50.7227 40.5629 51.0913 40.4165C51.4654 40.2701 51.7908 40.0614 52.0672 39.7903C52.3491 39.5193 52.5714 39.1994 52.7341 38.8308C52.8968 38.4621 52.9781 38.0609 52.9781 37.6271L52.9783 37.6273ZM51.9699 37.6355C51.9699 37.9771 51.9267 38.3186 51.8398 38.6601C51.7584 39.0016 51.6336 39.3107 51.4655 39.5873C51.2975 39.8583 51.086 40.0806 50.8312 40.2542C50.5818 40.4276 50.2863 40.5143 49.9449 40.5143C49.6034 40.5143 49.3024 40.4357 49.0423 40.2786C48.7875 40.1214 48.5732 39.9127 48.3998 39.6524C48.2317 39.3921 48.1043 39.0913 48.0176 38.7498C47.9309 38.4083 47.8875 38.0531 47.8875 37.6845C47.8875 37.3158 47.9254 36.985 48.0014 36.6436C48.0827 36.2965 48.2047 35.9876 48.3672 35.7165C48.5353 35.4455 48.7468 35.2259 49.0016 35.058C49.2617 34.8844 49.5681 34.7977 49.9205 34.7977C50.2729 34.7977 50.5683 34.8844 50.8231 35.058C51.0778 35.226 51.2894 35.4483 51.4574 35.7249C51.631 35.9959 51.7584 36.2995 51.8398 36.6356C51.9265 36.9717 51.9699 37.3051 51.9699 37.6358V37.6355Z" fill="white"/>
<path d="M52.9783 37.6273C52.9783 37.237 52.9106 36.8628 52.7749 36.5051C52.6394 36.1473 52.4442 35.8328 52.1894 35.5618C51.9344 35.2854 51.6227 35.0657 51.254 34.903C50.8907 34.7403 50.4788 34.6592 50.0179 34.6592C49.5951 34.6592 49.1911 34.7296 48.8062 34.8707C48.4268 35.0062 48.0932 35.204 47.8059 35.4644C47.524 35.7191 47.299 36.0336 47.1309 36.4076C46.9628 36.7763 46.8789 37.1938 46.8789 37.6599C46.8789 38.099 46.9575 38.503 47.1146 38.8716C47.2773 39.2349 47.4968 39.5492 47.7734 39.8149C48.0498 40.075 48.3724 40.2784 48.7411 40.4248C49.1097 40.5657 49.5 40.6362 49.9121 40.6362C50.3243 40.6362 50.7227 40.5629 51.0913 40.4167C51.4654 40.2703 51.7908 40.0615 52.0672 39.7905C52.3491 39.5193 52.5714 39.1994 52.7341 38.8309C52.8968 38.4623 52.9781 38.0611 52.9781 37.6273H52.9783ZM51.9699 37.6355C51.9699 37.9771 51.9267 38.3186 51.8398 38.6601C51.7584 39.0016 51.6336 39.3107 51.4656 39.5871C51.2975 39.8582 51.086 40.0804 50.8312 40.254C50.5818 40.4274 50.2863 40.5141 49.9449 40.5141C49.6034 40.5141 49.3024 40.4356 49.0423 40.2784C48.7875 40.1213 48.5732 39.9125 48.3998 39.6522C48.2317 39.3919 48.1043 39.0911 48.0176 38.7496C47.9309 38.4081 47.8875 38.0529 47.8875 37.6843C47.8875 37.3156 47.9254 36.9849 48.0014 36.6434C48.0827 36.2963 48.2047 35.9874 48.3672 35.7162C48.5353 35.4451 48.7468 35.2257 49.0016 35.0576C49.2617 34.884 49.5681 34.7973 49.9205 34.7973C50.2729 34.7973 50.5683 34.884 50.8231 35.0576C51.0778 35.2257 51.2894 35.4479 51.4574 35.7245C51.631 35.9955 51.7584 36.2991 51.8398 36.6352C51.9265 36.9714 51.9699 37.3049 51.9699 37.6355Z" stroke="white" stroke-width="0.277328"/>
<path d="M61.8243 36.4314C61.8243 36.1062 61.7457 35.8243 61.5884 35.5858C61.4312 35.3473 61.2332 35.1627 60.9947 35.0328C60.7507 34.8972 60.4905 34.8131 60.214 34.7806C59.9376 34.7427 59.6205 34.7236 59.2625 34.7236H58.8966C58.7556 34.7236 58.6038 34.7264 58.4413 34.7318H57.9615C57.7988 34.7318 57.647 34.7344 57.5061 34.7399H56.9531V34.8213C57.0996 34.8429 57.2351 34.8701 57.3597 34.9026C57.4898 34.9298 57.5956 34.9867 57.677 35.0734C57.7095 35.106 57.7339 35.1601 57.7502 35.2361C57.7718 35.3066 57.7855 35.3879 57.7908 35.4802C57.8018 35.5669 57.8071 35.6617 57.8071 35.7647C57.8127 35.8623 57.8152 35.96 57.8152 36.0576V38.115C57.8152 38.2777 57.8127 38.4376 57.8071 38.5948C57.8071 38.7466 57.8045 38.8874 57.799 39.0178V39.3267C57.799 39.4134 57.7962 39.5029 57.7908 39.595C57.7855 39.6873 57.7773 39.774 57.7664 39.8553C57.7611 39.9367 57.7502 40.0099 57.7339 40.075C57.7176 40.14 57.696 40.1889 57.6688 40.2214C57.5984 40.3081 57.5008 40.3732 57.3761 40.4166C57.2513 40.4601 57.1214 40.4926 56.9859 40.5143V40.5956H59.5881V40.5143C59.3659 40.5033 59.1923 40.4627 59.0677 40.3922C58.9429 40.3218 58.8589 40.2513 58.8155 40.1809C58.7613 40.0996 58.7314 39.9966 58.726 39.872C58.7206 39.7472 58.7151 39.5981 58.7097 39.4247C58.7097 39.3325 58.7071 39.2485 58.7016 39.1725V38.1479H59.1407C59.3088 38.1479 59.4796 38.1425 59.653 38.1316C59.8318 38.1154 60.0082 38.0937 60.1816 38.0666C60.355 38.0396 60.5177 37.9989 60.6695 37.9445C60.8159 37.8904 60.9596 37.8199 61.1005 37.7332C61.2414 37.6409 61.3634 37.5326 61.4664 37.408C61.5747 37.2832 61.6616 37.1395 61.7267 36.977C61.7918 36.8143 61.8243 36.6328 61.8243 36.4322V36.4314ZM60.9459 36.3907C60.9459 36.7324 60.8537 37.0414 60.6693 37.3179C60.485 37.589 60.2193 37.7842 59.8725 37.9035C59.7044 37.9632 59.5227 38.0011 59.3276 38.0174C59.1324 38.0283 58.9236 38.0336 58.7014 38.0336V36.1957C58.7068 35.9246 58.7123 35.6941 58.7177 35.5044C58.723 35.3796 58.7286 35.2848 58.7339 35.2197C58.7393 35.1492 58.7449 35.0949 58.7502 35.057C58.7556 35.0191 58.7611 34.9891 58.7665 34.9675C58.7774 34.9405 58.7855 34.9106 58.7909 34.878C58.8288 34.8727 58.8776 34.8671 58.9373 34.8617C59.0024 34.8508 59.0917 34.8455 59.2056 34.8455C59.3627 34.8455 59.5147 34.8564 59.661 34.878C59.8072 34.8998 59.9455 34.9405 60.0757 35C60.336 35.1248 60.5447 35.3092 60.7019 35.553C60.8646 35.7971 60.9457 36.0763 60.9457 36.3906L60.9459 36.3907Z" fill="white"/>
<path d="M61.8243 36.4314C61.8243 36.1062 61.7457 35.8243 61.5884 35.5858C61.4312 35.3473 61.2332 35.1627 60.9947 35.0328C60.7507 34.8972 60.4905 34.8131 60.214 34.7806C59.9376 34.7427 59.6205 34.7236 59.2625 34.7236H58.8966C58.7556 34.7236 58.6038 34.7264 58.4413 34.7318H57.9615C57.7988 34.7318 57.647 34.7344 57.5061 34.7399H56.9531V34.8213C57.0996 34.8429 57.2351 34.8701 57.3597 34.9026C57.4898 34.9298 57.5956 34.9867 57.677 35.0734C57.7095 35.106 57.7339 35.1601 57.7502 35.2361C57.7718 35.3066 57.7855 35.3879 57.7908 35.48C57.8018 35.5667 57.8071 35.6616 57.8071 35.7647C57.8127 35.8623 57.8152 35.9598 57.8152 36.0576V38.115C57.8152 38.2777 57.8127 38.4374 57.8071 38.5948C57.8071 38.7466 57.8045 38.8876 57.799 39.0178V39.3269C57.799 39.4136 57.7962 39.5031 57.7908 39.5952C57.7855 39.6874 57.7773 39.7742 57.7664 39.8555C57.7611 39.9369 57.7502 40.0101 57.7339 40.0751C57.7176 40.1402 57.696 40.189 57.6688 40.2216C57.5984 40.3083 57.5008 40.3734 57.3761 40.4166C57.2513 40.4601 57.1214 40.4924 56.9859 40.5143V40.5956H59.5881V40.5143C59.3659 40.5033 59.1923 40.4627 59.0677 40.3922C58.9429 40.3218 58.8589 40.2513 58.8155 40.1809C58.7613 40.0996 58.7314 39.9966 58.726 39.8718C58.7206 39.747 58.7151 39.598 58.7097 39.4245C58.7097 39.3323 58.7071 39.2483 58.7016 39.1723V38.1477H59.1407C59.3088 38.1477 59.4796 38.1424 59.653 38.1314C59.8318 38.1152 60.0082 38.0935 60.1816 38.0664C60.355 38.0392 60.5177 37.9985 60.6695 37.9443C60.8159 37.8902 60.9596 37.8197 61.1005 37.733C61.2414 37.6408 61.3634 37.5324 61.4664 37.4078C61.5747 37.283 61.6616 37.1393 61.7267 36.9768C61.7918 36.8141 61.8243 36.6326 61.8243 36.432V36.4314ZM60.9459 36.3907C60.9459 36.7324 60.8537 37.0414 60.6693 37.3179C60.485 37.589 60.2193 37.7842 59.8725 37.9035C59.7044 37.9632 59.5227 38.0011 59.3276 38.0174C59.1324 38.0283 58.9236 38.0336 58.7014 38.0336V36.1957C58.7068 35.9246 58.7123 35.6943 58.7177 35.5044C58.723 35.3796 58.7286 35.2848 58.7339 35.2199C58.7393 35.1494 58.7449 35.0951 58.7502 35.0572C58.7556 35.0193 58.7611 34.9893 58.7665 34.9677C58.7774 34.9405 58.7855 34.9107 58.7909 34.8782C58.8288 34.8728 58.8776 34.8673 58.9373 34.8619C59.0024 34.851 59.0917 34.8457 59.2056 34.8457C59.3627 34.8457 59.5147 34.8566 59.661 34.8782C59.8072 34.9 59.9455 34.9407 60.0757 35.0002C60.336 35.125 60.5447 35.3092 60.7019 35.5532C60.8646 35.7973 60.9457 36.0764 60.9457 36.3907H60.9459Z" stroke="white" stroke-width="0.277328"/>
<path d="M73.2164 40.5948V40.5134C73.0862 40.5081 72.9723 40.489 72.8749 40.4565C72.7773 40.4186 72.6959 40.3779 72.6308 40.3345C72.5658 40.2856 72.5144 40.2424 72.4765 40.2043C72.4439 40.161 72.4251 40.1338 72.4195 40.1229C72.387 40.0634 72.3626 39.9821 72.3463 39.8791C72.3354 39.7707 72.33 39.665 72.33 39.562C72.3247 39.2421 72.3219 38.9386 72.3219 38.6513V37.0329C72.3219 36.7889 72.3247 36.5369 72.33 36.2766C72.3354 36.0869 72.3435 35.8944 72.3544 35.6992C72.3653 35.5039 72.387 35.3603 72.4195 35.2682C72.4628 35.149 72.5415 35.046 72.6553 34.9591C72.7745 34.8724 72.9453 34.8263 73.1676 34.8208V34.7394H71.4354C71.4191 34.7829 71.3513 34.9428 71.232 35.2192C71.1181 35.4903 70.9691 35.8317 70.7848 36.2439C70.6058 36.6558 70.4026 37.1167 70.1748 37.6262C69.9472 38.1358 69.7141 38.6481 69.4756 39.1632L67.5321 34.7393H65.7999V34.8206C65.865 34.8315 65.9435 34.8504 66.0356 34.8776C66.1279 34.8994 66.2146 34.9373 66.2959 34.9914C66.3773 35.0456 66.4477 35.1214 66.5072 35.2192C66.567 35.3115 66.5995 35.4333 66.6049 35.5851C66.6102 35.7423 66.613 35.8752 66.613 35.9835V37.0082C66.613 37.3715 66.6102 37.713 66.6049 38.0328C66.5995 38.3473 66.5914 38.6211 66.5805 38.8543C66.5751 39.1307 66.5561 39.3666 66.5235 39.5618C66.491 39.7515 66.4396 39.9114 66.3691 40.0416C66.2987 40.1718 66.2037 40.2747 66.0846 40.3505C65.9653 40.421 65.8108 40.4753 65.6211 40.5132V40.5946H67.7436V40.5132C67.5104 40.4807 67.3261 40.4293 67.1906 40.3589C67.0604 40.2829 66.9628 40.1827 66.8977 40.058C66.8326 39.9279 66.792 39.7707 66.7757 39.5864C66.7594 39.3965 66.7513 39.1743 66.7513 38.9195V37.0329C66.7567 36.7619 66.7594 36.4909 66.7594 36.2198C66.7648 35.9432 66.7676 35.6262 66.7676 35.2684C66.7947 35.3281 66.8436 35.4418 66.914 35.6101C66.99 35.7781 67.0848 35.9869 67.1987 36.2363C67.3126 36.4857 67.44 36.7702 67.5811 37.0901C67.7219 37.4099 67.8737 37.7542 68.0364 38.1228C68.1991 38.4862 68.3644 38.8657 68.5325 39.2614C68.7059 39.6572 68.8795 40.0556 69.0529 40.4568H69.1018C69.1127 40.4243 69.1396 40.3592 69.1831 40.2618C69.2265 40.1588 69.2726 40.0477 69.3214 39.9283C69.3702 39.8035 69.419 39.6842 69.4678 39.5705C69.5166 39.4513 69.5545 39.3644 69.5817 39.3102C69.7607 38.909 69.9232 38.5431 70.0696 38.2123C70.2214 37.8762 70.3704 37.5482 70.5169 37.2284C70.6633 36.9085 70.8095 36.5805 70.956 36.2444C71.1078 35.9083 71.2732 35.5396 71.452 35.1384V38.4483C71.452 38.7735 71.4467 39.1151 71.4357 39.4729C71.4304 39.5814 71.4195 39.6898 71.4032 39.7981C71.3869 39.9011 71.3625 39.988 71.33 40.0584C71.2758 40.1723 71.1701 40.2725 71.0127 40.3592C70.8556 40.4459 70.6603 40.4947 70.4272 40.5057V40.5951H73.2166L73.2164 40.5948Z" fill="white"/>
<path d="M73.2164 40.595V40.5136C73.0862 40.5082 72.9723 40.4892 72.8749 40.4567C72.7773 40.4188 72.6959 40.3781 72.6308 40.3346C72.5658 40.2858 72.5144 40.2426 72.4765 40.2045C72.4439 40.1612 72.4251 40.134 72.4195 40.1231C72.387 40.0636 72.3626 39.9822 72.3463 39.8791C72.3354 39.7707 72.33 39.665 72.33 39.562C72.3247 39.2421 72.3219 38.9386 72.3219 38.6513V37.0329C72.3219 36.7891 72.3247 36.5369 72.33 36.2766C72.3354 36.0869 72.3435 35.8944 72.3544 35.6992C72.3653 35.5041 72.387 35.3603 72.4195 35.2682C72.4628 35.149 72.5415 35.046 72.6553 34.9591C72.7745 34.8724 72.9453 34.8263 73.1676 34.8208V34.7394H71.4354C71.4191 34.7829 71.3513 34.9428 71.232 35.2192C71.1181 35.4903 70.9691 35.8317 70.7848 36.2439C70.6058 36.656 70.4026 37.1167 70.1748 37.6262C69.9472 38.1358 69.7141 38.6481 69.4756 39.1632L67.5321 34.7393H65.7999V34.8206C65.865 34.8313 65.9435 34.8504 66.0356 34.8776C66.1279 34.8994 66.2146 34.9373 66.2959 34.9914C66.3773 35.0456 66.4477 35.1214 66.5072 35.2192C66.567 35.3113 66.5995 35.4333 66.6049 35.5851C66.6102 35.7423 66.613 35.8752 66.613 35.9835V37.0082C66.613 37.3715 66.6102 37.713 66.6049 38.0328C66.5995 38.3473 66.5914 38.6211 66.5805 38.8543C66.5751 39.1307 66.5561 39.3666 66.5235 39.5618C66.491 39.7515 66.4396 39.9114 66.3691 40.0416C66.2987 40.1718 66.2037 40.2747 66.0846 40.3505C65.9653 40.421 65.8108 40.4753 65.6211 40.5132V40.5946H67.7436V40.5132C67.5104 40.4807 67.3261 40.4293 67.1906 40.3589C67.0604 40.2829 66.9628 40.1827 66.8977 40.058C66.8326 39.9279 66.792 39.7707 66.7757 39.5864C66.7594 39.3967 66.7513 39.1745 66.7513 38.9195V37.0329C66.7567 36.7619 66.7594 36.4909 66.7594 36.2198C66.7648 35.9432 66.7676 35.6262 66.7676 35.2682C66.7947 35.3279 66.8436 35.4416 66.914 35.6099C66.99 35.7779 67.0848 35.9867 67.1987 36.2361C67.3126 36.4855 67.44 36.77 67.5811 37.0899C67.7219 37.4097 67.8737 37.754 68.0364 38.1227C68.1991 38.486 68.3644 38.8655 68.5325 39.2612C68.7059 39.657 68.8795 40.0555 69.0529 40.4567H69.1018C69.1127 40.4241 69.1396 40.359 69.1831 40.2616C69.2265 40.1586 69.2726 40.0475 69.3214 39.9281C69.3702 39.8033 69.419 39.6842 69.4678 39.5703C69.5166 39.4511 69.5545 39.3642 69.5817 39.31C69.7607 38.9088 69.9232 38.5429 70.0696 38.2122C70.2214 37.876 70.3704 37.548 70.5169 37.2282C70.6633 36.9083 70.8095 36.5803 70.956 36.2442C71.1078 35.9081 71.2732 35.5394 71.452 35.1382V38.4481C71.452 38.7733 71.4467 39.1149 71.4357 39.4727C71.4304 39.5812 71.4195 39.6896 71.4032 39.7979C71.3869 39.9009 71.3625 39.9878 71.33 40.0582C71.2758 40.1721 71.1701 40.2723 71.0127 40.359C70.8556 40.4458 70.6603 40.4946 70.4272 40.5055V40.595H73.2166H73.2164Z" stroke="white" stroke-width="0.277328"/>
<path d="M82.6214 39.0423L82.5319 39.0179C82.3964 39.2511 82.2635 39.4517 82.1335 39.6197C82.0089 39.7824 81.8787 39.9205 81.7432 40.0344C81.6077 40.1483 81.4668 40.2378 81.3204 40.3029C81.1739 40.3624 81.014 40.4031 80.8406 40.4249C80.6834 40.4465 80.5316 40.4602 80.3852 40.4656C80.2443 40.4709 80.1277 40.4737 80.0356 40.4737C79.8187 40.4737 79.6181 40.4575 79.4338 40.4249C79.2495 40.3924 79.133 40.3382 79.0842 40.2622C79.0354 40.1862 79.0028 40.0723 78.9866 39.9205C78.9757 39.7634 78.9677 39.5979 78.9622 39.4245C78.9622 39.3703 78.9594 39.3052 78.954 39.2293V38.0012C78.954 37.855 78.9594 37.7437 78.9703 37.6679H79.3443C79.3985 37.6679 79.4527 37.6705 79.507 37.676C79.5612 37.676 79.629 37.6788 79.7104 37.6842C79.8731 37.6951 80.014 37.7248 80.1332 37.7737C80.258 37.8225 80.3636 37.8848 80.4505 37.9606C80.5481 38.0528 80.6402 38.1911 80.7269 38.3753C80.8191 38.5596 80.8868 38.7386 80.9303 38.912H81.0279V36.3504H80.9303C80.8977 36.5022 80.8598 36.6405 80.8164 36.7651C80.7785 36.8844 80.7243 36.9901 80.6537 37.0822C80.5886 37.1744 80.5019 37.253 80.3934 37.3181C80.285 37.3832 80.1495 37.4346 79.9868 37.4725C79.9164 37.4887 79.8269 37.5022 79.7185 37.5131C79.6155 37.5185 79.5098 37.5239 79.4013 37.5294C79.2983 37.5348 79.206 37.5376 79.1249 37.5376H78.9622V37.4481C78.9622 37.3993 78.9594 37.3316 78.954 37.2447V36.3746C78.954 36.0169 78.9568 35.7024 78.9622 35.4313C78.9731 35.1603 78.9838 34.9813 78.9947 34.8946C79.0489 34.8837 79.1356 34.8756 79.2548 34.8702C79.3796 34.8593 79.4987 34.8539 79.6128 34.8539C79.9705 34.8539 80.2741 34.8702 80.5235 34.9027C80.7729 34.9353 80.9438 34.9732 81.0358 35.0166C81.4208 35.2063 81.8329 35.575 82.272 36.1226L82.3533 36.082L81.8003 34.7402H77.3113V34.8216C77.4577 34.8432 77.577 34.8676 77.6693 34.8948C77.7613 34.9164 77.848 34.9708 77.9294 35.0575C77.9619 35.09 77.9863 35.1442 78.0026 35.2202C78.0242 35.2906 78.0379 35.372 78.0433 35.4642C78.0542 35.5563 78.0595 35.6539 78.0595 35.7569C78.0649 35.8599 78.0677 35.9603 78.0677 36.0579V38.1153C78.0677 38.278 78.0651 38.4379 78.0595 38.5951C78.0595 38.7469 78.0568 38.8878 78.0514 39.0181V39.3271C78.0514 39.4138 78.0486 39.5033 78.0433 39.5953C78.0379 39.682 78.027 39.7662 78.0107 39.8475C77.9998 39.9289 77.9863 40.0019 77.9701 40.067C77.9538 40.1267 77.9322 40.1727 77.905 40.2053C77.829 40.2922 77.7316 40.3598 77.6123 40.4086C77.4984 40.4575 77.3738 40.4926 77.2383 40.5144V40.5957H82.2152L82.6218 39.0425L82.6214 39.0423Z" fill="white"/>
<path d="M82.6214 39.0423L82.5319 39.0179C82.3964 39.2511 82.2635 39.4517 82.1335 39.6197C82.0089 39.7824 81.8787 39.9205 81.7432 40.0344C81.6077 40.1483 81.4668 40.2378 81.3204 40.3029C81.1739 40.3624 81.014 40.4031 80.8406 40.4249C80.6834 40.4465 80.5316 40.4602 80.3852 40.4656C80.2443 40.4709 80.1277 40.4737 80.0356 40.4737C79.8187 40.4737 79.6181 40.4575 79.4338 40.4249C79.2495 40.3924 79.133 40.3382 79.0842 40.2622C79.0354 40.1864 79.0028 40.0723 78.9866 39.9205C78.9757 39.7634 78.9677 39.5979 78.9622 39.4245C78.9622 39.3703 78.9594 39.3052 78.954 39.2293V38.0012C78.954 37.855 78.9594 37.7437 78.9703 37.6679H79.3443C79.3985 37.6679 79.4527 37.6705 79.507 37.676C79.5612 37.676 79.629 37.6788 79.7104 37.6842C79.8731 37.6951 80.014 37.7248 80.1332 37.7737C80.258 37.8225 80.3636 37.8848 80.4505 37.9606C80.5481 38.0528 80.6402 38.1909 80.7269 38.3753C80.8191 38.5596 80.8868 38.7386 80.9303 38.912H81.0279V36.3504H80.9303C80.8977 36.5022 80.8598 36.6405 80.8164 36.7651C80.7785 36.8844 80.7243 36.9901 80.6537 37.0822C80.5886 37.1744 80.5019 37.253 80.3934 37.3181C80.285 37.3832 80.1495 37.4346 79.9868 37.4725C79.9164 37.4887 79.8269 37.5022 79.7185 37.5131C79.6155 37.5185 79.5098 37.5241 79.4013 37.5294C79.2983 37.5348 79.206 37.5376 79.1249 37.5376H78.9622V37.4481C78.9622 37.3993 78.9594 37.3316 78.954 37.2447V36.3746C78.954 36.0169 78.9568 35.7024 78.9622 35.4313C78.9731 35.1603 78.9838 34.9813 78.9947 34.8946C79.0489 34.8837 79.1356 34.8756 79.2548 34.8702C79.3796 34.8593 79.4987 34.8539 79.6128 34.8539C79.9705 34.8539 80.2741 34.8702 80.5235 34.9027C80.7729 34.9353 80.9438 34.9732 81.0358 35.0166C81.4208 35.2063 81.8329 35.575 82.272 36.1226L82.3533 36.082L81.8003 34.7402H77.3113V34.8216C77.4577 34.8432 77.577 34.8676 77.6693 34.8948C77.7613 34.9164 77.848 34.9706 77.9294 35.0575C77.9619 35.09 77.9863 35.1442 78.0026 35.2202C78.0242 35.2906 78.0379 35.372 78.0433 35.4642C78.0542 35.5563 78.0595 35.6539 78.0595 35.7569C78.0649 35.8599 78.0677 35.9603 78.0677 36.0579V38.1153C78.0677 38.278 78.0651 38.4378 78.0595 38.5951C78.0595 38.7469 78.0568 38.888 78.0514 39.0181V39.3272C78.0514 39.414 78.0486 39.5034 78.0433 39.5955C78.0379 39.6822 78.027 39.7663 78.0107 39.8477C77.9998 39.929 77.9863 40.0021 77.9701 40.0673C77.9538 40.1271 77.9322 40.1731 77.905 40.2056C77.829 40.2925 77.7316 40.3602 77.6123 40.409C77.4984 40.4578 77.3738 40.493 77.2383 40.5148V40.5961H82.2152L82.6218 39.0429L82.6214 39.0423Z" stroke="white" stroke-width="0.277328"/>
<path d="M92.9943 34.8216V34.7402H90.9776V34.8216C91.2377 34.8595 91.4357 34.9273 91.5713 35.025C91.7121 35.117 91.8098 35.2391 91.8639 35.3908C91.9074 35.5047 91.9318 35.6619 91.9371 35.8625C91.9425 36.0577 91.9453 36.2637 91.9453 36.4806V39.2455L88.0906 34.7402H86.4398V34.8216C86.5265 34.8325 86.616 34.8514 86.7082 34.8785C86.8058 34.9003 86.8953 34.941 86.9765 35.0006C87.0578 35.0547 87.1283 35.1335 87.1878 35.2365C87.2475 35.3341 87.2854 35.4615 87.3017 35.6186C87.3071 35.7758 87.3098 35.9087 87.3098 36.0171V37.0092C87.3098 37.3725 87.3071 37.7139 87.3017 38.0338C87.2963 38.3483 87.2882 38.6221 87.2773 38.8552C87.2664 39.1642 87.2503 39.4299 87.2285 39.6523C87.2069 39.8745 87.158 40.0426 87.082 40.1565C87.0062 40.2757 86.9031 40.3624 86.7731 40.4166C86.6429 40.4654 86.5128 40.4979 86.3828 40.5142V40.5956H88.3833V40.5142C88.161 40.4872 87.9848 40.4438 87.8547 40.3841C87.7299 40.319 87.6378 40.2241 87.5781 40.0995C87.5239 39.991 87.4886 39.8257 87.4723 39.6035C87.4614 39.3812 87.4561 39.1318 87.4561 38.8552V35.4234C87.8247 35.8355 88.1744 36.2339 88.5051 36.6189C88.8359 37.0038 89.172 37.3996 89.5135 37.8062C89.8605 38.2074 90.2236 38.6302 90.6032 39.0749C90.9828 39.5193 91.4028 40.0074 91.8638 40.5386C91.9179 40.5928 91.9667 40.62 92.0102 40.62C92.0372 40.62 92.0562 40.6118 92.0671 40.5956C92.0834 40.5847 92.0915 40.5684 92.0915 40.5468V40.0182C92.0915 39.8229 92.0888 39.6279 92.0834 39.4326V38.3266C92.0834 37.9633 92.0862 37.6245 92.0915 37.31C92.1022 36.9901 92.1132 36.7137 92.1241 36.4806C92.135 36.2312 92.1459 35.998 92.1566 35.7811C92.1675 35.5589 92.1919 35.4071 92.2298 35.3258C92.2949 35.1686 92.387 35.052 92.5064 34.9761C92.631 34.9003 92.7937 34.8488 92.9943 34.8216Z" fill="white"/>
<path d="M92.9943 34.8216V34.7402H90.9776V34.8216C91.2377 34.8595 91.4357 34.9273 91.5713 35.025C91.7121 35.117 91.8098 35.2391 91.8639 35.3908C91.9074 35.5047 91.9318 35.6619 91.9371 35.8625C91.9425 36.0577 91.9453 36.2637 91.9453 36.4806V39.2455L88.0906 34.7402H86.4398V34.8216C86.5265 34.8323 86.616 34.8514 86.7082 34.8785C86.8058 34.9003 86.8953 34.941 86.9765 35.0006C87.0578 35.0547 87.1283 35.1335 87.1878 35.2365C87.2475 35.3341 87.2854 35.4615 87.3017 35.6186C87.3071 35.7758 87.3098 35.9087 87.3098 36.0171V37.0092C87.3098 37.3725 87.3071 37.7139 87.3017 38.0338C87.2963 38.3483 87.2882 38.6221 87.2773 38.8552C87.2664 39.1642 87.2503 39.4299 87.2285 39.6523C87.2069 39.8745 87.158 40.0426 87.082 40.1565C87.0062 40.2757 86.9031 40.3624 86.7731 40.4166C86.6429 40.4654 86.5128 40.4979 86.3828 40.5142V40.5956H88.3833V40.5142C88.161 40.487 87.9848 40.4438 87.8547 40.3841C87.7299 40.319 87.6378 40.2241 87.5781 40.0995C87.5239 39.991 87.4886 39.8257 87.4723 39.6035C87.4614 39.3812 87.4561 39.1318 87.4561 38.8554V35.4236C87.8247 35.8355 88.1744 36.2341 88.5051 36.619C88.8359 37.004 89.172 37.3998 89.5135 37.8064C89.8605 38.2076 90.2236 38.6304 90.6032 39.0751C90.9828 39.5195 91.4028 40.0076 91.8638 40.5388C91.9179 40.593 91.9667 40.6202 92.0102 40.6202C92.0372 40.6202 92.0562 40.612 92.0671 40.5957C92.0834 40.5848 92.0915 40.5688 92.0915 40.5469V40.0183C92.0915 39.8231 92.0888 39.6281 92.0834 39.4328V38.3268C92.0834 37.9635 92.0862 37.6246 92.0915 37.3103C92.1022 36.9905 92.1132 36.7141 92.1241 36.4809C92.135 36.2315 92.1459 35.9984 92.1566 35.7815C92.1675 35.5593 92.1919 35.4075 92.2298 35.3261C92.2949 35.169 92.387 35.0523 92.5064 34.9765C92.631 34.9005 92.7937 34.8491 92.9943 34.822V34.8216Z" stroke="white" stroke-width="0.277328"/>
<path d="M102.762 36.2449L102.502 34.6592C102.377 34.6971 102.255 34.7296 102.136 34.7568C102.022 34.7786 101.876 34.7921 101.697 34.7975C101.491 34.7975 101.307 34.8002 101.144 34.8056C100.981 34.8056 100.824 34.8084 100.672 34.8137H98.1839C98.0212 34.8084 97.8368 34.8028 97.6309 34.7975C97.4303 34.7921 97.2757 34.7812 97.1674 34.7649C97.0644 34.7487 96.9505 34.727 96.8259 34.6999L96.582 36.2449L96.6552 36.2693C96.6878 36.1717 96.7312 36.0715 96.7854 35.9685C96.8451 35.8656 96.9047 35.7707 96.9644 35.684C97.0295 35.5919 97.0892 35.5078 97.1433 35.4318C97.2029 35.356 97.2545 35.2991 97.2979 35.2612C97.4118 35.1526 97.5336 35.0768 97.6638 35.0334C97.7993 34.9899 97.9702 34.9657 98.1761 34.9602H98.4444C98.5257 34.9548 98.6015 34.952 98.6722 34.952H99.2089V38.1073C99.2089 38.27 99.2063 38.4271 99.2008 38.5789C99.2008 38.7307 99.198 38.869 99.1926 38.9936V39.2944C99.1926 39.3812 99.19 39.4706 99.1845 39.5629C99.1845 39.655 99.1789 39.7419 99.1682 39.823C99.1628 39.8988 99.1519 39.9695 99.1357 40.0345C99.1248 40.0943 99.1059 40.1375 99.0787 40.1647C98.9539 40.3056 98.8265 40.3951 98.6964 40.4332C98.5664 40.4711 98.4307 40.4982 98.2898 40.5145V40.5959H100.933V40.5145C100.814 40.4929 100.678 40.4603 100.526 40.4169C100.38 40.3736 100.266 40.2923 100.185 40.1728C100.141 40.1131 100.114 40.0129 100.103 39.872C100.098 39.7256 100.095 39.5738 100.095 39.4167V35.505C100.101 35.2719 100.103 35.0876 100.103 34.952H100.64C100.716 34.952 100.792 34.9546 100.868 34.9602H101.136C101.342 34.9657 101.51 34.9874 101.641 35.0253C101.776 35.0578 101.901 35.1282 102.015 35.2368C102.058 35.2747 102.109 35.3344 102.169 35.4157C102.229 35.4917 102.288 35.5757 102.348 35.6679C102.413 35.76 102.475 35.8604 102.535 35.9687C102.595 36.0717 102.646 36.1721 102.69 36.2695L102.763 36.2451L102.762 36.2449Z" fill="white"/>
<path d="M102.762 36.2449L102.502 34.6592C102.377 34.6971 102.255 34.7296 102.136 34.7568C102.022 34.7786 101.876 34.7921 101.697 34.7975C101.491 34.7975 101.307 34.8002 101.144 34.8056C100.981 34.8056 100.824 34.8084 100.672 34.8137H98.1839C98.0212 34.8084 97.8368 34.8028 97.6309 34.7975C97.4303 34.7921 97.2757 34.7812 97.1674 34.7649C97.0644 34.7487 96.9505 34.727 96.8259 34.6999L96.582 36.2449L96.6552 36.2694C96.6878 36.1717 96.7312 36.0715 96.7854 35.9685C96.8451 35.8656 96.9047 35.7707 96.9644 35.684C97.0295 35.5919 97.0892 35.5078 97.1433 35.4318C97.2029 35.3558 97.2545 35.2991 97.2979 35.261C97.4118 35.1525 97.5336 35.0767 97.6638 35.0332C97.7993 34.9898 97.9702 34.9655 98.1761 34.96H98.4444C98.5257 34.9546 98.6015 34.9519 98.6722 34.9519H99.2089V38.1071C99.2089 38.2698 99.2063 38.427 99.2008 38.5788C99.2008 38.7305 99.198 38.8688 99.1926 38.9935V39.2943C99.1926 39.381 99.19 39.4705 99.1845 39.5627C99.1845 39.6548 99.1789 39.7417 99.1682 39.8229C99.1628 39.8988 99.1519 39.9693 99.1357 40.0344C99.1248 40.0941 99.1059 40.1373 99.0787 40.1645C98.9539 40.3054 98.8265 40.3949 98.6964 40.433C98.5664 40.4709 98.4307 40.4981 98.2898 40.5143V40.5957H100.933V40.5143C100.814 40.4927 100.678 40.4602 100.526 40.4167C100.38 40.3734 100.266 40.2921 100.185 40.1727C100.141 40.1129 100.114 40.0127 100.103 39.8718C100.098 39.7254 100.095 39.5736 100.095 39.4165V35.5048C100.101 35.2717 100.103 35.0874 100.103 34.9519H100.64C100.716 34.9519 100.792 34.9544 100.868 34.96H101.136C101.342 34.9655 101.51 34.9872 101.641 35.0251C101.776 35.0576 101.901 35.1281 102.015 35.2366C102.058 35.2745 102.109 35.3342 102.169 35.4155C102.229 35.4914 102.288 35.5755 102.348 35.6677C102.413 35.7598 102.475 35.8602 102.535 35.9685C102.595 36.0715 102.646 36.1719 102.69 36.2694L102.763 36.2449H102.762Z" stroke="white" stroke-width="0.277328"/>
</g>
<defs>
<clipPath id="clip0_9777_583">
<rect width="102.916" height="40" fill="white" transform="translate(0 0.791992)"/>
</clipPath>
</defs>
</svg>
