<svg width="22" height="22" viewBox="0 0 22 22" fill="none" xmlns="http://www.w3.org/2000/svg">
<path d="M16.2278 5.97949H16.2365M14.9153 10.2407C15.0233 10.969 14.8989 11.7127 14.5598 12.3661C14.2207 13.0196 13.6843 13.5495 13.0267 13.8805C12.3691 14.2114 11.6239 14.3266 10.8971 14.2097C10.1703 14.0927 9.49881 13.7496 8.97825 13.229C8.4577 12.7085 8.11454 12.037 7.99758 11.3102C7.88062 10.5834 7.99583 9.83815 8.32681 9.18057C8.65779 8.52299 9.18768 7.98652 9.84113 7.64745C10.4946 7.30839 11.2383 7.18401 11.9665 7.29199C12.7093 7.40214 13.397 7.74827 13.928 8.27926C14.459 8.81025 14.8051 9.49793 14.9153 10.2407Z" stroke="#F08D0C" stroke-linecap="round" stroke-linejoin="round"/>
<path d="M15.7891 2.04199H7.03906C4.62282 2.04199 2.66406 4.00075 2.66406 6.41699V15.167C2.66406 17.5832 4.62282 19.542 7.03906 19.542H15.7891C18.2053 19.542 20.1641 17.5832 20.1641 15.167V6.41699C20.1641 4.00075 18.2053 2.04199 15.7891 2.04199Z" stroke="#F08D0C" stroke-linecap="round" stroke-linejoin="round"/>
</svg>
