<svg width="22" height="22" viewBox="0 0 22 22" fill="none" xmlns="http://www.w3.org/2000/svg">
<path d="M14.0586 7.29199C15.451 7.29199 16.7863 7.84512 17.7709 8.82968C18.7555 9.81425 19.3086 11.1496 19.3086 12.542V18.667H15.8086V12.542C15.8086 12.0779 15.6242 11.6327 15.296 11.3046C14.9678 10.9764 14.5227 10.792 14.0586 10.792C13.5945 10.792 13.1493 10.9764 12.8212 11.3046C12.493 11.6327 12.3086 12.0779 12.3086 12.542V18.667H8.80859V12.542C8.80859 11.1496 9.36172 9.81425 10.3463 8.82968C11.3308 7.84512 12.6662 7.29199 14.0586 7.29199Z" stroke="white" stroke-linecap="round" stroke-linejoin="round"/>
<path d="M5.30859 8.16699H1.80859V18.667H5.30859V8.16699Z" stroke="white" stroke-linecap="round" stroke-linejoin="round"/>
<path d="M3.55859 5.54199C4.52509 5.54199 5.30859 4.75849 5.30859 3.79199C5.30859 2.82549 4.52509 2.04199 3.55859 2.04199C2.5921 2.04199 1.80859 2.82549 1.80859 3.79199C1.80859 4.75849 2.5921 5.54199 3.55859 5.54199Z" stroke="white" stroke-linecap="round" stroke-linejoin="round"/>
</svg>
