<svg width="19" height="20" viewBox="0 0 19 20" fill="none" xmlns="http://www.w3.org/2000/svg">
<g clip-path="url(#clip0_9777_620)">
<path d="M11.8108 18.3638C12.1376 18.3098 12.4725 18.285 12.7903 18.1975C14.9993 17.5899 16.3867 16.1634 16.7873 13.8954C17.264 11.1954 15.5538 8.72854 13.0851 7.98515C12.3633 7.76787 11.6292 7.70617 10.8814 7.79033C10.7916 7.80039 10.7138 7.80475 10.7148 7.93921C10.7205 8.81505 10.7178 9.69089 10.7182 10.5667C10.7182 10.5882 10.7235 10.61 10.7275 10.6405C10.8941 10.6113 11.0543 10.5788 11.2162 10.5553C12.5626 10.3605 13.8586 11.3896 14.0201 12.7372C14.1734 14.0144 13.3187 15.2799 11.959 15.5428C10.638 15.7983 9.25496 14.8416 9.04631 13.5034C9.0166 13.3119 9.00758 13.1151 9.00758 12.9206C9.00425 9.10476 9.00358 5.28923 9.00224 1.47337C9.00224 1.39725 9.00224 1.32113 9.00224 1.2373H6.24075C6.18734 1.57664 6.15529 1.91464 6.07951 2.24257C5.70328 3.8665 4.30918 5.17221 2.67138 5.44482C2.45873 5.48002 2.24207 5.48975 2.02774 5.51322C1.97967 5.51859 1.9326 5.53267 1.88486 5.54273V8.2876C1.92793 8.29431 1.97099 8.30739 2.01406 8.30638C3.51365 8.26983 4.87436 7.81682 6.08852 6.92724C6.12124 6.90309 6.15963 6.88633 6.21004 6.85783C6.21004 6.94635 6.21004 7.01274 6.21004 7.0788C6.20269 9.03602 6.19235 10.9932 6.19134 12.9505C6.19134 13.2613 6.21104 13.5755 6.25811 13.8826C6.57659 15.9589 8.17433 17.6972 10.2167 18.1891C10.5539 18.2702 10.9021 18.3061 11.2453 18.3628H11.8115L11.8108 18.3638Z" stroke="white" stroke-miterlimit="10"/>
</g>
<defs>
<clipPath id="clip0_9777_620">
<rect width="17.1429" height="19.0476" fill="white" transform="matrix(-1 0 0 1 18.0586 0.268555)"/>
</clipPath>
</defs>
</svg>
