<svg width="66" height="28" viewBox="0 0 66 28" fill="none" xmlns="http://www.w3.org/2000/svg">
<g clip-path="url(#clip0_7783_1184)">
<mask id="mask0_7783_1184" style="mask-type:luminance" maskUnits="userSpaceOnUse" x="0" y="0" width="66" height="28">
<path d="M65.2627 0H0V28H65.2627V0Z" fill="white"/>
</mask>
<g mask="url(#mask0_7783_1184)">
<path d="M19.1883 11.3971C20.6682 11.3971 21.8172 12.5833 21.8172 14.0558C21.8172 15.5283 20.6682 16.7071 19.1883 16.7071C17.7083 16.7071 16.5742 15.5209 16.5742 14.0558C16.5742 12.5907 17.7158 11.3971 19.1883 11.3971ZM19.1883 15.9262C20.2183 15.9262 21.0141 15.0932 21.0141 14.0558C21.0141 13.0183 20.2183 12.178 19.1883 12.178C18.1583 12.178 17.37 13.0183 17.37 14.0558C17.37 15.0932 18.1657 15.9262 19.1883 15.9262Z" fill="#47792F"/>
<path d="M22.7129 15.4913C22.9025 15.4169 23.0438 15.5136 23.1033 15.6401C23.2446 15.9115 23.5161 16.0602 23.8619 16.0602C24.2077 16.0602 24.4717 15.9041 24.4717 15.6401C24.4717 15.4132 24.2523 15.3165 23.9995 15.257L23.5272 15.1455C22.7835 14.9447 22.5121 14.5357 22.5567 13.9742C22.6013 13.4573 23.1665 13.052 23.8098 13.052C24.2746 13.052 24.7023 13.2007 24.9365 13.5689C25.0406 13.7511 24.9886 13.9296 24.8696 14.0188C24.7432 14.1229 24.5833 14.1155 24.4197 13.9742C24.2226 13.8031 23.9995 13.7325 23.8173 13.7325C23.6202 13.7325 23.4045 13.7994 23.3302 13.9221C23.2707 14.0188 23.2632 14.1192 23.3004 14.2233C23.345 14.3572 23.557 14.4278 23.7429 14.4799L24.2821 14.6138C25.0406 14.8034 25.1968 15.298 25.1968 15.6512C25.1968 16.328 24.6019 16.711 23.7987 16.711C23.2595 16.711 22.7092 16.4246 22.5233 15.9152C22.4638 15.7293 22.5456 15.5545 22.7129 15.495" fill="#47792F"/>
<path d="M26.3841 11.2151C26.6704 11.2151 26.8935 11.427 26.8935 11.7022C26.8935 11.9774 26.6704 12.1893 26.3841 12.1893C26.0977 12.1893 25.8672 11.9774 25.8672 11.7022C25.8672 11.427 26.1089 11.2151 26.3841 11.2151ZM26.7745 13.4759C26.7745 13.264 26.6034 13.0855 26.3766 13.0855C26.1647 13.0855 26.0011 13.2677 26.0011 13.4759V16.2759C26.0011 16.4879 26.1647 16.6663 26.3766 16.6663C26.6034 16.6663 26.7745 16.4879 26.7745 16.2759V13.4759Z" fill="#47792F"/>
<path d="M30.8223 15.1529H28.383C28.4574 15.6921 28.8924 16.0305 29.4576 16.0305C29.8258 16.0305 30.034 15.9041 30.2906 15.6921C30.417 15.588 30.629 15.5359 30.7851 15.6623C30.9264 15.7739 30.9339 16.0082 30.8 16.1495C30.4467 16.5176 29.9373 16.7035 29.4167 16.7035C28.4165 16.7035 27.6133 15.9747 27.6133 14.8629C27.6133 13.7511 28.4165 13.0446 29.4167 13.0446C30.417 13.0446 31.1421 13.7213 31.1756 14.7959C31.1756 15.0005 31.0082 15.1492 30.8223 15.1492M30.417 14.5877C30.3426 14.0411 29.9448 13.725 29.4167 13.725C28.8887 13.725 28.4537 14.0485 28.3793 14.5877H30.4133H30.417Z" fill="#47792F"/>
<path d="M34.6841 11.5682C34.6841 11.3562 34.8551 11.1777 35.0819 11.1777C35.2939 11.1777 35.4575 11.3562 35.4575 11.5682V16.2757C35.4575 16.4877 35.2902 16.6662 35.0819 16.6662C34.8551 16.6662 34.6841 16.4877 34.6841 16.2757V16.1196C34.4647 16.4951 33.985 16.7034 33.5127 16.7034C32.5683 16.7034 31.7539 15.982 31.7539 14.8776C31.7539 13.7732 32.5497 13.0444 33.5053 13.0444C33.9999 13.0444 34.4684 13.2415 34.6841 13.6208V11.5645V11.5682ZM33.602 13.7992C33.0145 13.7992 32.5422 14.2194 32.5422 14.8664C32.5422 15.5135 33.0145 15.956 33.602 15.956C34.1895 15.956 34.6766 15.5506 34.6766 14.8664C34.6766 14.1822 34.13 13.7992 33.602 13.7992Z" fill="#47792F"/>
<path d="M37.2969 16.2795C37.2969 16.4915 37.1221 16.67 36.899 16.67C36.6871 16.67 36.5234 16.4915 36.5234 16.2795V11.572C36.5234 11.36 36.6908 11.1815 36.899 11.1815C37.1258 11.1815 37.2969 11.36 37.2969 11.572V16.2795Z" fill="#47792F"/>
<path d="M41.3575 15.1529H38.9182C38.9925 15.6921 39.4276 16.0305 39.9928 16.0305C40.3609 16.0305 40.5692 15.9041 40.8257 15.6921C40.9522 15.588 41.1641 15.5359 41.3203 15.6623C41.4616 15.7739 41.469 16.0082 41.3352 16.1495C40.9819 16.5176 40.4725 16.7035 39.9519 16.7035C38.9516 16.7035 38.1484 15.9747 38.1484 14.8629C38.1484 13.7511 38.9516 13.0446 39.9519 13.0446C40.9522 13.0446 41.681 13.7213 41.7107 14.7959C41.7107 15.0005 41.5434 15.1492 41.3575 15.1492M40.9522 14.5877C40.8778 14.0411 40.4799 13.725 39.9519 13.725C39.4239 13.725 38.9888 14.0485 38.9144 14.5877H40.9484H40.9522Z" fill="#47792F"/>
</g>
<path d="M10.7426 9.67921V19.812L4.6741 9.18466C4.00478 7.99475 3.2239 7.70471 2.32404 7.70471H1.94475C0.899867 7.70471 0 8.66407 0 9.88373V26.0256C0 27.0704 1.01514 28.0001 2.11952 28.0001C3.27968 28.0001 4.23904 27.1002 4.23904 26.0256V15.7477L10.4526 26.5499C11.1219 27.71 11.847 28.0001 12.7171 28.0001H13.0964C14.1116 28.0001 14.9854 27.0704 14.9854 25.8805V9.67921C14.9854 8.60458 14.026 7.70471 12.8659 7.70471C11.7057 7.70471 10.7463 8.63433 10.7463 9.67921" fill="url(#paint0_linear_7783_1184)"/>
<mask id="mask1_7783_1184" style="mask-type:luminance" maskUnits="userSpaceOnUse" x="0" y="0" width="66" height="28">
<path d="M65.2627 0H0V28H65.2627V0Z" fill="white"/>
</mask>
<g mask="url(#mask1_7783_1184)">
<path d="M17.2637 22.8614C16.9737 22.5267 16.9588 22.0173 17.2637 21.7421C18.1487 20.9278 19.2531 20.9426 19.8183 20.9426C21.5028 20.9426 22.9827 21.7867 22.9827 23.8319V27.026C22.9827 27.5355 22.5179 27.9259 21.9676 27.9259C21.4173 27.9259 20.9673 27.5206 20.9525 27.026V26.9405C20.5025 27.7251 19.6175 27.9854 19.0226 27.9854C17.4683 27.9854 16.4531 27.1004 16.4531 25.8064C16.4531 24.6871 17.5426 23.7575 19.3572 23.7575C19.8369 23.7575 20.5471 23.9323 20.9525 24.2075C20.9525 23.3522 20.6178 22.6829 19.5878 22.6829C19.3572 22.6829 18.8181 22.6978 18.2677 23.0324C17.9628 23.1923 17.5278 23.1626 17.2675 22.8577M20.9227 25.4717C20.5434 25.1222 19.9485 25.0813 19.6584 25.0813C18.8032 25.0813 18.5094 25.4457 18.5094 25.7915C18.5094 26.1373 18.8887 26.4757 19.3647 26.4757C19.6101 26.4757 20.5843 26.446 20.919 25.4717" fill="#96C222"/>
<path d="M24.5957 21.0726V19.3026C24.6106 18.808 25.0754 18.4027 25.6109 18.4027C26.1463 18.4027 26.626 18.7931 26.626 19.3026V21.0726H27.3957C27.8011 21.0726 28.1208 21.437 28.1208 21.872C28.1208 22.3071 27.8011 22.6566 27.3957 22.6715H26.626V27.0258C26.626 27.5352 26.1612 27.9257 25.6109 27.9257C25.0606 27.9257 24.6106 27.5204 24.5957 27.0258V22.6715H24.0454C23.6401 22.6566 23.3203 22.2922 23.3203 21.872C23.3203 21.4518 23.6401 21.0726 24.0454 21.0726H24.5957Z" fill="#96C222"/>
<path d="M32.9584 26.8661C32.594 27.5466 31.7983 27.9853 30.9988 27.9853C29.4742 27.9853 28.5 27.2305 28.5 25.3006V21.9019C28.5 21.3925 28.9648 21.0021 29.5151 21.0021C30.0655 21.0021 30.5154 21.4074 30.5303 21.9019V24.6908C30.5303 25.5907 30.8649 26.0257 31.7053 26.0257C32.4155 26.0257 32.9547 25.6911 32.9547 24.661V21.9019C32.9547 21.3925 33.4195 21.0021 33.9699 21.0021C34.5202 21.0021 34.9738 21.4074 34.985 21.9019V27.026C34.9701 27.5205 34.5053 27.9258 33.9699 27.9258C33.4344 27.9258 32.9547 27.5354 32.9547 27.026V26.8661H32.9584Z" fill="#96C222"/>
<path d="M41.1933 22.0619C41.1189 22.5713 40.6429 22.8019 40.1893 22.8019C40.0443 22.8019 39.8249 22.787 39.6947 22.787C38.5643 22.787 38.185 23.6571 38.1553 25.3564V27.026C38.1553 27.5355 37.6905 27.9259 37.1401 27.9259C36.5898 27.9259 36.1399 27.5206 36.125 27.026V21.902C36.1399 21.4074 36.6047 21.0021 37.1401 21.0021C37.6756 21.0021 38.1553 21.3926 38.1553 21.902V22.642C38.5346 21.3777 39.2448 20.9426 39.9401 20.9426C40.6355 20.9426 41.3197 21.1025 41.1895 22.0619" fill="#96C222"/>
<path d="M41.7872 22.8614C41.4971 22.5267 41.4823 22.0173 41.7872 21.7421C42.6722 20.9278 43.7766 20.9426 44.3418 20.9426C46.0262 20.9426 47.5062 21.7867 47.5062 23.8319V27.026C47.5062 27.5355 47.0414 27.9259 46.491 27.9259C45.9407 27.9259 45.4908 27.5206 45.4759 27.026V26.9405C45.026 27.7251 44.141 27.9854 43.546 27.9854C41.9917 27.9854 40.9766 27.1004 40.9766 25.8064C40.9766 24.6871 42.0661 23.7575 43.8807 23.7575C44.3604 23.7575 45.0706 23.9323 45.4759 24.2075C45.4759 23.3522 45.1412 22.6829 44.1112 22.6829C43.8807 22.6829 43.3415 22.6978 42.7912 23.0324C42.4863 23.1923 42.0512 23.1626 41.7909 22.8577M45.4461 25.4717C45.0669 25.1222 44.4719 25.0813 44.1819 25.0813C43.3266 25.0813 43.0329 25.4457 43.0329 25.7915C43.0329 26.1373 43.4122 26.4757 43.8881 26.4757C44.1335 26.4757 45.1078 26.446 45.4424 25.4717" fill="#96C222"/>
<path d="M46.5036 9.19588L52.1296 4.31354C53.9368 2.74435 55.6994 1.79987 57.3057 1.42802C54.0781 -1.18606 50.2778 -0.23785 47.6154 4.47716L46.5408 6.37729C45.7562 7.76799 45.284 9.17729 45.1055 10.5494C45.5182 10.0995 45.9793 9.64953 46.4999 9.1996" fill="#FDCF00"/>
<path d="M64.624 14.4165C63.475 19.0237 59.3475 21.9352 53.9297 21.6526L56.4954 22.2996C63.4229 24.0436 66.7732 20.5706 64.624 14.4165Z" fill="#FDCF00"/>
<path d="M45.1084 10.5494C40.6797 15.3611 42.3828 19.8865 49.4478 21.0206L52.3482 21.4854C52.8874 21.571 53.4117 21.623 53.9286 21.6528L53.646 21.5821C47.689 20.0836 44.4502 15.5656 45.1084 10.5494Z" fill="#FBE900"/>
<path d="M60.6176 5.89028L63.8601 12.5947C64.1651 13.2231 64.4142 13.8292 64.6187 14.413C64.9311 13.1599 65.0277 11.7878 64.8678 10.3153L64.6299 8.14367C64.0609 2.93411 61.1196 0.54314 57.3008 1.42813C58.5167 2.41352 59.6508 3.90091 60.6139 5.89028" fill="#FBE900"/>
</g>
<path d="M64.6183 14.4167C64.4138 13.8329 64.1646 13.2268 63.8597 12.5946L60.6172 5.89025C59.6541 3.90088 58.52 2.41349 57.3041 1.4281C55.6977 1.79995 53.9352 2.74815 52.128 4.31363L46.502 9.19596C45.9814 9.6459 45.5203 10.0995 45.1075 10.5458C44.4494 15.5582 47.6881 20.0799 53.6451 21.5784L53.924 21.6491C59.3455 21.9317 63.4693 19.0201 64.6183 14.413" fill="#F08D0C"/>
<path d="M52.361 10.8173C51.9259 10.6946 51.6693 10.2186 51.8292 9.70176C52.2792 8.42261 53.324 7.64917 54.7668 7.64917C56.3434 7.64917 57.6746 8.74983 57.6746 10.3562C57.6746 11.2115 57.2544 11.9886 56.7376 12.6133L54.7259 14.9373H56.9272C57.3772 14.9373 57.7564 15.3464 57.7564 15.8335C57.7564 16.2946 57.3772 16.7296 56.9272 16.7296H52.387C52.0189 16.7296 51.7734 16.4842 51.7734 16.0901C51.7734 15.8298 51.8961 15.5583 52.0598 15.3687L55.2948 11.3565C55.5402 11.0441 55.7708 10.6909 55.7708 10.3525C55.7708 9.87653 55.3618 9.4675 54.6552 9.4675C54.1272 9.4675 53.7182 9.76497 53.5137 10.2558C53.3501 10.6351 52.9299 10.9772 52.3572 10.8136" fill="white"/>
</g>
<defs>
<linearGradient id="paint0_linear_7783_1184" x1="0" y1="17.8524" x2="14.9817" y2="17.8524" gradientUnits="userSpaceOnUse">
<stop stop-color="#46792F"/>
<stop offset="0.22" stop-color="#46792F"/>
<stop offset="0.62" stop-color="#63A730"/>
<stop offset="1" stop-color="#93C021"/>
</linearGradient>
<clipPath id="clip0_7783_1184">
<rect width="65.2627" height="28" fill="white"/>
</clipPath>
</defs>
</svg>
