<svg width="334" height="35" viewBox="0 0 334 35" fill="none" xmlns="http://www.w3.org/2000/svg">
<path d="M67.327 9.87214V25.8916H65.923V11.7225L59.5297 21.8885L53.1363 11.7225V25.8844H51.7251V9.87214C51.7251 9.64894 51.8043 9.45455 51.9699 9.28896C52.1355 9.12336 52.3371 9.04416 52.5747 9.04416C52.8411 9.04416 53.0643 9.16656 53.2443 9.40415L59.5225 19.347L65.8007 9.40415C65.9807 9.16656 66.211 9.04416 66.4918 9.04416C66.715 9.04416 66.9094 9.12336 67.075 9.28896C67.2406 9.45455 67.327 9.64175 67.327 9.87214Z" fill="white"/>
<path d="M89.0847 13.22C88.3215 11.9241 87.2992 10.9017 86.0032 10.1601C84.7216 9.41135 83.3393 9.04416 81.8057 9.04416C80.2722 9.04416 78.8538 9.42575 77.5579 10.1817C76.2619 10.9233 75.2324 11.9457 74.4764 13.2416C73.7276 14.5232 73.3604 15.9631 73.3604 17.5111C73.3604 19.059 73.7348 20.499 74.4764 21.8237C75.2396 23.1341 76.2619 24.1781 77.5579 24.9556C78.8682 25.7332 80.2866 26.1148 81.8057 26.1148C83.3393 26.1148 84.7504 25.7332 86.0248 24.9772C87.3208 24.1997 88.3431 23.1629 89.0847 21.8454C89.8479 20.5206 90.2223 19.0878 90.2223 17.5111C90.2223 15.9343 89.8479 14.5016 89.0847 13.22ZM87.8391 21.1542C87.2128 22.2557 86.3704 23.1341 85.312 23.7893C84.2537 24.4301 83.0873 24.7469 81.8057 24.7469C80.5242 24.7469 79.3506 24.4301 78.2778 23.7893C77.2051 23.1341 76.3555 22.2557 75.7291 21.1542C75.1028 20.0526 74.7932 18.8214 74.7932 17.5111C74.7932 16.2007 75.1028 15.0056 75.7291 13.9328C76.3555 12.86 77.1979 12.0105 78.2563 11.3841C79.329 10.7433 80.517 10.4265 81.8129 10.4265C83.1089 10.4265 84.2825 10.7433 85.3408 11.3841C86.4136 12.0105 87.256 12.86 87.8679 13.9328C88.4943 15.0056 88.8039 16.1791 88.8039 17.5111C88.8039 18.843 88.4727 20.0526 87.8391 21.1542Z" fill="white"/>
<path d="M99.402 25.8916C98.1636 25.8916 97.0404 25.5532 96.0253 24.8836C95.0101 24.1997 94.2685 23.3141 93.7934 22.2269L95.0461 21.6222C95.4349 22.4573 96.0181 23.1413 96.7885 23.6741C97.5804 24.1925 98.4516 24.4589 99.402 24.4589C100.266 24.4589 101.065 24.2501 101.792 23.8325C102.519 23.4005 103.095 22.8101 103.513 22.0685C103.931 21.327 104.139 20.499 104.139 19.5918V9.35375H105.543L105.565 19.5846C105.565 20.7582 105.291 21.8237 104.737 22.7813C104.183 23.7317 103.441 24.4949 102.505 25.0564C101.569 25.6108 100.532 25.8844 99.402 25.8916Z" fill="white"/>
<path d="M123.039 20.2542L122.42 18.7926L118.553 9.59855C118.481 9.41855 118.366 9.28896 118.215 9.19536C118.078 9.08736 117.934 9.03696 117.769 9.03696C117.603 9.03696 117.445 9.08736 117.301 9.19536C117.164 9.28176 117.063 9.41855 116.991 9.59855L112.434 20.2686L111.138 23.3141L110.036 25.8916H111.62L112.232 24.4589L114.032 20.2686L118.899 20.2614L118.28 18.7926H114.673L117.769 11.5785L118.719 13.832H118.726L120.094 17.0863L121.433 20.2614H121.44L123.824 25.8916H125.408L123.039 20.2542Z" fill="white"/>
<path d="M330.745 20.2542L330.126 18.7926L326.252 9.59855C326.18 9.41855 326.065 9.28896 325.921 9.19536C325.784 9.08736 325.64 9.03696 325.475 9.03696C325.309 9.03696 325.158 9.08736 325.007 9.19536C324.87 9.28176 324.769 9.41855 324.697 9.59855L320.147 20.2686L318.851 23.3141L317.749 25.8916H319.333L319.945 24.4589L321.745 20.2686L326.612 20.2614L325.993 18.7926H322.379L325.475 11.5785L326.425 13.832H326.432L327.8 17.0863L329.139 20.2614H329.147L331.53 25.8916H333.114L330.745 20.2542Z" fill="white"/>
<path d="M251.007 9.35375V25.2652C251.007 25.5028 250.921 25.7116 250.741 25.8916C250.575 26.0572 250.367 26.1364 250.115 26.1364C249.978 26.1364 249.855 26.1004 249.733 26.0212C249.618 25.9636 249.51 25.8772 249.423 25.7764L238.545 11.5353V25.8844H237.133V9.91534C237.133 9.66334 237.213 9.45455 237.378 9.28896C237.558 9.12336 237.767 9.04416 238.005 9.04416C238.156 9.04416 238.285 9.07296 238.408 9.13056C238.53 9.17376 238.631 9.26016 238.717 9.37535L249.575 23.7029V9.35375H251.007Z" fill="white"/>
<path d="M229.826 20.2542L229.207 18.7926L225.333 9.59855C225.261 9.41855 225.146 9.28896 225.002 9.19536C224.865 9.08736 224.721 9.03696 224.556 9.03696C224.39 9.03696 224.232 9.08736 224.088 9.19536C223.951 9.28176 223.85 9.41855 223.778 9.59855L219.22 20.2686L217.925 23.3141L216.823 25.8916H218.407L219.019 24.4589L220.819 20.2686L225.686 20.2614L225.067 18.7926H221.46L224.556 11.5785L225.506 13.832H225.513L226.881 17.0863L228.22 20.2614H228.227L230.611 25.8916H232.194L229.826 20.2542Z" fill="white"/>
<path d="M153.235 13.22C152.471 11.9241 151.449 10.9017 150.153 10.1601C148.872 9.41135 147.489 9.04416 145.956 9.04416C144.422 9.04416 143.004 9.42575 141.708 10.1817C140.412 10.9233 139.382 11.9457 138.626 13.2416C137.878 14.5232 137.51 15.9631 137.51 17.5111C137.51 19.059 137.885 20.499 138.626 21.8237C139.389 23.1341 140.412 24.1781 141.708 24.9556C143.018 25.7332 144.437 26.1148 145.956 26.1148C147.489 26.1148 148.9 25.7332 150.175 24.9772C151.471 24.1997 152.493 23.1629 153.235 21.8454C153.998 20.5206 154.372 19.0878 154.372 17.5111C154.372 15.9343 153.998 14.5016 153.235 13.22ZM151.989 21.1542C151.363 22.2557 150.52 23.1341 149.462 23.7893C148.404 24.4301 147.237 24.7469 145.956 24.7469C144.674 24.7469 143.501 24.4301 142.428 23.7893C141.355 23.1341 140.505 22.2557 139.879 21.1542C139.253 20.0526 138.943 18.8214 138.943 17.5111C138.943 16.2007 139.253 15.0056 139.879 13.9328C140.505 12.86 141.348 12.0105 142.406 11.3841C143.479 10.7433 144.667 10.4265 145.963 10.4265C147.259 10.4265 148.432 10.7433 149.491 11.3841C150.564 12.0105 151.406 12.86 152.018 13.9328C152.644 15.0056 152.954 16.1791 152.954 17.5111C152.954 18.843 152.623 20.0526 151.989 21.1542Z" fill="white"/>
<path d="M171.673 24.4805V25.8844H160.37C160.132 25.8844 159.93 25.8052 159.765 25.6396C159.599 25.474 159.52 25.2724 159.52 25.0348V9.35375H160.931V24.4805H171.673Z" fill="white"/>
<path d="M183.466 26.086C182.199 26.0428 181.011 25.8772 179.888 25.5964C178.772 25.3156 177.685 24.8909 176.627 24.3221L177.275 23.0261C178.225 23.5445 179.211 23.9405 180.227 24.2141C181.256 24.4805 182.336 24.6245 183.466 24.6389C184.705 24.6821 185.792 24.5813 186.728 24.3221C187.664 24.0701 188.391 23.6957 188.895 23.2061C189.399 22.7165 189.673 22.1477 189.701 21.507C189.73 20.6862 189.485 20.0454 188.967 19.5846C188.463 19.1238 187.815 18.7854 187.023 18.5767C186.231 18.3535 185.209 18.1519 183.942 17.9719C182.379 17.7631 181.155 17.5543 180.277 17.3455C179.413 17.1367 178.671 16.7335 178.045 16.1359C177.419 15.5384 177.123 14.6816 177.152 13.5656C177.181 12.6296 177.512 11.8161 178.131 11.1321C178.758 10.4337 179.615 9.90814 180.702 9.56975C181.803 9.22416 183.063 9.07296 184.474 9.10176C185.547 9.13056 186.613 9.27456 187.671 9.52655C188.729 9.76414 189.716 10.1025 190.623 10.5345L190.061 11.8089C188.333 11.0025 186.462 10.5705 184.453 10.5129C183.279 10.4841 182.257 10.5777 181.393 10.8009C180.529 11.0241 179.852 11.3769 179.363 11.8521C178.887 12.3273 178.635 12.9176 178.599 13.616C178.571 14.3576 178.801 14.9336 179.291 15.3368C179.78 15.7255 180.356 15.9919 181.011 16.1431C181.667 16.2799 182.682 16.4311 184.05 16.6111C185.526 16.8055 186.757 17.0431 187.736 17.3239C188.737 17.5903 189.565 18.0583 190.22 18.7351C190.889 19.4046 191.206 20.3334 191.156 21.5286C191.141 22.4645 190.803 23.2853 190.148 23.9837C189.493 24.6821 188.585 25.222 187.419 25.5892C186.26 25.9564 184.942 26.122 183.466 26.086Z" fill="white"/>
<path d="M198.37 25.8916C198.132 25.8916 197.931 25.8124 197.765 25.6468C197.6 25.4812 197.52 25.2796 197.52 25.042C197.52 24.8477 197.578 24.6749 197.7 24.5309L209.342 10.7649H197.765V9.35375H210.638C210.862 9.35375 211.056 9.43295 211.222 9.59855C211.387 9.76414 211.466 9.95854 211.466 10.1817C211.466 10.3761 211.409 10.5561 211.286 10.7145L199.666 24.4805H211.265V25.8916H198.37Z" fill="white"/>
<path d="M261.541 17.5543L270.432 9.35375H268.532L260.173 16.9927C260.022 17.1295 259.95 17.3167 259.95 17.5543C259.95 17.7775 260.022 17.9647 260.173 18.1159L268.683 25.8916H270.627L261.541 17.5543Z" fill="white"/>
<path d="M259.554 9.35375H258.142V25.8916H259.554V9.35375Z" fill="white"/>
<path d="M289.483 13.22C288.72 11.9241 287.697 10.9017 286.402 10.1601C285.12 9.41135 283.738 9.04416 282.197 9.04416C280.663 9.04416 279.245 9.42575 277.949 10.1817C276.653 10.9233 275.623 11.9457 274.867 13.2416C274.126 14.5232 273.752 15.9631 273.752 17.5111C273.752 19.059 274.126 20.499 274.867 21.8237C275.631 23.1341 276.653 24.1781 277.949 24.9556C279.259 25.7332 280.678 26.1148 282.197 26.1148C283.73 26.1148 285.142 25.7332 286.423 24.9772C287.719 24.1997 288.741 23.1629 289.483 21.8454C290.246 20.5206 290.621 19.0878 290.621 17.5111C290.621 15.9343 290.239 14.5016 289.483 13.22ZM288.23 21.1542C287.604 22.2557 286.762 23.1341 285.703 23.7893C284.645 24.4301 283.478 24.7469 282.197 24.7469C280.915 24.7469 279.742 24.4301 278.669 23.7893C277.596 23.1341 276.747 22.2557 276.12 21.1542C275.494 20.0526 275.184 18.8214 275.184 17.5111C275.184 16.2007 275.494 15.0056 276.12 13.9328C276.747 12.86 277.589 12.0105 278.647 11.3841C279.72 10.7433 280.901 10.4265 282.197 10.4265C283.493 10.4265 284.674 10.7433 285.725 11.3841C286.797 12.0105 287.64 12.86 288.252 13.9328C288.878 15.0056 289.188 16.1791 289.188 17.5111C289.188 18.843 288.871 20.0526 288.23 21.1542Z" fill="white"/>
<path d="M312.688 9.35375L309.952 23.6237L304.509 13.0832L299.087 23.6237L296.337 9.35375H294.861L298.015 25.51C298.044 25.69 298.137 25.8412 298.281 25.9564C298.447 26.0788 298.634 26.1364 298.843 26.1364C298.994 26.1364 299.131 26.1004 299.267 26.0212C299.404 25.9492 299.498 25.8412 299.555 25.7116L304.523 16.0423L309.477 25.7116C309.549 25.8484 309.65 25.9492 309.765 26.0212C309.902 26.0932 310.046 26.1364 310.211 26.1364C310.406 26.1364 310.586 26.0788 310.744 25.9564C310.91 25.834 311.003 25.69 311.032 25.51L314.185 9.35375H312.688Z" fill="white"/>
<path d="M28.1794 8.09338C25.2275 23.465 13.6358 33.9623 6.86074 33.9623H0.496094V1.28955H33.1689V33.9623H17.5957M30.8433 13.0253C30.0514 14.4148 27.9634 16.6252 25.5515 17.0572M29.1514 21.2331C26.7754 22.889 24.1403 23.6882 21.4476 23.5442M18.6756 16.3372C18.8268 17.9283 19.6044 21.593 21.534 23.4722M23.4635 11.0813C23.3267 12.9101 23.8595 15.7612 25.1915 17.0716M28.9642 1.49835C31.3185 4.46467 34.6112 13.6482 32.4561 20.3547C31.2458 24.8726 27.9274 29.2969 21.5196 29.2969C15.8173 29.0377 12.5558 25.0706 11.6558 22.709C8.06311 13.2917 19.6836 8.09338 24.8675 5.06946C27.6826 3.4279 28.5322 2.16073 28.9138 1.50555C28.9282 1.49115 28.9498 1.48395 28.9642 1.49835Z" stroke="white" stroke-width="0.79198" stroke-linecap="round"/>
</svg>
