<svg width="40" height="40" viewBox="0 0 40 40" fill="none" xmlns="http://www.w3.org/2000/svg">
    <path d="M3.332 19.167c0-5.48 0-8.219 1.513-10.063.277-.337.587-.647.924-.924 1.844-1.513 4.584-1.513 10.063-1.513 5.48 0 8.219 0 10.063 1.513.337.277.647.587.924.924 1.513 1.844 1.513 4.584 1.513 10.063v1.666c0 5.48 0 8.22-1.513 10.063a6.676 6.676 0 0 1-.924.924c-1.844 1.513-4.584 1.513-10.063 1.513-5.48 0-8.219 0-10.063-1.513a6.67 6.67 0 0 1-.924-.924c-1.513-1.844-1.513-4.583-1.513-10.063v-1.666z" stroke="url(#zdkec8cxaa)" stroke-width="2.5"/>
    <path d="m28.332 15.833 1.097-.548c3.243-1.622 4.865-2.433 6.05-1.7 1.186.733 1.186 2.546 1.186 6.172v.486c0 3.626 0 5.44-1.185 6.172-1.186.733-2.808-.078-6.05-1.7l-1.098-.548v-8.334z" stroke="url(#dnc9mge8ib)" stroke-width="2.5"/>
    <defs>
        <linearGradient id="zdkec8cxaa" x1="4.945" y1="6.667" x2="29.63" y2="7.928" gradientUnits="userSpaceOnUse">
            <stop stop-color="#F08D0C"/>
            <stop offset="1" stop-color="#F0540C"/>
        </linearGradient>
        <linearGradient id="dnc9mge8ib" x1="28.87" y1="13.313" x2="37.11" y2="13.593" gradientUnits="userSpaceOnUse">
            <stop stop-color="#F08D0C"/>
            <stop offset="1" stop-color="#F0540C"/>
        </linearGradient>
    </defs>
</svg>
