<svg width="40" height="40" viewBox="0 0 40 40" fill="none" xmlns="http://www.w3.org/2000/svg">
    <path d="M8.332 25c0 4.682 0 7.022 1.124 8.704a6.668 6.668 0 0 0 1.839 1.84c1.681 1.123 4.022 1.123 8.704 1.123 4.681 0 7.022 0 8.704-1.124a6.668 6.668 0 0 0 1.839-1.84c1.123-1.68 1.123-4.021 1.123-8.703V15c0-4.681 0-7.022-1.123-8.704a6.667 6.667 0 0 0-1.84-1.84C27.021 3.334 24.68 3.334 20 3.334c-4.682 0-7.023 0-8.704 1.124a6.667 6.667 0 0 0-1.84 1.84C8.333 7.976 8.333 10.318 8.333 15v10z" stroke="url(#x59dlxgiwa)" stroke-width="2.5"/>
    <path d="M23.5 14.167a3.5 3.5 0 1 0-7 0 3.5 3.5 0 0 0 7 0z" stroke="url(#edh3uxkweb)" stroke-width="2.5"/>
    <path d="M18.333 24.167a1.667 1.667 0 1 0-3.333 0 1.667 1.667 0 0 0 3.333 0z" fill="url(#wfewq4zp6c)"/>
    <circle cx="1.667" cy="1.667" r="1.667" transform="matrix(1 0 0 -1 15 31.667)" fill="url(#4kpy3od04d)"/>
    <path d="M25.001 24.167a1.667 1.667 0 1 0-3.333 0 1.667 1.667 0 0 0 3.333 0z" fill="url(#0bg5os8wqe)"/>
    <circle cx="1.667" cy="1.667" r="1.667" transform="matrix(1 0 0 -1 21.668 31.667)" fill="url(#ehea6z2s2f)"/>
    <defs>
        <linearGradient id="x59dlxgiwa" x1="9.837" y1="36.667" x2="32.904" y2="35.787" gradientUnits="userSpaceOnUse">
            <stop stop-color="#F08D0C"/>
            <stop offset="1" stop-color="#F0540C"/>
        </linearGradient>
        <linearGradient id="edh3uxkweb" x1="16.952" y1="17.667" x2="23.861" y2="17.29" gradientUnits="userSpaceOnUse">
            <stop stop-color="#F08D0C"/>
            <stop offset="1" stop-color="#F0540C"/>
        </linearGradient>
        <linearGradient id="wfewq4zp6c" x1="15.215" y1="25.833" x2="18.505" y2="25.654" gradientUnits="userSpaceOnUse">
            <stop stop-color="#F08D0C"/>
            <stop offset="1" stop-color="#F0540C"/>
        </linearGradient>
        <linearGradient id="4kpy3od04d" x1=".215" y1="0" x2="3.505" y2=".179" gradientUnits="userSpaceOnUse">
            <stop stop-color="#F08D0C"/>
            <stop offset="1" stop-color="#F0540C"/>
        </linearGradient>
        <linearGradient id="0bg5os8wqe" x1="21.883" y1="25.833" x2="25.173" y2="25.654" gradientUnits="userSpaceOnUse">
            <stop stop-color="#F08D0C"/>
            <stop offset="1" stop-color="#F0540C"/>
        </linearGradient>
        <linearGradient id="ehea6z2s2f" x1=".215" y1="0" x2="3.505" y2=".179" gradientUnits="userSpaceOnUse">
            <stop stop-color="#F08D0C"/>
            <stop offset="1" stop-color="#F0540C"/>
        </linearGradient>
    </defs>
</svg>
