<svg width="40" height="40" viewBox="0 0 40 40" fill="none" xmlns="http://www.w3.org/2000/svg">
    <path fill-rule="evenodd" clip-rule="evenodd" d="M14.999 2.083c.69 0 1.25.56 1.25 1.25v2.105c.776-.015 1.609-.02 2.5-.02V3.332a1.25 1.25 0 1 1 2.5 0v2.084c.89.002 1.723.006 2.5.021V3.334a1.25 1.25 0 1 1 2.5 0v2.211c.433.033.843.075 1.231.127 1.954.263 3.536.816 4.783 2.064 1.248 1.247 1.801 2.828 2.064 4.782.052.389.093.799.127 1.232h2.211a1.25 1.25 0 0 1 0 2.5h-2.104c.015.777.02 1.61.02 2.5h2.084a1.25 1.25 0 0 1 0 2.5h-2.084c0 .891-.005 1.724-.02 2.5h2.104a1.25 1.25 0 0 1 0 2.5h-2.211c-.034.433-.075.844-.127 1.232-.263 1.954-.816 3.535-2.064 4.783-1.247 1.247-2.829 1.8-4.783 2.063a21.55 21.55 0 0 1-1.231.127v2.212a1.25 1.25 0 1 1-2.5 0v-2.105c-.777.015-1.61.02-2.5.021v2.084a1.25 1.25 0 1 1-2.5 0v-2.084c-.891-.001-1.724-.006-2.5-.02v2.104a1.25 1.25 0 1 1-2.5 0v-2.212a21.55 21.55 0 0 1-1.232-.127c-1.954-.262-3.536-.816-4.783-2.063-1.247-1.248-1.8-2.83-2.063-4.783a21.584 21.584 0 0 1-.127-1.232H3.332a1.25 1.25 0 0 1 0-2.5h2.105c-.015-.776-.02-1.609-.021-2.5H3.332a1.25 1.25 0 0 1 0-2.5h2.084c.001-.89.006-1.723.02-2.5H3.333a1.25 1.25 0 0 1 0-2.5h2.212c.033-.433.074-.843.127-1.232.262-1.954.816-3.535 2.063-4.782 1.247-1.248 2.829-1.801 4.783-2.064.388-.052.799-.094 1.232-.127V3.333c0-.69.56-1.25 1.25-1.25zM12.85 8.15c-1.677.225-2.643.648-3.348 1.353-.705.706-1.128 1.672-1.354 3.349-.23 1.712-.233 3.97-.233 7.148 0 3.178.003 5.436.233 7.149.226 1.677.649 2.643 1.354 3.348.705.705 1.671 1.128 3.348 1.354 1.713.23 3.97.233 7.149.233 3.178 0 5.436-.003 7.148-.233 1.677-.226 2.643-.649 3.349-1.354.705-.705 1.128-1.671 1.353-3.348.23-1.713.233-3.97.233-7.149 0-3.178-.003-5.436-.233-7.148-.225-1.677-.648-2.643-1.354-3.349-.705-.705-1.67-1.128-3.348-1.353-1.712-.23-3.97-.233-7.148-.233-3.178 0-5.436.002-7.149.233zm3.733 2.267h6.831c1.108 0 2.063 0 2.828.103.82.11 1.605.358 2.242.995s.885 1.423.995 2.242c.103.765.103 1.72.103 2.827v6.832c0 1.108 0 2.063-.103 2.827-.11.82-.358 1.605-.995 2.242s-1.423.886-2.242.996c-.765.103-1.72.103-2.828.102h-6.83c-1.109 0-2.064 0-2.828-.102-.82-.11-1.605-.359-2.242-.996s-.886-1.422-.996-2.242c-.103-.764-.103-1.72-.103-2.827v-6.832c0-1.108 0-2.062.103-2.827.11-.82.359-1.605.996-2.242s1.422-.885 2.242-.995c.764-.103 1.719-.103 2.827-.103zm-2.494 2.58c-.542.073-.712.19-.808.286-.095.095-.212.265-.285.807-.078.578-.08 1.363-.08 2.577v6.666c0 1.214.002 1.999.08 2.577.073.542.19.712.285.807.096.096.266.213.808.286.578.078 1.362.08 2.576.08h6.667c1.214 0 1.998-.002 2.577-.08.542-.073.712-.19.807-.286.095-.095.213-.265.286-.807.077-.578.08-1.363.08-2.576v-6.667c0-1.214-.003-1.999-.08-2.577-.073-.542-.19-.712-.286-.807-.095-.095-.265-.213-.807-.286-.578-.078-1.363-.08-2.577-.08h-6.667c-1.213 0-1.998.002-2.576.08z" fill="url(#urxruzpxja)"/>
    <defs>
        <linearGradient id="urxruzpxja" x1="4.394" y1="2.083" x2="39.763" y2="4.011" gradientUnits="userSpaceOnUse">
            <stop stop-color="#F08D0C"/>
            <stop offset="1" stop-color="#F0540C"/>
        </linearGradient>
    </defs>
</svg>
