<svg width="40" height="40" viewBox="0 0 40 40" fill="none" xmlns="http://www.w3.org/2000/svg">
    <path fill-rule="evenodd" clip-rule="evenodd" d="M20 4.583c-6.213 0-11.25 5.037-11.25 11.25 0 3.331 1.446 6.323 3.748 8.385l.008.006c.928.83 1.632 1.462 2.136 1.924.475.435.85.79 1.047 1.033l.022.026c.368.456.69.852.902 1.326.212.474.293.978.386 1.557l.005.033c.048.297.067.66.074 1.127h5.844a8.21 8.21 0 0 1 .074-1.127l.005-.033c.093-.579.174-1.082.386-1.557.212-.474.534-.87.902-1.326l.022-.026c.197-.243.573-.598 1.047-1.033.504-.462 1.209-1.093 2.136-1.924l.008-.006a11.219 11.219 0 0 0 3.748-8.384c0-6.214-5.037-11.25-11.25-11.25zm2.906 29.167h-5.812c.005.174.014.326.026.462.034.375.091.512.13.58.11.19.268.348.458.457.068.04.205.097.58.131.392.036.91.037 1.712.037.802 0 1.32-.001 1.712-.037.375-.034.512-.091.58-.13.19-.11.348-.268.457-.458.04-.068.097-.205.13-.58.013-.136.021-.288.027-.462zM6.25 15.834c0-7.594 6.156-13.75 13.75-13.75s13.75 6.156 13.75 13.75c0 4.07-1.771 7.73-4.58 10.246-.937.839-1.631 1.46-2.123 1.91-.245.226-.434.402-.572.537a6.373 6.373 0 0 0-.207.21l-.015.018c-.433.535-.527.673-.583.798-.056.125-.096.287-.206.967-.043.269-.047.729-.047 1.98v.054c0 .733 0 1.365-.047 1.884-.05.548-.16 1.092-.456 1.604a3.75 3.75 0 0 1-1.372 1.372c-.512.296-1.056.406-1.604.456-.52.047-1.151.047-1.884.047h-.108c-.733 0-1.365 0-1.884-.047-.548-.05-1.092-.16-1.604-.456a3.75 3.75 0 0 1-1.372-1.372c-.296-.512-.406-1.056-.456-1.604-.047-.519-.047-1.151-.047-1.884V32.5c0-1.251-.004-1.711-.047-1.98-.11-.68-.15-.842-.206-.967-.056-.125-.15-.263-.583-.798l-.015-.018a6.58 6.58 0 0 0-.206-.21 27.171 27.171 0 0 0-.573-.536c-.492-.451-1.186-1.072-2.122-1.911A13.719 13.719 0 0 1 6.25 15.834z" fill="url(#iqdal4leaa)"/>
    <path fill-rule="evenodd" clip-rule="evenodd" d="M22.036 13.15a1.25 1.25 0 0 1 .29 1.743l-2.16 3.024h2.572a1.25 1.25 0 0 1 1.017 1.976l-3.571 5a1.25 1.25 0 0 1-2.035-1.453l2.16-3.023h-2.571a1.25 1.25 0 0 1-1.017-1.977l3.571-5a1.25 1.25 0 0 1 1.744-.29z" fill="url(#2u3fffycyb)"/>
    <defs>
        <linearGradient id="iqdal4leaa" x1="8.024" y1="2.083" x2="35.201" y2="3.22" gradientUnits="userSpaceOnUse">
            <stop stop-color="#F08D0C"/>
            <stop offset="1" stop-color="#F0540C"/>
        </linearGradient>
        <linearGradient id="2u3fffycyb" x1="8.024" y1="2.083" x2="35.201" y2="3.22" gradientUnits="userSpaceOnUse">
            <stop stop-color="#F08D0C"/>
            <stop offset="1" stop-color="#F0540C"/>
        </linearGradient>
    </defs>
</svg>
