<svg width="40" height="40" viewBox="0 0 40 40" fill="none" xmlns="http://www.w3.org/2000/svg">
    <path fill-rule="evenodd" clip-rule="evenodd" d="M8.75 12.834c0-5.997 5.098-10.75 11.25-10.75 6.013 0 11.02 4.541 11.242 10.346l.797.265c.771.258 1.448.483 1.985.733.58.27 1.112.617 1.518 1.181.407.564.568 1.179.641 1.815.067.588.067 1.3.067 2.114v9.58c0 1.017 0 1.883-.079 2.578-.083.731-.268 1.45-.77 2.063a3.752 3.752 0 0 1-1.034.875c-.687.395-1.426.46-2.161.421-.699-.036-1.553-.179-2.555-.346l-.07-.011c-2.154-.36-3.023-.495-3.869-.424-.31.026-.617.072-.92.138-.83.181-1.627.57-3.599 1.556l-.203.101c-2.304 1.153-3.724 1.863-5.256 2.085-.46.067-.926.1-1.392.099-1.548-.003-3.042-.502-5.466-1.31l-.213-.07-.64-.214-.062-.02c-.771-.258-1.448-.483-1.985-.733-.58-.27-1.112-.618-1.518-1.182-.407-.564-.568-1.178-.64-1.814-.068-.588-.068-1.301-.068-2.115V21.43c0-1.31 0-2.415.112-3.28.117-.903.382-1.785 1.109-2.45.214-.194.45-.364.702-.505.86-.48 1.78-.452 2.674-.278.182.036.371.08.57.13a15.111 15.111 0 0 1-.167-2.212zm.831 5.015c-.713-.23-1.26-.39-1.712-.479-.659-.128-.875-.05-.978.007a1.248 1.248 0 0 0-.234.169c-.087.08-.23.26-.316.925-.088.685-.091 1.625-.091 3.043v8.216c0 .898.002 1.467.05 1.896.046.398.12.546.186.637.065.09.182.207.545.376.392.182.93.364 1.783.648l.64.213c2.705.902 3.797 1.25 4.893 1.253.344 0 .688-.024 1.029-.073 1.084-.157 2.126-.661 4.7-1.948l.154-.078c1.768-.884 2.857-1.429 4.028-1.684.41-.09.827-.153 1.246-.188 1.195-.1 2.387.1 4.32.422l.168.028c1.09.181 1.804.298 2.345.327.52.027.698-.043.785-.093a1.25 1.25 0 0 0 .345-.291c.064-.078.162-.243.22-.76.061-.538.063-1.261.063-2.366v-9.445c0-.898-.002-1.467-.05-1.897-.046-.397-.12-.545-.186-.636-.065-.09-.182-.208-.545-.377-.392-.182-.93-.364-1.783-.648l-.098-.032a17.835 17.835 0 0 1-2.226 6.313c-1.52 2.613-3.746 4.89-6.534 6.106a5.842 5.842 0 0 1-4.656 0c-2.788-1.216-5.013-3.493-6.534-6.106a18.098 18.098 0 0 1-1.557-3.478zM20 4.584c-4.894 0-8.75 3.753-8.75 8.25 0 2.362.73 4.968 2.049 7.235 1.32 2.269 3.18 4.116 5.372 5.072a3.342 3.342 0 0 0 2.658 0c2.192-.956 4.052-2.803 5.372-5.072 1.32-2.267 2.049-4.873 2.049-7.235 0-4.497-3.856-8.25-8.75-8.25zm0 6.666a2.083 2.083 0 1 0 0 4.167 2.083 2.083 0 0 0 0-4.167zm-4.583 2.084a4.583 4.583 0 1 1 9.166 0 4.583 4.583 0 0 1-9.166 0z" fill="url(#v5j0mhpx8a)"/>
    <defs>
        <linearGradient id="v5j0mhpx8a" x1="5.847" y1="2.083" x2="37.94" y2="3.7" gradientUnits="userSpaceOnUse">
            <stop stop-color="#F08D0C"/>
            <stop offset="1" stop-color="#F0540C"/>
        </linearGradient>
    </defs>
</svg>
