<svg width="40" height="40" viewBox="0 0 40 40" fill="none" xmlns="http://www.w3.org/2000/svg">
    <path fill-rule="evenodd" clip-rule="evenodd" d="M18.73 4.665c-1.024.135-2.288.425-4.086.84l-2.047.473c-1.518.35-2.564.593-3.362.867-.771.265-1.208.526-1.537.855-.329.329-.59.765-.854 1.536-.274.799-.517 1.845-.868 3.363l-.472 2.047c-.415 1.797-.705 3.061-.84 4.085-.132.997-.102 1.671.074 2.284.176.614.508 1.202 1.148 1.978.657.796 1.573 1.713 2.877 3.018l3.05 3.05c2.266 2.265 3.878 3.874 5.264 4.931 1.357 1.036 2.35 1.425 3.359 1.425s2.002-.389 3.359-1.425c1.386-1.057 2.998-2.666 5.264-4.931 2.266-2.266 3.874-3.879 4.932-5.265 1.036-1.357 1.424-2.35 1.424-3.359s-.388-2.001-1.424-3.359c-1.058-1.386-2.666-2.998-4.932-5.264l-3.05-3.05c-1.304-1.304-2.222-2.22-3.018-2.877-.776-.64-1.364-.972-1.977-1.148-.613-.175-1.288-.206-2.285-.074zm-.328-2.478c1.195-.158 2.243-.154 3.301.15 1.058.303 1.95.855 2.88 1.622.899.742 1.9 1.743 3.15 2.994l3.16 3.16c2.185 2.184 3.914 3.914 5.085 5.45 1.206 1.579 1.937 3.099 1.937 4.874 0 1.776-.731 3.296-1.937 4.876-1.17 1.535-2.9 3.264-5.085 5.449l-.133.133c-2.184 2.184-3.914 3.914-5.449 5.085-1.58 1.205-3.1 1.937-4.875 1.937-1.776 0-3.296-.732-4.875-1.937-1.536-1.171-3.265-2.9-5.45-5.085l-3.159-3.16c-1.251-1.25-2.252-2.252-2.994-3.151-.768-.93-1.32-1.822-1.623-2.88-.303-1.057-.308-2.105-.15-3.3.153-1.157.471-2.536.869-4.26l.501-2.172c.332-1.438.603-2.611.924-3.547.336-.978.758-1.8 1.452-2.493.693-.693 1.514-1.116 2.492-1.451.936-.322 2.11-.592 3.548-.924l2.171-.502c1.724-.397 3.104-.716 4.26-.868zm-2.585 11.139a2.083 2.083 0 1 0-2.946 2.946 2.083 2.083 0 0 0 2.946-2.946zm-4.714-1.768a4.583 4.583 0 1 1 6.482 6.482 4.583 4.583 0 0 1-6.482-6.482zm10.55 8.62c-.294-.002-.682.13-1.014.462-.646.646-.476 1.292-.295 1.473.182.182.828.352 1.473-.294 1.307-1.307 3.563-1.74 5.009-.295 1.122 1.122 1.112 2.731.441 4.006a1.25 1.25 0 0 1-1.733 1.742c-.761.405-1.628.557-2.454.387a1.25 1.25 0 1 1 .504-2.449c.295.06.77-.036 1.18-.445.646-.646.476-1.292.294-1.473-.181-.181-.827-.351-1.473.295-1.307 1.306-3.563 1.74-5.009.294-1.121-1.121-1.112-2.73-.44-4.006a1.25 1.25 0 0 1 1.732-1.742 3.79 3.79 0 0 1 1.81-.454 1.25 1.25 0 0 1-.024 2.5z" fill="url(#3boh0wwpja)"/>
    <defs>
        <linearGradient id="3boh0wwpja" x1="4.394" y1="2.083" x2="39.763" y2="4.011" gradientUnits="userSpaceOnUse">
            <stop stop-color="#F08D0C"/>
            <stop offset="1" stop-color="#F0540C"/>
        </linearGradient>
    </defs>
</svg>
