<svg width="40" height="40" viewBox="0 0 40 40" fill="none" xmlns="http://www.w3.org/2000/svg">
    <path fill-rule="evenodd" clip-rule="evenodd" d="M13.258 2.083H26.74c.721 0 1.383 0 1.92.073.593.08 1.22.267 1.734.782.516.515.703 1.141.783 1.733.072.539.072 1.2.072 1.921v.15c0 .72 0 1.382-.072 1.92-.08.593-.267 1.219-.783 1.734-.515.515-1.14.702-1.733.782-.538.072-1.2.072-1.921.072h-2.158v3.608l2.387.596a1.25 1.25 0 1 1-.607 2.426l-1.78-.445v3.256l2.387.597a1.25 1.25 0 1 1-.607 2.425l-1.78-.445v.696a3.752 3.752 0 0 1-.535 7.218 4.583 4.583 0 1 1-8.096 0 3.751 3.751 0 0 1-.536-7.218v-2.988l-2.386-.596a1.25 1.25 0 0 1 .606-2.426l1.78.445v-3.256l-2.386-.597a1.25 1.25 0 0 1 .606-2.425l1.78.445V11.25H13.257c-.72 0-1.382 0-1.92-.072-.593-.08-1.219-.267-1.734-.782-.515-.515-.702-1.141-.782-1.734-.072-.538-.072-1.2-.072-1.92v-.15c0-.721 0-1.382.072-1.92.08-.593.267-1.22.782-1.734.515-.515 1.141-.703 1.734-.782.538-.073 1.2-.073 1.92-.073zm4.657 9.167v1.94l4.167 1.043V11.25h-4.167zm4.167 5.56-4.167-1.042v3.256l4.167 1.042V16.81zm0 5.833L17.915 21.6v2.15h4.167v-1.108zm-2.083 8.607a2.083 2.083 0 1 0 0 4.167 2.083 2.083 0 0 0 0-4.167zm3.333-2.5a1.25 1.25 0 0 0 0-2.5h-6.667a1.25 1.25 0 1 0 0 2.5h6.667zM11.371 4.705zm.004-.002-.004.002-.003.005a1.178 1.178 0 0 0-.07.295c-.047.35-.05.84-.05 1.662 0 .82.003 1.31.05 1.662a1.178 1.178 0 0 0 .07.295l.003.004.004.002a1.176 1.176 0 0 0 .295.07c.351.048.841.05 1.662.05h13.333c.821 0 1.311-.002 1.663-.05a1.176 1.176 0 0 0 .295-.07l.004-.002.002-.004a1.178 1.178 0 0 0 .07-.295c.047-.351.05-.841.05-1.662s-.003-1.311-.05-1.662a1.178 1.178 0 0 0-.07-.295l-.002-.004-.004-.003a1.176 1.176 0 0 0-.295-.07c-.352-.047-.842-.05-1.663-.05H13.332c-.821 0-1.311.003-1.662.05a1.176 1.176 0 0 0-.295.07zm17.252.003zm0 0zM11.37 8.628zm-5.225 3.826a1.25 1.25 0 0 1 1.768-.009l1.179 1.167a1.25 1.25 0 0 1-1.76 1.776l-1.178-1.166a1.25 1.25 0 0 1-.009-1.768zm27.705 0a1.25 1.25 0 0 1-.009 1.768l-1.178 1.166a1.25 1.25 0 1 1-1.76-1.776l1.18-1.167a1.25 1.25 0 0 1 1.767.009zm-1.769 6.712c0-.69.56-1.25 1.25-1.25h3.333a1.25 1.25 0 0 1 0 2.5h-3.333c-.69 0-1.25-.56-1.25-1.25zm-30 .002c0-.69.56-1.25 1.25-1.25h3.333a1.25 1.25 0 0 1 0 2.5H3.332c-.69 0-1.25-.56-1.25-1.25zm7.02 3.786a1.25 1.25 0 0 1-.01 1.768l-1.178 1.166a1.25 1.25 0 1 1-1.759-1.776l1.179-1.167a1.25 1.25 0 0 1 1.768.01zm21.794 0a1.25 1.25 0 0 1 1.768-.009l1.178 1.167a1.25 1.25 0 0 1-1.759 1.776l-1.178-1.166a1.25 1.25 0 0 1-.01-1.768z" fill="url(#7cbn02wr4a)"/>
    <defs>
        <linearGradient id="7cbn02wr4a" x1="4.394" y1="2.083" x2="39.763" y2="4.011" gradientUnits="userSpaceOnUse">
            <stop stop-color="#F08D0C"/>
            <stop offset="1" stop-color="#F0540C"/>
        </linearGradient>
    </defs>
</svg>
